<?xml version="1.0" encoding="UTF-8" standalone="no"?>
<svg
   width="720"
   height="680"
   viewBox="0 0 720 680"
   fill="none"
   version="1.1"
   id="svg8"
   xmlns="http://www.w3.org/2000/svg"
   xmlns:svg="http://www.w3.org/2000/svg">
  <defs
     id="defs8" />
  <g
     transform="translate(210 32) scale(2.5)"
     id="g7">
    <path
       d="M17 18 L31 12 L63 91 L50 103 Z"
       fill="#4D5DFF"
       id="path1" />
    <path
       d="M103 18 L89 12 L57 91 L70 103 Z"
       fill="#B8A8FF"
       id="path2" />
    <circle
       cx="24"
       cy="18"
       r="14"
       fill="#4D5DFF"
       id="circle2" />
    <circle
       cx="24"
       cy="18"
       r="7"
       fill="#F5F1E8"
       id="circle3" />
    <circle
       cx="96"
       cy="18"
       r="14"
       fill="#B8A8FF"
       id="circle4" />
    <circle
       cx="96"
       cy="18"
       r="7"
       fill="#F5F1E8"
       id="circle5" />
    <circle
       cx="60"
       cy="96"
       r="15"
       fill="#F5F1E8"
       id="circle6" />
    <circle
       cx="60"
       cy="96"
       r="10"
       fill="#101426"
       id="circle7" />
    <rect
       x="56"
       y="108"
       width="8"
       height="28"
       rx="4"
       fill="#101426"
       id="rect7" />
  </g>
  <path
     d="m 160.18418,500 h 23.04687 l 24.31641,-72.75391 h -19.14062 l -9.7168,31.78711 c -2.44141,8.30078 -4.63867,17.13867 -6.88477,26.85547 -2.34375,-9.66797 -4.63867,-18.60351 -7.1289,-26.85547 l -10.10742,-31.78711 h -19.38477 z m 56.52226,0 H 267.1459 V 485.9375 H 233.94277 V 470.11719 H 264.558 v -13.76953 h -30.61523 v -15.03907 h 33.25195 v -14.0625 h -50.48828 z m 62.18633,0 h 17.23633 v -25.04883 h 9.375 L 318.83417,500 h 18.89649 l -15.18555,-27.7832 c 8.05664,-3.61328 12.64649,-10.74219 12.64649,-20.80078 0,-14.84375 -10.10743,-24.16993 -26.51368,-24.16993 h -29.78515 z m 17.23633,-38.67188 v -20.11718 h 8.88671 c 8.10547,0 12.30469,3.41797 12.30469,10.20508 0,6.7871 -4.19922,9.9121 -12.25586,9.9121 z M 373.06153,500 c 22.11914,0 35.79102,-13.67188 35.79102,-36.37695 0,-22.70508 -13.67188,-36.37696 -35.79102,-36.37696 H 346.30372 V 500 Z m -9.52148,-14.74609 v -43.26172 h 8.54492 c 12.74414,0 19.53125,5.85937 19.53125,21.63086 0,15.77148 -6.78711,21.63086 -19.28711,21.63086 z m 73.4656,-58.00782 H 419.76932 V 500 h 17.23633 z m 45.29181,73.73047 c 19.77539,0 30.85938,-13.67187 32.17774,-26.66015 h -17.43165 c -1.2207,7.08007 -6.59179,11.52343 -14.40429,11.52343 -10.44922,0 -17.13867,-7.56836 -17.13867,-22.16797 0,-14.11132 6.54296,-22.26562 17.23632,-22.26562 7.8125,0 13.13477,4.44336 14.25782,11.52344 h 17.43164 c -2.00196,-16.94336 -14.84375,-26.66016 -32.12891,-26.66016 -19.38476,0 -34.42383,13.37891 -34.42383,37.40234 0,23.87696 14.7461,37.30469 34.42383,37.30469 z m 40.36017,-59.66797 h 22.02148 V 500 h 17.1875 v -58.69141 h 22.02149 v -14.0625 h -61.23047 z"
     id="text7"
     style="font-weight:800;font-size:100px;font-family:Inter;letter-spacing:1.2;text-anchor:middle;fill:#101426"
     aria-label="VERDICT" />
  <path
     d="m 302.4668,578 c 8.40527,0 13.28515,-5.21387 13.28515,-13.86035 0,-8.59082 -4.87988,-13.78613 -13.02539,-13.78613 h -9.25879 V 578 Z m -4.76856,-3.71094 v -20.22461 h 4.75 c 6.03028,0 9.14746,3.58106 9.14746,10.0752 0,6.5498 -3.11718,10.14941 -9.37011,10.14941 z M 339.02246,578 h 4.23047 v -11.50391 h 11.72656 v -3.61816 h -11.72656 v -8.8877 h 12.96973 v -3.63671 h -17.2002 z m 44.75684,-27.64648 h -4.23047 V 578 h 4.23047 z M 408.0332,578 h 4.23047 v -10.44629 h 5.64063 c 0.0742,0 0.16699,0 0.24121,0 L 423.74902,578 h 4.80567 l -6.08594,-11.16992 c 3.3584,-1.26172 5.04687,-4.08203 5.04687,-7.79297 0,-5.10254 -3.17285,-8.68359 -9.57421,-8.68359 h -9.90821 z m 4.23047,-14.06445 v -9.96387 h 5.19531 c 4.08204,0 5.77051,1.94824 5.77051,5.06543 0,3.09863 -1.68847,4.89844 -5.7334,4.89844 z"
     id="text8"
     style="font-weight:500;font-size:38px;font-family:Inter;letter-spacing:4;text-anchor:middle;fill:#4d5dff"
     aria-label="D F I R" />
</svg>
