<?xml version="1.0" encoding="UTF-8" standalone="no"?>
<svg
   width="1400"
   height="100"
   viewBox="0 0 1400 100"
   fill="none"
   version="1.1"
   id="svg12"
   xmlns="http://www.w3.org/2000/svg"
   xmlns:svg="http://www.w3.org/2000/svg">
  <defs
     id="defs12" />
  <rect
     width="1400"
     height="100"
     fill="#101426"
     id="rect1" />
  <g
     transform="translate(24 14) scale(0.55)"
     id="g7">
    <path
       d="M17 18 L31 12 L63 91 L50 103 Z"
       fill="#4D5DFF"
       id="path1" />
    <path
       d="M103 18 L89 12 L57 91 L70 103 Z"
       fill="#B8A8FF"
       id="path2" />
    <circle
       cx="24"
       cy="18"
       r="14"
       fill="#4D5DFF"
       id="circle2" />
    <circle
       cx="24"
       cy="18"
       r="7"
       fill="#FFFFFF"
       id="circle3" />
    <circle
       cx="96"
       cy="18"
       r="14"
       fill="#B8A8FF"
       id="circle4" />
    <circle
       cx="96"
       cy="18"
       r="7"
       fill="#FFFFFF"
       id="circle5" />
    <circle
       cx="60"
       cy="96"
       r="15"
       fill="#101426"
       id="circle6" />
    <circle
       cx="60"
       cy="96"
       r="10"
       fill="#F5F1E8"
       id="circle7" />
    <rect
       x="56"
       y="108"
       width="8"
       height="28"
       rx="4"
       fill="#F5F1E8"
       id="rect7" />
  </g>
  <path
     d="m 107.09668,62 h 5.99219 l 6.32226,-18.916016 h -4.97656 l -2.52637,8.264649 c -0.63476,2.158203 -1.20605,4.456054 -1.79004,6.982422 -0.60937,-2.513672 -1.20605,-4.836914 -1.85351,-6.982422 l -2.62793,-8.264649 h -5.04004 z m 14.38379,0 h 13.11426 v -3.65625 h -8.63282 v -4.113281 h 7.95996 v -3.580078 h -7.95996 v -3.910157 h 8.64551 v -3.65625 h -13.12695 z m 15.85644,0 h 4.48145 v -6.512695 h 2.4375 L 147.72168,62 h 4.91309 l -3.94825,-7.223633 c 2.09473,-0.939453 3.28809,-2.792969 3.28809,-5.408203 0,-3.859375 -2.62793,-6.28418 -6.89356,-6.28418 h -7.74414 z m 4.48145,-10.054688 v -5.230468 h 2.31055 c 2.10742,0 3.19921,0.888672 3.19921,2.65332 0,1.764648 -1.09179,2.577148 -3.18652,2.577148 z M 161.50879,62 c 5.75098,0 9.30566,-3.554688 9.30566,-9.458008 0,-5.90332 -3.55468,-9.458008 -9.30566,-9.458008 h -6.95703 V 62 Z M 159.0332,58.166016 V 46.917969 h 2.22168 c 3.31348,0 5.07813,1.523437 5.07813,5.624023 0,4.100586 -1.76465,5.624024 -5.01465,5.624024 z m 18.78907,-15.082032 h -4.48145 V 62 h 4.48145 z m 11.46386,19.169922 c 5.1416,0 8.02344,-3.554687 8.36621,-6.93164 h -4.53222 c -0.31739,1.84082 -1.71387,2.996093 -3.74512,2.996093 -2.7168,0 -4.45605,-1.967773 -4.45605,-5.763672 0,-3.668945 1.70117,-5.789062 4.48144,-5.789062 2.03125,0 3.41504,1.155273 3.70703,2.996094 h 4.53223 c -0.52051,-4.405274 -3.85938,-6.931641 -8.35352,-6.931641 -5.04004,0 -8.95019,3.478516 -8.95019,9.724609 0,6.208008 3.83398,9.699219 8.95019,9.699219 z m 10.18164,-15.513672 h 5.72559 V 62 h 4.46875 V 46.740234 h 5.72559 v -3.65625 h -15.91993 z"
     id="text7"
     style="font-weight:800;font-size:26px;font-family:Inter;letter-spacing:0;fill:#f5f1e8"
     aria-label="VERDICT" />
  <path
     d="m 251.98242,62 c 4.86621,0 7.69141,-3.018555 7.69141,-8.024414 0,-4.973633 -2.8252,-7.981445 -7.54102,-7.981445 h -5.36035 V 62 Z m -2.76074,-2.148438 V 48.142578 h 2.75 c 3.49121,0 5.2959,2.073242 5.2959,5.833008 0,3.791992 -1.80469,5.875976 -5.42481,5.875976 z M 266.64941,62 h 2.44922 v -6.660156 h 6.78907 v -2.094727 h -6.78907 v -5.145508 h 7.50879 v -2.105468 h -9.95801 z m 19.41504,-16.005859 h -2.44922 V 62 h 2.44922 z M 293.60937,62 h 2.44922 v -6.047852 h 3.26563 c 0.043,0 0.0967,0 0.13965,0 L 302.70801,62 h 2.78222 l -3.52343,-6.466797 c 1.94433,-0.730469 2.92187,-2.363281 2.92187,-4.511719 0,-2.954101 -1.83691,-5.027343 -5.54297,-5.027343 h -5.73633 z m 2.44922,-8.142578 v -5.768555 h 3.00782 c 2.36328,0 3.34082,1.12793 3.34082,2.932617 0,1.793946 -0.97754,2.835938 -3.31934,2.835938 z"
     id="text8"
     style="font-weight:500;font-size:22px;font-family:Inter;letter-spacing:4;fill:#4d5dff"
     aria-label="DFIR" />
  <path
     d="m 435.81836,54.696289 q 0.94922,0 1.3623,-0.395508 0.42188,-0.395508 0.42188,-1.300781 0,-0.896484 -0.42188,-1.283203 -0.41308,-0.386719 -1.3623,-0.386719 h -1.2832 v 3.366211 z m -1.2832,2.337891 V 62 h -3.04981 V 48.87793 h 4.64942 q 2.33789,0 3.41894,0.870117 1.08984,0.870117 1.08984,2.750976 0,1.300782 -0.5625,2.135743 -0.5625,0.834961 -1.70507,1.230468 0.62402,0.158203 1.11621,0.720703 0.50097,0.553711 1.00195,1.6875 L 442.14648,62 h -3.24316 l -1.43262,-3.260742 q -0.43945,-0.984375 -0.88769,-1.344727 -0.44824,-0.360351 -1.18653,-0.360351 z m 9.42187,-8.15625 h 8.21777 v 2.557617 h -5.16796 v 2.443359 h 4.86035 v 2.557617 h -4.86035 v 3.00586 h 5.34375 V 62 h -8.39356 z m 11.06543,0 h 5.05371 q 2.25879,0 3.46289,1.116211 1.2041,1.107421 1.2041,3.164062 0,2.06543 -1.2041,3.181641 -1.2041,1.107422 -3.46289,1.107422 h -2.0039 V 62 h -3.04981 z m 3.04981,2.452148 v 3.665039 h 1.67871 q 0.88769,0 1.37109,-0.474609 0.4834,-0.483399 0.4834,-1.362305 0,-0.878906 -0.4834,-1.353516 -0.4834,-0.474609 -1.37109,-0.474609 z m 13.14843,3.366211 q 0.94922,0 1.36231,-0.395508 0.42187,-0.395508 0.42187,-1.300781 0,-0.896484 -0.42187,-1.283203 -0.41309,-0.386719 -1.36231,-0.386719 h -1.2832 v 3.366211 z m -1.2832,2.337891 V 62 h -3.0498 V 48.87793 h 4.64941 q 2.33789,0 3.41894,0.870117 1.08985,0.870117 1.08985,2.750976 0,1.300782 -0.5625,2.135743 -0.5625,0.834961 -1.70508,1.230468 0.62402,0.158203 1.11621,0.720703 0.50098,0.553711 1.00195,1.6875 L 477.54883,62 h -3.24317 l -1.43261,-3.260742 q -0.43946,-0.984375 -0.8877,-1.344727 -0.44824,-0.360351 -1.18652,-0.360351 z m 14.81836,-5.941407 q -1.38867,0 -2.16211,1.142579 -0.76465,1.142578 -0.76465,3.216796 0,2.06543 0.76465,3.208008 0.77344,1.142578 2.16211,1.142578 1.39746,0 2.16211,-1.142578 0.77344,-1.142578 0.77344,-3.208008 0,-2.074218 -0.77344,-3.216796 -0.76465,-1.142579 -2.16211,-1.142579 z m 0,-2.452148 q 2.84766,0 4.45605,1.810547 1.61719,1.810547 1.61719,5.000976 0,3.181641 -1.61719,4.992188 -1.60839,1.810547 -4.45605,1.810547 -2.83887,0 -4.45606,-1.810547 -1.61718,-1.810547 -1.61718,-4.992188 0,-3.190429 1.61718,-5.000976 1.61719,-1.810547 4.45606,-1.810547 z m 11.41699,2.794922 v 8.006836 h 1.08985 q 1.86328,0 2.84765,-1.028321 0.98438,-1.02832 0.98438,-2.988281 0,-1.951172 -0.98438,-2.970703 -0.97558,-1.019531 -2.84765,-1.019531 z m -3.0498,-2.557617 h 3.21679 q 2.68946,0 3.99903,0.430664 1.31836,0.421875 2.25879,1.441406 0.83496,0.887695 1.23925,2.047852 0.4043,1.160156 0.4043,2.627929 0,1.485352 -0.4043,2.654297 -0.40429,1.160156 -1.23925,2.047852 -0.94922,1.019531 -2.27637,1.450195 Q 498.99414,62 496.33984,62 h -3.21679 z m 13.44726,0 h 3.04981 v 7.866211 q 0,1.625976 0.47461,2.329101 0.48339,0.694336 1.56445,0.694336 1.08984,0 1.56445,-0.694336 0.4834,-0.703125 0.4834,-2.329101 V 48.87793 h 3.04981 v 7.866211 q 0,2.786132 -1.26563,4.148437 -1.25684,1.362305 -3.83203,1.362305 -2.5752,0 -3.83203,-1.362305 -1.25684,-1.362305 -1.25684,-4.148437 z m 22.51758,12.401367 q -0.84375,0.483398 -1.75781,0.729492 -0.90528,0.246094 -1.88965,0.246094 -2.95313,0 -4.67578,-1.828125 -1.72266,-1.836914 -1.72266,-4.97461 0,-3.146484 1.72266,-4.974609 1.72265,-1.836914 4.67578,-1.836914 0.98437,0 1.88965,0.246094 0.91406,0.246093 1.75781,0.729492 v 2.71582 q -0.85254,-0.641601 -1.67871,-0.940429 -0.81738,-0.298829 -1.72266,-0.298829 -1.63476,0 -2.5664,1.160157 -0.93164,1.160156 -0.93164,3.199218 0,2.030274 0.93164,3.19043 0.93164,1.160156 2.5664,1.160156 0.90528,0 1.72266,-0.298828 0.82617,-0.298828 1.67871,-0.940429 z m 2.51367,-12.401367 h 3.04981 V 62 h -3.04981 z m 10.74903,5.080078 q 0.7207,0 1.08984,-0.351563 0.37793,-0.351562 0.37793,-1.037109 0,-0.676758 -0.37793,-1.02832 -0.36914,-0.360352 -1.08984,-0.360352 h -1.67872 v 2.777344 z m 0.10546,5.739258 q 0.92286,0 1.37989,-0.430664 0.46582,-0.430665 0.46582,-1.300782 0,-0.852539 -0.46582,-1.274414 -0.45703,-0.430664 -1.37989,-0.430664 h -1.78418 v 3.436524 z m 2.83008,-4.719727 q 0.98438,0.316406 1.52051,1.168945 0.53613,0.852539 0.53613,2.091797 0,1.898438 -1.16015,2.830078 Q 545.03125,62 542.67578,62 h -5.05371 V 48.87793 h 4.57031 q 2.46094,0 3.55957,0.826172 1.10742,0.826171 1.10742,2.645507 0,0.958008 -0.40429,1.634766 -0.39551,0.667969 -1.16895,0.993164 z m 4.67578,-6.099609 h 3.04981 v 10.564453 h 5.34375 V 62 h -8.39356 z m 10.31836,0 h 8.21778 v 2.557617 h -5.16797 v 2.443359 h 4.86035 v 2.557617 h -4.86035 v 3.00586 h 5.34375 V 62 h -8.39356 z"
     id="text9"
     style="font-weight:600;font-size:18px;font-family:'DejaVu Sans Condensed';letter-spacing:0;fill:#73d9c2"
     aria-label="REPRODUCIBLE" />
  <path
     d="m 720.0791,48.87793 h 10.88086 v 2.557617 h -3.91113 V 62 h -3.04981 V 51.435547 h -3.91992 z m 16.78711,5.818359 q 0.94922,0 1.36231,-0.395508 0.42187,-0.395508 0.42187,-1.300781 0,-0.896484 -0.42187,-1.283203 -0.41309,-0.386719 -1.36231,-0.386719 h -1.2832 v 3.366211 z m -1.2832,2.337891 V 62 H 732.5332 V 48.87793 h 4.64942 q 2.33789,0 3.41894,0.870117 1.08985,0.870117 1.08985,2.750976 0,1.300782 -0.5625,2.135743 -0.5625,0.834961 -1.70508,1.230468 0.62402,0.158203 1.11621,0.720703 0.50098,0.553711 1.00195,1.6875 L 743.19434,62 h -3.24317 l -1.43262,-3.260742 q -0.43945,-0.984375 -0.88769,-1.344727 -0.44824,-0.360351 -1.18652,-0.360351 z m 16.59375,2.575195 h -4.76367 L 746.65723,62 h -3.0586 l 4.37696,-13.12207 h 3.62988 L 755.98242,62 h -3.06738 z m -4.00781,-2.43457 h 3.23437 l -1.6084,-5.220703 z m 9.36914,-8.296875 h 3.40136 l 4.29785,9 v -9 h 2.88282 V 62 h -3.40137 l -4.28906,-9 v 9 h -2.8916 z m 21.7705,0.413086 v 2.777343 q -0.96679,-0.483398 -1.89843,-0.729492 -0.92286,-0.246094 -1.74903,-0.246094 -1.08984,0 -1.61718,0.333985 -0.51856,0.333984 -0.51856,1.037109 0,0.527344 0.35156,0.826172 0.35157,0.290039 1.28321,0.500977 l 1.29199,0.290039 q 1.97754,0.439453 2.80371,1.335937 0.82617,0.896485 0.82617,2.548828 0,2.170899 -1.16016,3.234375 -1.15136,1.054688 -3.5332,1.054688 -1.125,0 -2.25879,-0.237305 -1.125,-0.237305 -2.25879,-0.703125 v -2.856445 q 1.13379,0.667969 2.18848,1.010742 1.05469,0.333984 2.03906,0.333984 0.99317,0 1.52051,-0.36914 0.53613,-0.369141 0.53613,-1.054688 0,-0.615234 -0.36035,-0.949219 -0.36035,-0.333984 -1.4414,-0.597656 l -1.17774,-0.290039 q -1.7666,-0.421875 -2.59277,-1.344726 -0.81739,-0.922852 -0.81739,-2.487305 0,-1.959961 1.14258,-3.014649 1.14258,-1.054687 3.26953,-1.054687 0.97559,0 2.00391,0.166992 1.02832,0.158203 2.12695,0.483399 z m 3.44532,-0.413086 h 5.05371 q 2.25879,0 3.46289,1.116211 1.2041,1.107421 1.2041,3.164062 0,2.06543 -1.2041,3.181641 -1.2041,1.107422 -3.46289,1.107422 h -2.00391 V 62 h -3.0498 z m 3.0498,2.452148 v 3.665039 h 1.67871 q 0.8877,0 1.3711,-0.474609 0.48339,-0.483399 0.48339,-1.362305 0,-0.878906 -0.48339,-1.353516 -0.4834,-0.474609 -1.3711,-0.474609 z m 14.33496,8.279297 H 795.375 L 794.61914,62 h -3.05859 l 4.37695,-13.12207 h 3.62988 L 803.94434,62 h -3.06739 z m -4.00781,-2.43457 h 3.23437 l -1.60839,-5.220703 z m 13.70215,-2.478516 q 0.94922,0 1.3623,-0.395508 0.42188,-0.395508 0.42188,-1.300781 0,-0.896484 -0.42188,-1.283203 -0.41308,-0.386719 -1.3623,-0.386719 h -1.28321 v 3.366211 z M 808.5498,57.03418 V 62 H 805.5 V 48.87793 h 4.64941 q 2.33789,0 3.41895,0.870117 1.08984,0.870117 1.08984,2.750976 0,1.300782 -0.5625,2.135743 -0.5625,0.834961 -1.70508,1.230468 0.62403,0.158203 1.11622,0.720703 0.50097,0.553711 1.00195,1.6875 L 816.16113,62 h -3.24316 l -1.43262,-3.260742 q -0.43945,-0.984375 -0.88769,-1.344727 -0.44825,-0.360351 -1.18653,-0.360351 z m 9.42188,-8.15625 h 8.21777 v 2.557617 h -5.16797 v 2.443359 h 4.86036 v 2.557617 h -4.86036 v 3.00586 h 5.34375 V 62 h -8.39355 z m 11.06543,0 h 3.40137 l 4.29785,9 v -9 h 2.88281 V 62 h -3.40137 l -4.28906,-9 v 9 h -2.8916 z m 12.14648,0 h 10.88086 v 2.557617 h -3.91113 V 62 h -3.0498 V 51.435547 h -3.91993 z"
     id="text10"
     style="font-weight:600;font-size:18px;font-family:'DejaVu Sans Condensed';letter-spacing:0;fill:#b8a8ff"
     aria-label="TRANSPARENT" />
  <path
     d="m 974.53516,51.435547 v 8.006836 h 1.08984 q 1.86328,0 2.84766,-1.028321 0.98437,-1.02832 0.98437,-2.988281 0,-1.951172 -0.98437,-2.970703 -0.97559,-1.019531 -2.84766,-1.019531 z m -3.04981,-2.557617 h 3.2168 q 2.68945,0 3.99902,0.430664 1.31836,0.421875 2.25879,1.441406 0.83496,0.887695 1.23926,2.047852 0.4043,1.160156 0.4043,2.627929 0,1.485352 -0.4043,2.654297 -0.4043,1.160156 -1.23926,2.047852 -0.94922,1.019531 -2.27637,1.450195 Q 977.35645,62 974.70215,62 h -3.2168 z m 13.44727,0 h 8.21777 v 2.557617 h -5.16797 v 2.443359 h 4.86035 v 2.557617 h -4.86035 v 3.00586 h 5.34375 V 62 h -8.39355 z m 11.06543,0 h 8.21775 v 2.557617 h -5.16795 v 2.443359 h 4.86035 v 2.557617 h -4.86035 V 62 h -3.0498 z m 11.06545,0 h 8.2177 v 2.557617 h -5.1679 v 2.443359 h 4.8603 v 2.557617 h -4.8603 v 3.00586 h 5.3437 V 62 h -8.3935 z m 11.0654,0 h 3.4014 l 4.2978,9 v -9 h 2.8828 V 62 h -3.4013 l -4.2891,-9 v 9 h -2.8916 z m 21.7705,0.413086 v 2.777343 q -0.9668,-0.483398 -1.8984,-0.729492 -0.9229,-0.246094 -1.749,-0.246094 -1.0899,0 -1.6172,0.333985 -0.5186,0.333984 -0.5186,1.037109 0,0.527344 0.3516,0.826172 0.3515,0.290039 1.2832,0.500977 l 1.292,0.290039 q 1.9775,0.439453 2.8037,1.335937 0.8262,0.896485 0.8262,2.548828 0,2.170899 -1.1602,3.234375 -1.1514,1.054688 -3.5332,1.054688 -1.125,0 -2.2588,-0.237305 -1.125,-0.237305 -2.2588,-0.703125 v -2.856445 q 1.1338,0.667969 2.1885,1.010742 1.0547,0.333984 2.0391,0.333984 0.9931,0 1.5205,-0.36914 0.5361,-0.369141 0.5361,-1.054688 0,-0.615234 -0.3604,-0.949219 -0.3603,-0.333984 -1.4414,-0.597656 l -1.1777,-0.290039 q -1.7666,-0.421875 -2.5928,-1.344726 -0.8174,-0.922852 -0.8174,-2.487305 0,-1.959961 1.1426,-3.014649 1.1426,-1.054687 3.2696,-1.054687 0.9755,0 2.0039,0.166992 1.0283,0.158203 2.1269,0.483399 z m 3.4453,-0.413086 h 3.0498 V 62 h -3.0498 z m 10.7491,5.080078 q 0.7207,0 1.0898,-0.351563 0.3779,-0.351562 0.3779,-1.037109 0,-0.676758 -0.3779,-1.02832 -0.3691,-0.360352 -1.0898,-0.360352 h -1.6788 v 2.777344 z m 0.1054,5.739258 q 0.9229,0 1.3799,-0.430664 0.4658,-0.430665 0.4658,-1.300782 0,-0.852539 -0.4658,-1.274414 -0.457,-0.430664 -1.3799,-0.430664 h -1.7842 v 3.436524 z m 2.8301,-4.719727 q 0.9844,0.316406 1.5205,1.168945 0.5361,0.852539 0.5361,2.091797 0,1.898438 -1.1601,2.830078 Q 1056.7744,62 1054.4189,62 h -5.0537 V 48.87793 h 4.5703 q 2.461,0 3.5596,0.826172 1.1074,0.826171 1.1074,2.645507 0,0.958008 -0.4043,1.634766 -0.3955,0.667969 -1.1689,0.993164 z m 4.6758,-6.099609 h 3.0498 v 10.564453 h 5.3437 V 62 h -8.3935 z m 10.3183,0 h 8.2178 v 2.557617 h -5.168 v 2.443359 h 4.8604 v 2.557617 h -4.8604 v 3.00586 h 5.3438 V 62 h -8.3936 z"
     id="text11"
     style="font-weight:600;font-size:18px;font-family:'DejaVu Sans Condensed';letter-spacing:0;fill:#ffd76a"
     aria-label="DEFENSIBLE" />
  <path
     d="m 1191.4141,50.335937 h 6.6328 v 1.328125 h -5.211 v 3.453125 h 5 v 1.328125 h -5 v 4.226563 h 5.3438 V 62 h -6.7656 z M 1203.2109,62 1199.2031,50.335937 h 1.4844 l 3.3281,9.820313 3.336,-9.820313 h 1.4765 l -4,11.664063 z m 7.1407,-11.664063 h 1.4218 V 62 h -1.4218 z m 5.664,1.296875 v 9.070313 h 1.711 q 2.1718,0 3.1797,-1.09375 1.0156,-1.09375 1.0156,-3.453125 0,-2.34375 -1.0156,-3.429688 -1.0079,-1.09375 -3.1797,-1.09375 z m -1.4218,-1.296875 h 2.914 q 3.0547,0 4.4766,1.414063 1.4297,1.40625 1.4297,4.40625 0,3.015625 -1.4375,4.429687 Q 1220.5469,62 1217.5078,62 h -2.914 z m 11.0859,0 h 6.6328 v 1.328125 h -5.2109 v 3.453125 h 5 v 1.328125 h -5 v 4.226563 h 5.3437 V 62 h -6.7656 z m 9.0937,0 h 1.9141 l 4.6563,9.757813 v -9.757813 h 1.375 V 62 h -1.9141 l -4.6563,-9.757813 V 62 h -1.375 z m 18.625,0.898438 v 1.664062 q -0.7187,-0.742187 -1.5312,-1.109375 -0.8125,-0.367187 -1.7266,-0.367187 -1.7968,0 -2.7578,1.226562 -0.9531,1.21875 -0.9531,3.53125 0,2.304688 0.9531,3.53125 0.961,1.21875 2.7578,1.21875 0.9141,0 1.7266,-0.367187 0.8125,-0.367188 1.5312,-1.109375 v 1.648437 q -0.7421,0.5625 -1.5781,0.84375 -0.8359,0.28125 -1.7578,0.28125 -2.3906,0 -3.7578,-1.617187 -1.3672,-1.625 -1.3672,-4.429688 0,-2.8125 1.3672,-4.429687 1.3672,-1.625 3.7578,-1.625 0.9375,0 1.7734,0.28125 0.836,0.273437 1.5625,0.828125 z m 2.1954,-0.898438 h 6.6328 v 1.328125 h -5.211 v 3.453125 h 5 v 1.328125 h -5 v 4.226563 h 5.3438 V 62 h -6.7656 z m 9.3671,9.679688 h 1.4844 v 1.34375 l -1.1562,2.5 h -0.9063 l 0.5781,-2.5 z m 8.8672,-9.679688 h 1.9141 l 4.6562,9.757813 v -9.757813 h 1.375 V 62 h -1.914 l -4.6563,-9.757813 V 62 h -1.375 z m 15.0235,1.070313 q -1.5469,0 -2.461,1.28125 -0.9062,1.28125 -0.9062,3.492187 0,2.203125 0.9062,3.484375 0.9141,1.28125 2.461,1.28125 1.5468,0 2.4531,-1.28125 0.9062,-1.28125 0.9062,-3.484375 0,-2.210937 -0.9062,-3.492187 -0.9063,-1.28125 -2.4531,-1.28125 z m 0,-1.28125 q 2.2109,0 3.5312,1.648437 1.3203,1.640625 1.3203,4.40625 0,2.757813 -1.3203,4.40625 -1.3203,1.640625 -3.5312,1.640625 -2.211,0 -3.5391,-1.640625 -1.3203,-1.640625 -1.3203,-4.40625 0,-2.765625 1.3203,-4.40625 1.3281,-1.648437 3.5391,-1.648437 z m 5.625,0.210937 h 8.875 v 1.328125 h -3.7266 V 62 h -1.4219 V 51.664062 h -3.7265 z m 18.3125,1.554688 -1.9297,5.804687 h 3.8672 z m -0.8047,-1.554688 h 1.6172 l 4,11.664063 h -1.4766 l -0.9609,-2.992188 h -4.7344 L 1309.4766,62 h -1.5 z m 13.4297,0.382813 v 1.539062 q -0.8047,-0.429687 -1.5235,-0.640625 -0.7187,-0.210937 -1.3828,-0.210937 -1.164,0 -1.7969,0.5 -0.625,0.5 -0.625,1.421875 0,0.773437 0.4141,1.171875 0.4219,0.390625 1.5938,0.632812 l 0.8515,0.195313 q 1.5938,0.335937 2.3438,1.1875 0.7578,0.84375 0.7578,2.265625 0,1.695312 -1.0235,2.570312 -1.0156,0.875 -2.9921,0.875 -0.75,0 -1.5938,-0.1875 -0.8359,-0.1875 -1.7344,-0.554687 v -1.625 q 0.8672,0.539062 1.6953,0.8125 0.8282,0.273437 1.6329,0.273437 1.2109,0 1.875,-0.53125 0.664,-0.53125 0.664,-1.515625 0,-0.859375 -0.4765,-1.34375 -0.4766,-0.484375 -1.5625,-0.726562 l -0.8594,-0.1875 q -1.5938,-0.351563 -2.3047,-1.101563 -0.7031,-0.75 -0.7031,-2.085937 0,-1.546875 0.9765,-2.4375 0.9844,-0.890625 2.7032,-0.890625 0.7421,0 1.5078,0.148437 0.7656,0.148438 1.5625,0.445313 z m 9.1406,0 v 1.539062 q -0.8047,-0.429687 -1.5234,-0.640625 -0.7188,-0.210937 -1.3829,-0.210937 -1.164,0 -1.7968,0.5 -0.625,0.5 -0.625,1.421875 0,0.773437 0.414,1.171875 0.4219,0.390625 1.5938,0.632812 l 0.8515,0.195313 q 1.5938,0.335937 2.3438,1.1875 0.7578,0.84375 0.7578,2.265625 0,1.695312 -1.0234,2.570312 -1.0157,0.875 -2.9922,0.875 -0.75,0 -1.5938,-0.1875 -0.8359,-0.1875 -1.7343,-0.554687 v -1.625 q 0.8671,0.539062 1.6953,0.8125 0.8281,0.273437 1.6328,0.273437 1.2109,0 1.875,-0.53125 0.664,-0.53125 0.664,-1.515625 0,-0.859375 -0.4765,-1.34375 -0.4766,-0.484375 -1.5625,-0.726562 l -0.8594,-0.1875 q -1.5937,-0.351563 -2.3047,-1.101563 -0.7031,-0.75 -0.7031,-2.085937 0,-1.546875 0.9766,-2.4375 0.9843,-0.890625 2.7031,-0.890625 0.7422,0 1.5078,0.148437 0.7656,0.148438 1.5625,0.445313 z m 2.6875,-0.382813 h 1.4297 v 7.085938 q 0,1.875 0.6094,2.703125 0.6171,0.820312 1.9843,0.820312 1.3672,0 1.9766,-0.820312 0.6094,-0.828125 0.6094,-2.703125 v -7.085938 h 1.4297 v 7.28125 q 0,2.28125 -1.0157,3.445313 -1.0156,1.164062 -3,1.164062 -1.9922,0 -3.0078,-1.164062 -1.0156,-1.164063 -1.0156,-3.445313 z m 10.7031,0 h 2.1172 l 2.6797,7.9375 2.6875,-7.9375 h 2.1172 V 62 h -1.3828 V 51.757812 l -2.711,8 h -1.4218 l -2.711,-8 V 62 h -1.375 z m 13.8438,1.296875 v 4.382813 h 1.7812 q 0.9922,0 1.5313,-0.570313 0.5468,-0.570312 0.5468,-1.625 0,-1.046875 -0.5468,-1.617187 -0.5391,-0.570313 -1.5313,-0.570313 z m -1.4219,-1.296875 h 3.2031 q 1.7656,0 2.6641,0.890625 0.9062,0.882813 0.9062,2.59375 0,1.726563 -0.9062,2.609375 -0.8985,0.882813 -2.6641,0.882813 h -1.7812 V 62 h -1.4219 z m 7.2344,0 h 8.875 v 1.328125 H 1372.75 V 62 h -1.4219 V 51.664062 h -3.7265 z m 10.2343,0 h 1.4219 V 62 h -1.4219 z m 8.5,1.070313 q -1.5468,0 -2.4609,1.28125 -0.9062,1.28125 -0.9062,3.492187 0,2.203125 0.9062,3.484375 0.9141,1.28125 2.4609,1.28125 1.5469,0 2.4532,-1.28125 0.9062,-1.28125 0.9062,-3.484375 0,-2.210937 -0.9062,-3.492187 -0.9063,-1.28125 -2.4532,-1.28125 z m 0,-1.28125 q 2.211,0 3.5313,1.648437 1.3203,1.640625 1.3203,4.40625 0,2.757813 -1.3203,4.40625 -1.3203,1.640625 -3.5313,1.640625 -2.2109,0 -3.539,-1.640625 -1.3203,-1.640625 -1.3203,-4.40625 0,-2.765625 1.3203,-4.40625 1.3281,-1.648437 3.539,-1.648437 z m 7.0704,0.210937 h 1.914 l 4.6563,9.757813 v -9.757813 h 1.375 V 62 h -1.9141 l -4.6562,-9.757813 V 62 h -1.375 z m 10.8906,9.679688 h 1.4844 V 62 h -1.4844 z"
     id="text12"
     style="font-weight:500;font-size:16px;font-family:'DejaVu Sans Condensed';letter-spacing:0;fill:#f5f1e8"
     aria-label="EVIDENCE, NOT ASSUMPTION." />
</svg>
