<?xml version="1.0" encoding="UTF-8" standalone="no"?>
<svg
   width="340"
   height="270"
   viewBox="0 0 340 270"
   fill="none"
   version="1.1"
   id="svg2"
   xmlns="http://www.w3.org/2000/svg"
   xmlns:svg="http://www.w3.org/2000/svg">
  <defs
     id="defs2" />
  <path
     d="M8 16 L26 8 L50 13 L76 7 L100 14 L128 8 L156 13 L184 7 L214 13 L242 8 L270 14 L300 9 L326 16 L330 48 L324 76 L331 104 L325 132 L330 162 L324 192 L330 220 L322 252 L298 258 L270 253 L242 260 L214 254 L184 260 L156 254 L128 260 L100 254 L72 260 L44 254 L16 260 L8 234 L14 204 L8 176 L14 146 L8 118 L14 88 L8 58 Z"
     fill="#F5F1E8"
     stroke="#D8D2C6"
     stroke-width="2"
     id="path1" />
  <rect
     x="135"
     y="2"
     width="76"
     height="22"
     rx="2"
     fill="#FFD76A"
     opacity="0.92"
     transform="rotate(-3 173.0 13)"
     id="rect1" />
  <path
     d="m 48.284,92.228 c 0.95,0 2.014,-0.798 2.242,-1.862 l 4.256,-20.254 h 5.586 c 1.178,0 2.318,-1.102 2.318,-2.128 0,-0.836 -0.608,-1.444 -1.52,-1.444 H 45.434 c -1.178,0 -2.28,1.064 -2.28,2.128 0,0.836 0.608,1.444 1.482,1.444 h 6.384 l -4.256,20.254 c -0.19,0.874 0.418,1.862 1.52,1.862 z m 13.945987,0 c 0.912,0 1.976,-0.836 2.166,-1.748 l 1.71,-7.752 c 0.228,-1.178 0.684,-2.432 1.672,-3.42 1.026,-1.064 3.002,-2.508 4.142,-2.508 0.418,0 0.57,0.152 0.57,0.456 0,0.304 -0.266,0.798 -0.266,1.254 0,0.646 0.494,1.216 1.444,1.216 1.026,0 1.9,-0.76 2.128,-1.672 0.152,-0.57 0.418,-1.862 0.418,-2.508 0,-1.254 -1.026,-2.356 -3.002,-2.356 -2.014,0 -4.104,0.95 -5.7,2.774 l 0.19,-1.026 c 0.152,-0.836 -0.266,-1.672 -1.444,-1.672 -0.988,0 -2.052,0.798 -2.28,1.824 l -3.268,15.39 c -0.19,0.836 0.532,1.748 1.52,1.748 z m 18.543995,0.114 c 2.47,0 4.712,-1.026 5.852,-2.204 l -0.038,0.608 c -0.038,0.836 0.646,1.482 1.558,1.482 0.95,0 1.976,-0.798 2.204,-1.824 l 3.268,-15.428 c 0.19,-0.912 -0.38,-1.748 -1.444,-1.748 -0.988,0 -1.938,0.722 -2.166,1.748 l -2.394,10.83 c -0.114,0.57 -0.266,0.874 -0.95,1.368 -0.494,0.38 -2.736,1.748 -4.788,1.748 -1.102,0 -1.596,-0.798 -1.596,-2.508 0,-3.344 1.634,-8.626 2.394,-11.096 0.418,-1.33 -0.114,-2.09 -1.33,-2.09 -1.102,0 -1.786,0.684 -2.204,1.938 -1.14,3.42 -2.546,9.158 -2.546,12.54 0,3.458 1.482,4.636 4.18,4.636 z M 99.01399,92.266 c 0.95,0 1.976,-0.76 2.204,-1.786 l 2.888,-13.718 h 3.23 c 1.064,0 2.242,-0.912 2.242,-2.09 0,-0.836 -0.57,-1.368 -1.444,-1.368 h -3.23 l 0.874,-4.142 c 0.19,-0.912 -0.304,-1.862 -1.444,-1.862 -0.988,0 -2.014,0.912 -2.204,1.862 l -0.874,4.142 h -3.116 c -1.178,0 -2.356,0.912 -2.356,2.014 0,0.798 0.57,1.444 1.482,1.444 h 3.192 l -2.888,13.718 c -0.19,0.95 0.494,1.786 1.444,1.786 z m 10.98203,0 c 0.988,0 1.976,-0.684 2.242,-1.9 l 1.216,-5.662 c 0.228,-1.026 0.532,-2.09 1.444,-3.306 1.026,-1.406 3.838,-4.598 5.89,-4.598 0.912,0 1.216,0.57 1.216,2.318 0,3.192 -1.14,7.448 -2.014,11.362 -0.19,0.874 0.304,1.748 1.444,1.748 0.95,0 1.824,-0.684 2.128,-1.672 0.95,-3.154 2.128,-9.348 2.128,-12.198 0,-3.458 -1.14,-5.168 -3.762,-5.168 -2.318,0 -5.092,1.786 -6.878,3.914 l 1.824,-8.55 c 0.19,-0.912 -0.304,-1.862 -1.444,-1.862 -0.988,0 -1.976,0.836 -2.204,1.862 l -4.674,21.888 c -0.19,0.95 0.456,1.824 1.444,1.824 z m 38.19,-20.596 c 0.988,0 1.938,-0.76 2.204,-1.786 l 0.38,-1.444 c 0.228,-0.912 -0.456,-1.824 -1.406,-1.824 -0.912,0 -1.976,0.798 -2.204,1.786 l -0.342,1.406 c -0.266,1.102 0.418,1.862 1.368,1.862 z m -4.522,20.558 c 0.988,0 2.014,-0.836 2.242,-1.862 l 3.382,-15.124 c 0.228,-1.064 -0.38,-1.862 -1.444,-1.862 -0.988,0 -2.052,0.836 -2.28,1.862 l -3.382,15.124 c -0.228,1.026 0.456,1.862 1.482,1.862 z m 9.19601,0 c 1.14,0 1.976,-0.836 2.166,-1.9 l 0.684,-3.192 c 0.608,-2.812 1.406,-4.56 2.964,-6.612 1.824,-2.356 3.686,-3.724 5.206,-3.724 1.748,0 2.242,1.292 0.95,7.334 -0.646,3.002 -0.988,4.636 -1.33,6.308 -0.19,0.912 0.456,1.786 1.444,1.786 1.026,0 1.938,-0.874 2.128,-1.824 0.456,-2.166 0.76,-3.458 1.444,-6.65 1.71,-7.942 0.608,-10.488 -3.534,-10.488 -2.584,0 -5.168,1.634 -7.258,4.674 l 0.608,-2.888 c 0.228,-1.026 -0.418,-1.824 -1.368,-1.824 -0.988,0 -2.052,0.798 -2.28,1.824 l -3.268,15.428 c -0.19,0.912 0.456,1.748 1.444,1.748 z"
     id="text1"
     style="font-style:italic;font-weight:700;font-size:38px;font-family:'Comic Neue';letter-spacing:0;fill:#101426"
     aria-label="Truth in" />
  <path
     d="m 44.37,140.266 c 0.95,0 1.976,-0.76 2.204,-1.786 l 2.888,-13.718 h 3.23 c 1.064,0 2.242,-0.912 2.242,-2.09 0,-0.836 -0.57,-1.368 -1.444,-1.368 h -3.23 l 0.874,-4.142 c 0.19,-0.912 -0.304,-1.862 -1.444,-1.862 -0.988,0 -2.014,0.912 -2.204,1.862 l -0.874,4.142 h -3.116 c -1.178,0 -2.356,0.912 -2.356,2.014 0,0.798 0.57,1.444 1.482,1.444 h 3.192 l -2.888,13.718 c -0.19,0.95 0.494,1.786 1.444,1.786 z m 10.982027,0 c 0.988,0 1.976,-0.684 2.242,-1.9 l 1.216,-5.662 c 0.228,-1.026 0.532,-2.09 1.444,-3.306 1.026,-1.406 3.838,-4.598 5.89,-4.598 0.912,0 1.216,0.57 1.216,2.318 0,3.192 -1.14,7.448 -2.014,11.362 -0.19,0.874 0.304,1.748 1.444,1.748 0.95,0 1.824,-0.684 2.128,-1.672 0.95,-3.154 2.128,-9.348 2.128,-12.198 0,-3.458 -1.14,-5.168 -3.762,-5.168 -2.318,0 -5.092,1.786 -6.878,3.914 l 1.824,-8.55 c 0.19,-0.912 -0.304,-1.862 -1.444,-1.862 -0.988,0 -1.976,0.836 -2.204,1.862 l -4.674,21.888 c -0.19,0.95 0.456,1.824 1.444,1.824 z m 26.485974,-0.038 c 2.356,0 5.244,-1.254 6.802,-2.66 0.646,-0.57 0.874,-1.026 0.874,-1.71 0,-0.76 -0.57,-1.292 -1.444,-1.292 -0.494,0 -0.988,0.266 -1.406,0.608 -1.026,0.874 -2.432,1.634 -4.37,1.634 -1.9,0 -3.876,-0.836 -4.104,-2.47 l 11.438,-5.852 c 1.064,-0.57 1.558,-1.254 1.558,-2.318 0,-1.9 -1.634,-4.902 -6.156,-4.902 -5.776,0 -10.868,5.89 -10.868,11.818 0,4.522 3.078,7.144 7.676,7.144 z m -4.028,-9.044 c 0.076,-1.254 0.874,-3.116 2.242,-4.484 1.254,-1.254 2.698,-2.09 4.522,-2.09 1.482,0 2.546,0.57 2.926,1.672 z m 31.768049,9.082 c 0.95,0 1.976,-0.76 2.204,-1.786 l 2.888,-13.718 h 3.23 c 1.064,0 2.242,-0.912 2.242,-2.09 0,-0.836 -0.57,-1.368 -1.444,-1.368 h -3.23 l 0.874,-4.142 c 0.19,-0.912 -0.304,-1.862 -1.444,-1.862 -0.988,0 -2.014,0.912 -2.204,1.862 l -0.874,4.142 h -3.116 c -1.178,0 -2.356,0.912 -2.356,2.014 0,0.798 0.57,1.444 1.482,1.444 h 3.192 l -2.888,13.718 c -0.19,0.95 0.494,1.786 1.444,1.786 z m 11.05804,-0.038 c 0.912,0 1.976,-0.836 2.166,-1.748 l 1.71,-7.752 c 0.228,-1.178 0.684,-2.432 1.672,-3.42 1.026,-1.064 3.002,-2.508 4.142,-2.508 0.418,0 0.57,0.152 0.57,0.456 0,0.304 -0.266,0.798 -0.266,1.254 0,0.646 0.494,1.216 1.444,1.216 1.026,0 1.9,-0.76 2.128,-1.672 0.152,-0.57 0.418,-1.862 0.418,-2.508 0,-1.254 -1.026,-2.356 -3.002,-2.356 -2.014,0 -4.104,0.95 -5.7,2.774 l 0.19,-1.026 c 0.152,-0.836 -0.266,-1.672 -1.444,-1.672 -0.988,0 -2.052,0.798 -2.28,1.824 l -3.268,15.39 c -0.19,0.836 0.532,1.748 1.52,1.748 z m 18.42996,0 c 1.482,0 3.192,-0.608 4.712,-1.9 l -0.114,0.532 c -0.228,1.026 0.418,1.748 1.406,1.748 1.026,0 1.938,-0.722 2.204,-1.9 l 3.344,-15.808 c -0.874,-0.456 -3.002,-1.634 -5.738,-1.634 -6.042,0 -11.628,6.764 -11.628,12.92 0,3.686 2.28,6.042 5.814,6.042 z m 0.912,-3.496 c -1.862,0 -3.002,-0.798 -3.002,-3.192 0,-3.876 3.572,-8.778 7.258,-8.778 0.798,0 1.672,0.19 2.28,0.456 l -2.204,9.918 c -0.988,0.722 -2.622,1.596 -4.332,1.596 z m 19.72198,3.496 c 2.812,0 5.776,-1.786 7.486,-3.572 0.304,-0.304 0.722,-0.912 0.722,-1.558 0,-0.798 -0.608,-1.406 -1.444,-1.406 -0.874,0 -1.482,0.608 -1.824,0.95 -1.14,1.178 -2.508,2.166 -4.674,2.166 -1.786,0 -3.724,-1.444 -3.724,-3.838 0,-3.344 3.762,-8.284 6.688,-8.284 1.444,0 2.09,0.722 2.812,1.824 0.19,0.266 0.456,0.456 1.102,0.456 1.14,0 2.242,-1.026 2.242,-2.166 0,-0.304 -0.038,-0.646 -0.608,-1.444 -0.874,-1.178 -2.28,-2.128 -4.788,-2.128 -5.206,0 -11.096,6.764 -11.096,12.388 0,3.952 3.116,6.612 7.106,6.612 z m 18.62003,0 c 2.356,0 5.244,-1.254 6.802,-2.66 0.646,-0.57 0.874,-1.026 0.874,-1.71 0,-0.76 -0.57,-1.292 -1.444,-1.292 -0.494,0 -0.988,0.266 -1.406,0.608 -1.026,0.874 -2.432,1.634 -4.37,1.634 -1.9,0 -3.876,-0.836 -4.104,-2.47 l 11.438,-5.852 c 1.064,-0.57 1.558,-1.254 1.558,-2.318 0,-1.9 -1.634,-4.902 -6.156,-4.902 -5.776,0 -10.868,5.89 -10.868,11.818 0,4.522 3.078,7.144 7.676,7.144 z m -4.028,-9.044 c 0.076,-1.254 0.874,-3.116 2.242,-4.484 1.254,-1.254 2.698,-2.09 4.522,-2.09 1.482,0 2.546,0.57 2.926,1.672 z M 189.34008,140 c 1.406,0 2.774,-1.52 2.774,-2.964 0,-0.95 -0.646,-1.634 -1.558,-1.634 -1.444,0 -2.812,1.52 -2.812,2.964 0,0.95 0.608,1.634 1.596,1.634 z"
     id="text2"
     style="font-style:italic;font-weight:700;font-size:38px;font-family:'Comic Neue';letter-spacing:0;fill:#101426"
     aria-label="the trace." />
  <line
     x1="44"
     y1="205"
     x2="270"
     y2="205"
     stroke="#B8A8FF"
     stroke-width="5"
     stroke-linecap="round"
     id="line2" />
</svg>
