<?xml version="1.0" encoding="UTF-8" standalone="no"?>
<svg
   width="1120"
   height="220"
   viewBox="0 0 1120 220"
   fill="none"
   version="1.1"
   id="svg13"
   xmlns="http://www.w3.org/2000/svg"
   xmlns:svg="http://www.w3.org/2000/svg">
  <defs
     id="defs13" />
  <rect
     width="1120"
     height="220"
     fill="#F5F1E8"
     id="rect1" />
  <path
     d="m 25.155273,31.793945 h 2.372071 v 3.889649 h 3.493164 v -3.889649 h 2.365234 V 42 H 31.020508 V 37.672852 H 27.527344 V 42 h -2.372071 z m 10.541016,0 h 6.391602 v 1.989258 h -4.019532 v 1.900391 h 3.780274 v 1.989258 h -3.780274 v 2.33789 h 4.15625 V 42 h -6.52832 z m 14.18457,8.34668 H 46.175781 L 45.587891,42 h -2.378907 l 3.404297,-10.206055 h 2.823242 L 52.84082,42 H 50.455078 Z M 46.763672,38.24707 h 2.515625 L 48.02832,34.186523 Z m 9.65918,-4.463867 v 6.227539 h 0.847656 q 1.449219,0 2.214844,-0.799805 0.765625,-0.799804 0.765625,-2.324218 0,-1.517578 -0.765625,-2.310547 -0.75879,-0.792969 -2.214844,-0.792969 z m -2.372071,-1.989258 h 2.501953 q 2.091797,0 3.110352,0.334961 1.025391,0.328125 1.756836,1.121094 0.649414,0.69043 0.963867,1.592773 0.314453,0.902344 0.314453,2.043946 0,1.155273 -0.314453,2.064453 -0.314453,0.902344 -0.963867,1.592773 -0.738281,0.792969 -1.770508,1.12793 Q 58.617187,42 56.552734,42 h -2.501953 z m 10.458985,0 h 2.37207 v 8.216797 h 4.15625 V 42 h -6.52832 z m 8.02539,0 h 2.372071 V 42 h -2.372071 z m 4.682617,0 h 2.645508 l 3.342774,7 v -7 h 2.242187 V 42 h -2.645508 l -3.335937,-7 v 7 h -2.249024 z m 10.541016,0 h 6.391602 v 1.989258 h -4.019532 v 1.900391 h 3.780274 v 1.989258 h -3.780274 v 2.33789 h 4.15625 V 42 h -6.52832 z m 15.066411,0 h 1.36718 l -3.24023,11.504883 h -1.360353 z m 10.58203,3.951172 q 0.56054,0 0.84765,-0.273437 0.29395,-0.273438 0.29395,-0.806641 0,-0.526367 -0.29395,-0.799805 -0.28711,-0.280273 -0.84765,-0.280273 h -1.30567 v 2.160156 z m 0.082,4.463867 q 0.71777,0 1.07324,-0.334961 0.3623,-0.334961 0.3623,-1.011718 0,-0.663086 -0.3623,-0.991211 -0.35547,-0.334961 -1.07324,-0.334961 h -1.3877 v 2.672851 z m 2.20117,-3.670898 q 0.76562,0.246094 1.18262,0.90918 0.41699,0.663086 0.41699,1.626953 0,1.476562 -0.90234,2.201172 Q 115.49219,42 113.66016,42 h -3.93067 V 31.793945 h 3.55469 q 1.91406,0 2.76855,0.642578 0.86133,0.642579 0.86133,2.057618 0,0.745117 -0.31445,1.271484 -0.30762,0.519531 -0.90918,0.772461 z m 7.83398,-3.021484 q -1.08007,0 -1.68164,0.888671 -0.59472,0.888672 -0.59472,2.501954 0,1.606445 0.59472,2.495117 0.60157,0.888672 1.68164,0.888672 1.08692,0 1.68164,-0.888672 0.60157,-0.888672 0.60157,-2.495117 0,-1.613282 -0.60157,-2.501954 -0.59472,-0.888671 -1.68164,-0.888671 z m 0,-1.907227 q 2.21485,0 3.46582,1.408203 1.25782,1.408203 1.25782,3.889649 0,2.474609 -1.25782,3.882812 -1.25097,1.408203 -3.46582,1.408203 -2.208,0 -3.46582,-1.408203 -1.25781,-1.408203 -1.25781,-3.882812 0,-2.481446 1.25781,-3.889649 1.25782,-1.408203 3.46582,-1.408203 z m 6.50782,0.18457 h 2.37207 v 8.216797 h 4.15625 V 42 h -6.52832 z m 10.39746,1.989258 v 6.227539 h 0.84765 q 1.44922,0 2.21485,-0.799805 0.76562,-0.799804 0.76562,-2.324218 0,-1.517578 -0.76562,-2.310547 -0.75879,-0.792969 -2.21485,-0.792969 z m -2.37207,-1.989258 h 2.50195 q 2.0918,0 3.11035,0.334961 1.02539,0.328125 1.75684,1.121094 0.64941,0.69043 0.96386,1.592773 0.31446,0.902344 0.31446,2.043946 0,1.155273 -0.31446,2.064453 -0.31445,0.902344 -0.96386,1.592773 -0.73828,0.792969 -1.77051,1.12793 Q 142.62402,42 140.55957,42 h -2.50195 z m 14.84082,0 h 6.3916 v 1.989258 h -4.01953 v 1.900391 h 3.78027 v 1.989258 h -3.78027 v 2.33789 h 4.15625 V 42 h -6.52832 z m 10.97851,1.989258 v 6.227539 h 0.84766 q 1.44922,0 2.21484,-0.799805 0.76563,-0.799804 0.76563,-2.324218 0,-1.517578 -0.76563,-2.310547 -0.75879,-0.792969 -2.21484,-0.792969 z m -2.37207,-1.989258 h 2.50196 q 2.09179,0 3.11035,0.334961 1.02539,0.328125 1.75683,1.121094 0.64942,0.69043 0.96387,1.592773 0.31445,0.902344 0.31445,2.043946 0,1.155273 -0.31445,2.064453 -0.31445,0.902344 -0.96387,1.592773 -0.73828,0.792969 -1.7705,1.12793 Q 166.07129,42 164.00684,42 h -2.50196 z m 10.45899,0 h 2.37207 V 42 h -2.37207 z m 3.58886,0 h 8.46289 v 1.989258 h -3.04199 V 42 h -2.37207 v -8.216797 h -3.04883 z m 13.88379,1.722657 q -1.08007,0 -1.68164,0.888671 -0.59472,0.888672 -0.59472,2.501954 0,1.606445 0.59472,2.495117 0.60157,0.888672 1.68164,0.888672 1.08692,0 1.68164,-0.888672 0.60157,-0.888672 0.60157,-2.495117 0,-1.613282 -0.60157,-2.501954 -0.59472,-0.888671 -1.68164,-0.888671 z m 0,-1.907227 q 2.21485,0 3.46582,1.408203 1.25782,1.408203 1.25782,3.889649 0,2.474609 -1.25782,3.882812 -1.25097,1.408203 -3.46582,1.408203 -2.208,0 -3.46582,-1.408203 -1.25781,-1.408203 -1.25781,-3.882812 0,-2.481446 1.25781,-3.889649 1.25782,-1.408203 3.46582,-1.408203 z m 9.87793,4.709961 q 0.73828,0 1.05957,-0.307617 0.32813,-0.307617 0.32813,-1.011719 0,-0.697266 -0.32813,-0.998047 -0.32129,-0.300781 -1.05957,-0.300781 h -0.99804 v 2.618164 z m -0.99804,1.818359 V 42 h -2.37207 V 31.793945 h 3.61621 q 1.81836,0 2.65918,0.676758 0.84765,0.676758 0.84765,2.139649 0,1.011718 -0.4375,1.661132 -0.4375,0.649414 -1.32617,0.957032 0.48535,0.123046 0.86816,0.560546 0.38965,0.430665 0.7793,1.3125 L 204.23633,42 h -2.52246 l -1.11426,-2.536133 q -0.3418,-0.765625 -0.69043,-1.045898 -0.34863,-0.280274 -0.92285,-0.280274 z m 7.32812,-6.34375 h 2.37207 V 42 h -2.37207 z m 10.26074,8.34668 H 212.2002 L 211.6123,42 h -2.3789 l 3.4043,-10.206055 h 2.82324 L 218.86523,42 h -2.38574 z m -3.11718,-1.893555 h 2.51562 l -1.25098,-4.060547 z m 7.28711,-6.453125 h 2.37207 v 8.216797 h 4.15625 V 42 h -6.52832 z"
     id="text1"
     style="font-weight:700;font-size:14px;font-family:'DejaVu Sans Condensed';letter-spacing:0;fill:#4d5dff"
     aria-label="HEADLINE / BOLD EDITORIAL" />
  <path
     d="m 24.290039,63.885742 h 39.896484 v 9.37793 H 49.845703 V 112 H 38.663086 V 73.263672 H 24.290039 Z m 61.552734,21.333985 q 3.480469,0 4.995118,-1.450196 Q 92.384766,82.319336 92.384766,79 q 0,-3.287109 -1.546875,-4.705078 -1.514649,-1.417969 -4.995118,-1.417969 h -4.705078 v 12.342774 z m -4.705078,8.572265 V 112 H 69.955078 V 63.885742 H 87.00293 q 8.572265,0 12.536132,3.19043 3.996098,3.19043 3.996098,10.086914 0,4.769531 -2.0625,7.831055 -2.062504,3.061523 -6.251957,4.511718 2.288086,0.580078 4.092774,2.642578 1.836913,2.030274 3.673823,6.1875 L 109.0459,112 H 97.154297 l -5.25293,-11.95605 Q 90.290039,96.43457 88.646484,95.113281 87.00293,93.791992 84.295898,93.791992 Z m 34.546875,-29.90625 h 11.18262 v 28.842774 q 0,5.961914 1.74023,8.540034 1.77246,2.5459 5.73633,2.5459 3.99609,0 5.73633,-2.5459 1.77246,-2.57812 1.77246,-8.540034 V 63.885742 h 11.18262 v 28.842774 q 0,10.215824 -4.64063,15.210934 -4.6084,4.99512 -14.05078,4.99512 -9.44238,0 -14.05078,-4.99512 -4.6084,-4.99511 -4.6084,-15.210934 z m 43.05469,0 h 39.89648 v 9.37793 H 184.29492 V 112 H 173.1123 V 73.263672 h -14.37304 z m 45.66504,0 h 11.18261 v 18.336914 h 16.46778 V 63.885742 h 11.15039 V 112 H 232.05469 V 91.600586 H 215.58691 V 112 H 204.4043 Z m 70.35058,0 H 285.9375 V 112 h -11.18262 z m 22.0752,0 h 12.47168 l 15.75879,33 v -33 h 10.57031 V 112 H 323.15918 L 307.43262,79 v 33 h -10.60254 z"
     id="text2"
     style="font-weight:800;font-size:66px;font-family:'DejaVu Sans Condensed';letter-spacing:0;fill:#101426"
     aria-label="TRUTH IN" />
  <path
     d="m 24.290039,125.88574 h 39.896484 v 9.37793 H 49.845703 V 174 H 38.663086 V 135.26367 H 24.290039 Z m 45.665039,0 h 11.182617 v 18.33692 H 97.605469 V 125.88574 H 108.75586 V 174 H 97.605469 V 153.60059 H 81.137695 V 174 H 69.955078 Z m 49.693362,0 h 30.13183 v 9.37793 h -18.94922 v 8.95899 h 17.82129 v 9.37793 h -17.82129 v 11.02148 H 150.4248 V 174 h -30.77636 z m 56.07422,0 h 39.89648 v 9.37793 H 201.27832 V 174 H 190.0957 v -38.73633 h -14.37304 z m 61.55273,21.33399 q 3.48047,0 4.99512,-1.4502 1.54687,-1.45019 1.54687,-4.76953 0,-3.28711 -1.54687,-4.70508 -1.51465,-1.41797 -4.99512,-1.41797 h -4.70508 v 12.34278 z m -4.70508,8.57226 V 174 H 221.3877 v -48.11426 h 17.04785 q 8.57226,0 12.53613,3.19043 3.99609,3.19043 3.99609,10.08692 0,4.76953 -2.0625,7.83105 -2.0625,3.06152 -6.25195,4.51172 2.28809,0.58008 4.09277,2.64258 1.83692,2.03027 3.67383,6.1875 L 260.47852,174 h -11.89161 l -5.25293,-11.95605 q -1.61132,-3.60938 -3.25488,-4.93067 -1.64355,-1.32129 -4.35058,-1.32129 z m 60.84375,9.44238 H 275.94727 L 273.17578,174 h -11.21484 l 16.04883,-48.11426 h 13.30957 L 307.36816,174 h -11.24707 z m -14.69531,-8.92675 h 11.85937 l -5.89746,-19.14258 z m 68.70703,15.0498 q -3.09375,1.77246 -6.44531,2.67481 -3.31934,0.90234 -6.92871,0.90234 -10.82813,0 -17.14453,-6.70312 -6.31641,-6.73536 -6.31641,-18.24024 0,-11.53711 6.31641,-18.24023 6.3164,-6.73535 17.14453,-6.73535 3.60937,0 6.92871,0.90234 3.35156,0.90234 6.44531,2.6748 v 9.95801 q -3.12598,-2.35254 -6.15527,-3.44824 -2.99707,-1.0957 -6.31641,-1.0957 -5.99414,0 -9.41015,4.2539 -3.41602,4.25391 -3.41602,11.73047 0,7.44434 3.41602,11.69824 3.41601,4.25391 9.41015,4.25391 3.31934,0 6.31641,-1.0957 3.02929,-1.09571 6.15527,-3.44825 z m 9.2168,-45.47168 h 30.13183 v 9.37793 H 367.8252 v 8.95899 h 17.82128 v 9.37793 H 367.8252 v 11.02148 h 19.59375 V 174 h -30.77637 z m 41.18554,35.64258 h 10.44141 V 174 h -10.44141 z"
     id="text3"
     style="font-weight:800;font-size:66px;font-family:'DejaVu Sans Condensed';letter-spacing:0;fill:#101426"
     aria-label="THE TRACE." />
  <path
     d="m 424.83301,35.745117 q 0.56054,0 0.84765,-0.273437 0.29395,-0.273438 0.29395,-0.806641 0,-0.526367 -0.29395,-0.799805 -0.28711,-0.280273 -0.84765,-0.280273 h -1.30567 v 2.160156 z m 0.082,4.463867 q 0.71777,0 1.07324,-0.334961 0.36231,-0.334961 0.36231,-1.011718 0,-0.663086 -0.36231,-0.991211 -0.35547,-0.334961 -1.07324,-0.334961 h -1.3877 v 2.672851 z m 2.20117,-3.670898 q 0.76563,0.246094 1.18262,0.90918 0.41699,0.663086 0.41699,1.626953 0,1.476562 -0.90234,2.201172 Q 426.91797,42 425.08594,42 h -3.93067 V 31.793945 h 3.55469 q 1.91406,0 2.76856,0.642578 0.86132,0.642579 0.86132,2.057618 0,0.745117 -0.31445,1.271484 -0.30762,0.519531 -0.90918,0.772461 z m 7.83399,-3.021484 q -1.08008,0 -1.68165,0.888671 -0.59472,0.888672 -0.59472,2.501954 0,1.606445 0.59472,2.495117 0.60157,0.888672 1.68165,0.888672 1.08691,0 1.68164,-0.888672 0.60156,-0.888672 0.60156,-2.495117 0,-1.613282 -0.60156,-2.501954 -0.59473,-0.888671 -1.68164,-0.888671 z m 0,-1.907227 q 2.21484,0 3.46582,1.408203 1.25781,1.408203 1.25781,3.889649 0,2.474609 -1.25781,3.882812 -1.25098,1.408203 -3.46582,1.408203 -2.20801,0 -3.46583,-1.408203 -1.25781,-1.408203 -1.25781,-3.882812 0,-2.481446 1.25781,-3.889649 1.25782,-1.408203 3.46583,-1.408203 z m 8.87988,2.173828 v 6.227539 h 0.84765 q 1.44922,0 2.21485,-0.799805 0.76562,-0.799804 0.76562,-2.324218 0,-1.517578 -0.76562,-2.310547 -0.75879,-0.792969 -2.21485,-0.792969 z m -2.37207,-1.989258 h 2.50195 q 2.0918,0 3.11035,0.334961 1.02539,0.328125 1.75684,1.121094 0.64941,0.69043 0.96387,1.592773 0.31445,0.902344 0.31445,2.043946 0,1.155273 -0.31445,2.064453 -0.31446,0.902344 -0.96387,1.592773 -0.73828,0.792969 -1.77051,1.12793 Q 446.02441,42 443.95996,42 h -2.50195 z m 8.16211,0 h 2.59082 l 2.09179,3.636719 2.0918,-3.636719 h 2.59766 l -3.5,5.90625 V 42 h -2.37207 v -4.299805 z m 16.85742,0 h 1.36719 l -3.24024,11.504883 h -1.36035 z m 14.19141,9.645508 q -0.65625,0.375977 -1.36719,0.567383 -0.7041,0.191406 -1.46973,0.191406 -2.29687,0 -3.63672,-1.421875 -1.33984,-1.428711 -1.33984,-3.86914 0,-2.447266 1.33984,-3.869141 1.33985,-1.428711 3.63672,-1.428711 0.76563,0 1.46973,0.191406 0.71094,0.191406 1.36719,0.567383 v 2.112305 q -0.66309,-0.499024 -1.30567,-0.731446 -0.63574,-0.232421 -1.33984,-0.232421 -1.27149,0 -1.9961,0.902343 -0.72461,0.902344 -0.72461,2.488282 0,1.579101 0.72461,2.481445 0.72461,0.902344 1.9961,0.902344 0.7041,0 1.33984,-0.232422 0.64258,-0.232422 1.30567,-0.731446 z m 1.95507,-9.645508 h 2.37207 v 8.216797 h 4.15625 V 42 h -6.52832 z m 8.02539,0 h 6.39161 v 1.989258 h -4.01954 v 1.900391 h 3.78028 v 1.989258 h -3.78028 v 2.33789 h 4.15625 V 42 h -6.52832 z m 14.18457,8.34668 h -3.70507 L 500.54102,42 h -2.37891 l 3.4043,-10.206055 h 2.82324 L 507.79395,42 H 505.4082 Z M 501.7168,38.24707 h 2.51562 l -1.25097,-4.060547 z m 7.28711,-6.453125 h 2.6455 l 3.34278,7 v -7 h 2.24218 V 42 h -2.6455 l -3.33594,-7 v 7 h -2.24902 z m 21.31445,0.321289 v 2.160157 q -0.75195,-0.375977 -1.47656,-0.567383 -0.71778,-0.191406 -1.36035,-0.191406 -0.84766,0 -1.25782,0.259765 -0.40332,0.259766 -0.40332,0.806641 0,0.410156 0.27344,0.642578 0.27344,0.225586 0.99805,0.389648 l 1.00488,0.225586 q 1.53809,0.341797 2.18066,1.039063 0.64258,0.697265 0.64258,1.982422 0,1.688476 -0.90234,2.515625 -0.89551,0.820312 -2.74805,0.820312 -0.875,0 -1.75683,-0.18457 -0.875,-0.18457 -1.75684,-0.546875 v -2.22168 q 0.88184,0.519531 1.70215,0.786133 0.82031,0.259766 1.58594,0.259766 0.77246,0 1.18261,-0.28711 0.41699,-0.287109 0.41699,-0.820312 0,-0.478516 -0.28027,-0.738282 -0.28027,-0.259765 -1.12109,-0.464843 l -0.91602,-0.225586 q -1.37402,-0.328125 -2.0166,-1.045899 -0.63574,-0.717773 -0.63574,-1.93457 0,-1.524414 0.88867,-2.344727 0.88867,-0.820312 2.54297,-0.820312 0.75879,0 1.55859,0.129883 0.79981,0.123047 1.6543,0.375976 z m 8.25781,8.025391 h -3.70508 L 534.2832,42 h -2.3789 l 3.40429,-10.206055 h 2.82325 L 541.53613,42 h -2.38574 z m -3.11719,-1.893555 h 2.51563 l -1.25098,-4.060547 z m 7.28711,-6.453125 h 2.64551 l 3.34277,7 v -7 h 2.24219 V 42 h -2.64551 l -3.33593,-7 v 7 h -2.24903 z m 16.93262,0.321289 v 2.160157 q -0.75195,-0.375977 -1.47656,-0.567383 -0.71778,-0.191406 -1.36035,-0.191406 -0.84766,0 -1.25782,0.259765 -0.40332,0.259766 -0.40332,0.806641 0,0.410156 0.27344,0.642578 0.27344,0.225586 0.99805,0.389648 l 1.00488,0.225586 q 1.53809,0.341797 2.18067,1.039063 0.64257,0.697265 0.64257,1.982422 0,1.688476 -0.90234,2.515625 -0.89551,0.820312 -2.74805,0.820312 -0.875,0 -1.75683,-0.18457 -0.875,-0.18457 -1.75684,-0.546875 v -2.22168 q 0.88184,0.519531 1.70215,0.786133 0.82031,0.259766 1.58594,0.259766 0.77246,0 1.18261,-0.28711 0.417,-0.287109 0.417,-0.820312 0,-0.478516 -0.28028,-0.738282 -0.28027,-0.259765 -1.12109,-0.464843 l -0.91602,-0.225586 q -1.37402,-0.328125 -2.0166,-1.045899 -0.63574,-0.717773 -0.63574,-1.93457 0,-1.524414 0.88867,-2.344727 0.88867,-0.820312 2.54297,-0.820312 0.75879,0 1.55859,0.129883 0.79981,0.123047 1.6543,0.375976 z"
     id="text4"
     style="font-weight:700;font-size:14px;font-family:'DejaVu Sans Condensed';letter-spacing:0;fill:#4d5dff"
     aria-label="BODY / CLEAN SANS" />
  <path
     d="m 424.91992,92 h 2.38477 l 2.73926,-10.140625 c 0.31152,-1.160156 0.54785,-2.245117 0.78417,-3.555664 0.24708,1.407226 0.50489,2.535156 0.78418,3.555664 L 434.3623,92 h 2.37403 l 4.38281,-16.005859 h -2.10547 l -2.52441,9.818359 c -0.34375,1.353516 -0.66602,2.739258 -0.94531,4.22168 -0.30079,-1.482422 -0.62305,-2.868164 -0.97754,-4.22168 l -2.56739,-9.818359 h -2.32031 l -2.58887,9.818359 c -0.36523,1.375 -0.67675,2.782227 -0.96679,4.286133 -0.29004,-1.503906 -0.60157,-2.911133 -0.94532,-4.286133 l -2.53515,-9.818359 h -2.08399 z m 22.38672,0.257812 c 2.45996,0 4.25391,-1.235351 4.8125,-3.050781 L 450.25,88.691406 c -0.45117,1.22461 -1.51465,1.847656 -2.93262,1.847656 -2.12695,0 -3.58789,-1.375 -3.68457,-3.888671 h 8.67969 v -0.805664 c 0,-4.436524 -2.68555,-6.004883 -5.23145,-6.004883 -3.27636,0 -5.40332,2.567383 -5.40332,6.251953 0,3.695312 2.14844,6.166015 5.62891,6.166015 z m -3.66309,-7.240234 c 0.11817,-1.836914 1.375,-3.458984 3.4375,-3.458984 1.97657,0 3.08301,1.417968 3.26563,3.458984 z m 22.3545,-5.027344 h -2.47071 v -2.857422 h -1.93359 v 2.857422 h -1.80469 v 1.654297 h 1.80469 v 7.390625 c 0,1.965821 1.22461,3.115235 3.29785,3.115235 0.49414,0 1.04199,-0.0752 1.43945,-0.214844 l -0.39746,-1.632813 c -0.32226,0.06445 -0.74121,0.128907 -0.98828,0.128907 -1.02051,0 -1.41797,-0.472657 -1.41797,-1.546875 v -7.240235 h 2.47071 z m 7.30468,12.267578 c 2.45997,0 4.25391,-1.235351 4.8125,-3.050781 l -1.86914,-0.515625 c -0.45117,1.22461 -1.51464,1.847656 -2.93261,1.847656 -2.12696,0 -3.58789,-1.375 -3.68457,-3.888671 h 8.67968 v -0.805664 c 0,-4.436524 -2.68554,-6.004883 -5.23144,-6.004883 -3.27637,0 -5.40332,2.567383 -5.40332,6.251953 0,3.695312 2.14844,6.166015 5.6289,6.166015 z m -3.66308,-7.240234 c 0.11816,-1.836914 1.375,-3.458984 3.4375,-3.458984 1.97656,0 3.08301,1.417968 3.26562,3.458984 z m 15.52246,7.240234 c 2.81445,0 4.7373,-1.536132 4.7373,-3.641601 0,-1.643555 -1.0205,-2.728516 -3.20117,-3.244141 l -1.81543,-0.429687 c -1.40722,-0.333008 -2.01953,-0.827149 -2.01953,-1.71875 0,-0.999024 1.07422,-1.740235 2.50293,-1.740235 1.54688,0 2.22363,0.837891 2.55664,1.697266 l 1.75098,-0.451172 c -0.54785,-1.686523 -1.84766,-2.889648 -4.31836,-2.889648 -2.55664,0 -4.44727,1.439453 -4.44727,3.501953 0,1.686523 1.042,2.760742 3.22266,3.276367 l 1.99805,0.472656 c 1.18164,0.279297 1.76171,0.827149 1.76171,1.654297 0,0.988281 -1.07421,1.81543 -2.75,1.81543 -1.43945,0 -2.41699,-0.59082 -2.76074,-1.91211 l -1.83691,0.44043 c 0.42969,2.073242 2.14844,3.168945 4.61914,3.168945 z m 12.25684,-12.267578 h -2.47071 v -2.857422 h -1.93359 v 2.857422 h -1.80469 v 1.654297 h 1.80469 v 7.390625 c 0,1.965821 1.22461,3.115235 3.29785,3.115235 0.49414,0 1.04199,-0.0752 1.43945,-0.214844 l -0.39746,-1.632813 c -0.32226,0.06445 -0.74121,0.128907 -0.98828,0.128907 -1.02051,0 -1.41797,-0.472657 -1.41797,-1.546875 v -7.240235 h 2.47071 z m 14.24414,0 h -2.77149 v -1.170898 c 0,-1.160156 0.51563,-1.783203 1.70801,-1.783203 0.53711,0 0.83789,0.118164 1.04199,0.182617 l 0.53711,-1.654297 c -0.29004,-0.128906 -0.8916,-0.322266 -1.80469,-0.322266 -1.75097,0 -3.41601,1.063477 -3.41601,3.147461 v 1.600586 h -2.36328 v 1.654297 h 2.36328 V 92 h 1.93359 V 81.644531 h 2.77149 z M 514.21973,92 h 1.93359 V 79.990234 h -1.93359 z m 0.97754,-13.975586 c 0.74121,0 1.35351,-0.569336 1.35351,-1.27832 0,-0.708985 -0.6123,-1.278321 -1.35351,-1.278321 -0.73047,0 -1.34278,0.569336 -1.34278,1.278321 0,0.708984 0.61231,1.27832 1.34278,1.27832 z m 6.28418,6.77832 c 0,-2.051757 1.2998,-3.222656 3.02929,-3.222656 1.67578,0 2.70703,1.106445 2.70703,2.954102 V 92 h 1.9336 v -7.626953 c 0,-3.040039 -1.63282,-4.533203 -4.06055,-4.533203 -1.61133,0 -2.90039,0.676758 -3.67383,2.374023 l -0.0107,-2.223633 h -1.8584 V 92 h 1.9336 z m 15.56542,7.455078 c 2.28809,0 3.09375,-1.450195 3.49122,-2.11621 h 0.21484 V 92 h 1.86914 V 75.994141 h -1.93359 v 5.918945 h -0.15039 c -0.39747,-0.633789 -1.13868,-2.073242 -3.48047,-2.073242 -2.99707,0 -5.0918,2.384765 -5.0918,6.1875 0,3.824218 2.08398,6.230468 5.08105,6.230468 z m 0.29004,-1.729492 c -2.24511,0 -3.40527,-1.998047 -3.40527,-4.522461 0,-2.492187 1.12793,-4.436523 3.40527,-4.436523 2.21289,0 3.37305,1.783203 3.37305,4.436523 0,2.674805 -1.19238,4.522461 -3.37305,4.522461 z M 546.0166,92 h 1.9336 V 79.990234 h -1.9336 z m 0.97754,-13.975586 c 0.74121,0 1.35352,-0.569336 1.35352,-1.27832 0,-0.708985 -0.61231,-1.278321 -1.35352,-1.278321 -0.73047,0 -1.34277,0.569336 -1.34277,1.278321 0,0.708984 0.6123,1.27832 1.34277,1.27832 z m 6.28418,6.77832 c 0,-2.051757 1.2998,-3.222656 3.0293,-3.222656 1.67578,0 2.70703,1.106445 2.70703,2.954102 V 92 h 1.93359 v -7.626953 c 0,-3.040039 -1.63281,-4.533203 -4.06054,-4.533203 -1.61133,0 -2.9004,0.676758 -3.67383,2.374023 l -0.0108,-2.223633 h -1.85839 V 92 h 1.93359 z m 15.93066,11.945313 c 2.92188,0 5.23145,-1.332031 5.23145,-4.436524 V 79.990234 h -1.87988 v 1.922852 h -0.18262 c -0.4082,-0.644531 -1.18164,-2.073242 -3.50195,-2.073242 -2.99707,0 -5.11328,2.384765 -5.11328,6.101562 0,3.770508 2.1914,5.865235 5.07031,5.865235 2.32031,0 3.08301,-1.321289 3.49121,-2.008789 h 0.18262 v 2.40625 c 0,1.976562 -1.38575,2.857421 -3.29786,2.857421 -2.11621,0 -2.86816,-1.074218 -3.37304,-1.772461 l -1.56836,1.009766 c 0.74121,1.321289 2.27734,2.449219 4.9414,2.449219 z m -0.0537,-6.660156 c -2.25586,0 -3.42675,-1.71875 -3.42675,-4.189454 0,-2.395507 1.13867,-4.329101 3.42675,-4.329101 2.21289,0 3.37305,1.783203 3.37305,4.329101 0,2.621094 -1.19238,4.189454 -3.37305,4.189454 z m 12.76172,2.169921 c 2.81446,0 4.73731,-1.536132 4.73731,-3.641601 0,-1.643555 -1.02051,-2.728516 -3.20118,-3.244141 l -1.81542,-0.429687 c -1.40723,-0.333008 -2.01954,-0.827149 -2.01954,-1.71875 0,-0.999024 1.07422,-1.740235 2.50293,-1.740235 1.54688,0 2.22364,0.837891 2.55664,1.697266 l 1.75098,-0.451172 c -0.54785,-1.686523 -1.84766,-2.889648 -4.31836,-2.889648 -2.55664,0 -4.44726,1.439453 -4.44726,3.501953 0,1.686523 1.04199,2.760742 3.22265,3.276367 l 1.99805,0.472656 c 1.18164,0.279297 1.76172,0.827149 1.76172,1.654297 0,0.988281 -1.07422,1.81543 -2.75,1.81543 -1.43946,0 -2.41699,-0.59082 -2.76074,-1.91211 l -1.83692,0.44043 c 0.42969,2.073242 2.14844,3.168945 4.61914,3.168945 z m 18.44434,-12.267578 h -2.47071 v -2.857422 h -1.93359 v 2.857422 h -1.80469 v 1.654297 h 1.80469 v 7.390625 c 0,1.965821 1.22461,3.115235 3.29785,3.115235 0.49414,0 1.04199,-0.0752 1.43946,-0.214844 l -0.39747,-1.632813 c -0.32226,0.06445 -0.74121,0.128907 -0.98828,0.128907 -1.0205,0 -1.41797,-0.472657 -1.41797,-1.546875 v -7.240235 h 2.47071 z m 4.40429,4.8125 c 0,-2.051757 1.29981,-3.222656 3.0293,-3.222656 1.67578,0 2.70703,1.106445 2.70703,2.954102 V 92 h 1.94434 v -7.626953 c 0,-3.040039 -1.64356,-4.533203 -4.07129,-4.533203 -1.56836,0 -2.8252,0.633789 -3.60938,2.234375 v -6.080078 h -1.93359 V 92 h 1.93359 z m 16.12403,7.455078 c 2.45996,0 4.2539,-1.235351 4.8125,-3.050781 l -1.86914,-0.515625 c -0.45117,1.22461 -1.51465,1.847656 -2.93262,1.847656 -2.12695,0 -3.58789,-1.375 -3.68457,-3.888671 h 8.67969 v -0.805664 c 0,-4.436524 -2.68555,-6.004883 -5.23145,-6.004883 -3.27636,0 -5.40332,2.567383 -5.40332,6.251953 0,3.695312 2.14844,6.166015 5.62891,6.166015 z m -3.66309,-7.240234 c 0.11817,-1.836914 1.375,-3.458984 3.4375,-3.458984 1.97656,0 3.08301,1.417968 3.26563,3.458984 z M 637.55078,92 h 1.92285 l 1.55762,-5.435547 c 0.38672,-1.342773 0.7627,-2.84668 1.12793,-4.37207 0.36523,1.536133 0.73047,2.99707 1.12793,4.37207 L 644.84473,92 h 1.92285 l 3.6416,-12.009766 h -2.05176 l -1.46094,5.242188 c -0.36523,1.310547 -0.76269,2.825195 -1.16015,4.662109 -0.37598,-1.858398 -0.7627,-3.383789 -1.10645,-4.662109 l -1.41797,-5.242188 h -2.0625 l -1.43945,5.242188 c -0.36523,1.332031 -0.75195,2.868164 -1.13867,4.694336 -0.39746,-1.91211 -0.80567,-3.4375 -1.14942,-4.694336 l -1.46093,-5.242188 h -2.05176 z m 18.66992,0.279297 c 2.03028,0 3.15821,-1.063477 3.56641,-1.91211 h 0.12891 V 92 h 1.90136 v -7.916992 c 0,-3.749024 -2.88965,-4.243164 -4.50097,-4.243164 -1.8584,0 -3.9209,0.666015 -4.84473,2.846679 l 1.8584,0.612305 c 0.37597,-0.837891 1.31054,-1.761719 3.04004,-1.761719 1.66504,0 2.51367,0.859375 2.51367,2.352539 v 0.06445 c 0,0.891601 -0.94531,0.827148 -3.08301,1.095703 -2.22363,0.279297 -4.67285,0.784179 -4.67285,3.534179 0,2.363282 1.81543,3.695313 4.09277,3.695313 z m 0.33301,-1.708008 c -1.43945,0 -2.48144,-0.644531 -2.48144,-1.890625 0,-1.364258 1.23535,-1.81543 2.64257,-1.998047 0.74121,-0.09668 2.84668,-0.311523 3.16895,-0.6875 v 1.665039 c 0,1.47168 -1.19238,2.911133 -3.33008,2.911133 z m 8.14258,5.779297 c 0.2041,0.09668 0.73047,0.225586 1.41797,0.225586 1.69726,0 2.85742,-0.870117 3.58789,-2.782227 l 5.27441,-13.803711 h -2.10547 l -2.57812,7.122071 c -0.37598,1.041992 -0.65527,2.083984 -0.92383,3.083007 -0.2793,-0.999023 -0.54785,-2.030273 -0.92383,-3.083007 l -2.55664,-7.122071 h -2.11621 l 4.58691,12.074219 -0.34375,0.999024 c -0.59082,1.71875 -1.43945,1.976562 -2.62109,1.665039 l -0.2041,-0.05371 z"
     id="text5"
     style="font-size:22px;font-family:Inter;letter-spacing:0;fill:#101426"
     aria-label="We test findings the way" />
  <path
     d="m 426.42383,109.99023 h -2.47071 v -2.85742 h -1.93359 v 2.85742 h -1.80469 v 1.6543 h 1.80469 v 7.39063 c 0,1.96582 1.22461,3.11523 3.29785,3.11523 0.49414,0 1.04199,-0.0752 1.43946,-0.21484 l -0.39747,-1.63282 c -0.32226,0.0645 -0.74121,0.12891 -0.98828,0.12891 -1.0205,0 -1.41797,-0.47266 -1.41797,-1.54687 v -7.24024 h 2.47071 z m 4.40429,4.8125 c 0,-2.05175 1.29981,-3.22265 3.0293,-3.22265 1.67578,0 2.70703,1.10644 2.70703,2.9541 V 122 h 1.94434 v -7.62695 c 0,-3.04004 -1.64356,-4.53321 -4.07129,-4.53321 -1.56836,0 -2.8252,0.63379 -3.60938,2.23438 v -6.08008 h -1.93359 V 122 h 1.93359 z m 16.12403,7.45508 c 2.45996,0 4.2539,-1.23535 4.8125,-3.05078 l -1.86914,-0.51562 c -0.45117,1.22461 -1.51465,1.84765 -2.93262,1.84765 -2.12695,0 -3.58789,-1.375 -3.68457,-3.88867 h 8.67969 v -0.80566 c 0,-4.43653 -2.68555,-6.00489 -5.23145,-6.00489 -3.27636,0 -5.40332,2.56739 -5.40332,6.25196 0,3.69531 2.14844,6.16601 5.62891,6.16601 z m -3.66309,-7.24023 c 0.11817,-1.83692 1.375,-3.45899 3.4375,-3.45899 1.97656,0 3.08301,1.41797 3.26563,3.45899 z m 22.67676,7.24023 c 2.45996,0 4.25391,-1.23535 4.8125,-3.05078 l -1.86914,-0.51562 c -0.45117,1.22461 -1.51465,1.84765 -2.93262,1.84765 -2.12695,0 -3.58789,-1.375 -3.68457,-3.88867 h 8.67969 v -0.80566 c 0,-4.43653 -2.68555,-6.00489 -5.23145,-6.00489 -3.27636,0 -5.40332,2.56739 -5.40332,6.25196 0,3.69531 2.14844,6.16601 5.62891,6.16601 z m -3.66309,-7.24023 c 0.11817,-1.83692 1.375,-3.45899 3.4375,-3.45899 1.97657,0 3.08301,1.41797 3.26563,3.45899 z M 476.7832,122 h 2.03028 l 4.58691,-12.00977 h -2.11621 l -2.55664,7.12207 c -0.37598,1.042 -0.65527,2.09473 -0.92383,3.09375 -0.2793,-0.99902 -0.55859,-2.05175 -0.93457,-3.09375 l -2.55664,-7.12207 h -2.11621 z m 8.89453,0 h 1.9336 v -12.00977 h -1.9336 z m 0.97754,-13.97559 c 0.74121,0 1.35352,-0.56933 1.35352,-1.27832 0,-0.70898 -0.61231,-1.27832 -1.35352,-1.27832 -0.73047,0 -1.34277,0.56934 -1.34277,1.27832 0,0.70899 0.6123,1.27832 1.34277,1.27832 z m 8.85157,14.2334 c 2.28808,0 3.09375,-1.45019 3.49121,-2.11621 h 0.21484 V 122 h 1.86914 v -16.00586 h -1.93359 v 5.91895 h -0.15039 c -0.39746,-0.63379 -1.13868,-2.07325 -3.48047,-2.07325 -2.99707,0 -5.0918,2.38477 -5.0918,6.1875 0,3.82422 2.08399,6.23047 5.08106,6.23047 z m 0.29003,-1.72949 c -2.24511,0 -3.40527,-1.99805 -3.40527,-4.52246 0,-2.49219 1.12793,-4.43652 3.40527,-4.43652 2.2129,0 3.37305,1.7832 3.37305,4.43652 0,2.6748 -1.19238,4.52246 -3.37305,4.52246 z m 13.72852,1.72949 c 2.45996,0 4.25391,-1.23535 4.8125,-3.05078 l -1.86914,-0.51562 c -0.45117,1.22461 -1.51465,1.84765 -2.93262,1.84765 -2.12695,0 -3.58789,-1.375 -3.68457,-3.88867 h 8.67969 v -0.80566 c 0,-4.43653 -2.68555,-6.00489 -5.23145,-6.00489 -3.27636,0 -5.40332,2.56739 -5.40332,6.25196 0,3.69531 2.14844,6.16601 5.62891,6.16601 z m -3.66309,-7.24023 c 0.11817,-1.83692 1.375,-3.45899 3.4375,-3.45899 1.97657,0 3.08301,1.41797 3.26563,3.45899 z m 13.37403,-0.21485 c 0,-2.05175 1.2998,-3.22265 3.02929,-3.22265 1.67579,0 2.70704,1.10644 2.70704,2.9541 V 122 h 1.93359 v -7.62695 c 0,-3.04004 -1.63281,-4.53321 -4.06055,-4.53321 -1.61133,0 -2.90039,0.67676 -3.67383,2.37403 l -0.0107,-2.22364 h -1.8584 V 122 h 1.9336 z m 15.95215,7.45508 c 2.35254,0 4.26464,-1.27832 4.90918,-3.41601 L 538.25,118.31543 c -0.35449,1.2998 -1.4502,2.21289 -3.06152,2.21289 -2.39551,0 -3.50196,-2.09473 -3.50196,-4.45801 0,-2.39551 1.10645,-4.50097 3.50196,-4.50097 1.5791,0 2.65332,0.88086 3.00781,2.11621 l 1.8584,-0.52637 c -0.65528,-2.09473 -2.5459,-3.31934 -4.86621,-3.31934 -3.26563,0 -5.46778,2.47071 -5.46778,6.23047 0,3.70606 2.20215,6.1875 5.46778,6.1875 z m 12.72949,0 c 2.45996,0 4.2539,-1.23535 4.8125,-3.05078 l -1.86914,-0.51562 c -0.45117,1.22461 -1.51465,1.84765 -2.93262,1.84765 -2.12695,0 -3.58789,-1.375 -3.68457,-3.88867 h 8.67969 v -0.80566 c 0,-4.43653 -2.68555,-6.00489 -5.23145,-6.00489 -3.27636,0 -5.40332,2.56739 -5.40332,6.25196 0,3.69531 2.14844,6.16601 5.62891,6.16601 z m -3.66309,-7.24023 c 0.11817,-1.83692 1.375,-3.45899 3.4375,-3.45899 1.97657,0 3.08301,1.41797 3.26563,3.45899 z M 564.5791,122 h 1.92285 l 1.55762,-5.43555 c 0.38672,-1.34277 0.7627,-2.84668 1.12793,-4.37207 0.36523,1.53614 0.73047,2.99707 1.12793,4.37207 L 571.87305,122 h 1.92285 l 3.6416,-12.00977 h -2.05176 l -1.46094,5.24219 c -0.36523,1.31055 -0.76269,2.8252 -1.16015,4.66211 -0.37598,-1.8584 -0.7627,-3.38379 -1.10645,-4.66211 l -1.41797,-5.24219 h -2.0625 l -1.43945,5.24219 c -0.36523,1.33203 -0.75195,2.86817 -1.13867,4.69434 -0.39746,-1.91211 -0.80566,-3.4375 -1.14941,-4.69434 l -1.46094,-5.24219 h -2.05176 z m 18.66992,0.2793 c 2.03028,0 3.15821,-1.06348 3.56641,-1.91211 h 0.12891 V 122 h 1.90136 v -7.91699 c 0,-3.74903 -2.88965,-4.24317 -4.50097,-4.24317 -1.8584,0 -3.9209,0.66602 -4.84473,2.84668 l 1.8584,0.61231 c 0.37597,-0.83789 1.31055,-1.76172 3.04004,-1.76172 1.66504,0 2.51367,0.85937 2.51367,2.35254 v 0.0644 c 0,0.8916 -0.94531,0.82715 -3.08301,1.0957 -2.22363,0.2793 -4.67285,0.78418 -4.67285,3.53418 0,2.36329 1.81543,3.69532 4.09277,3.69532 z m 0.33301,-1.70801 c -1.43945,0 -2.48144,-0.64453 -2.48144,-1.89063 0,-1.36425 1.23535,-1.81543 2.64257,-1.99804 0.74121,-0.0967 2.84668,-0.31153 3.16895,-0.6875 v 1.66504 c 0,1.47168 -1.19238,2.91113 -3.33008,2.91113 z m 12.74024,1.68652 c 2.81445,0 4.7373,-1.53613 4.7373,-3.6416 0,-1.64355 -1.02051,-2.72851 -3.20117,-3.24414 l -1.81543,-0.42969 c -1.40723,-0.333 -2.01953,-0.82715 -2.01953,-1.71875 0,-0.99902 1.07422,-1.74023 2.50293,-1.74023 1.54687,0 2.22363,0.83789 2.55664,1.69726 l 1.75097,-0.45117 c -0.54785,-1.68652 -1.84765,-2.88965 -4.31836,-2.88965 -2.55664,0 -4.44726,1.43946 -4.44726,3.50196 0,1.68652 1.04199,2.76074 3.22266,3.27636 l 1.99804,0.47266 c 1.18164,0.2793 1.76172,0.82715 1.76172,1.6543 0,0.98828 -1.07422,1.81543 -2.75,1.81543 -1.43945,0 -2.41699,-0.59082 -2.76074,-1.91211 l -1.83692,0.44043 c 0.42969,2.07324 2.14844,3.16894 4.61915,3.16894 z m 18.60546,0 c 2.35254,0 4.26465,-1.27832 4.90918,-3.41601 l -1.84765,-0.52637 c -0.35449,1.2998 -1.4502,2.21289 -3.06153,2.21289 -2.3955,0 -3.50195,-2.09473 -3.50195,-4.45801 0,-2.39551 1.10645,-4.50097 3.50195,-4.50097 1.57911,0 2.65332,0.88086 3.00782,2.11621 l 1.8584,-0.52637 c -0.65528,-2.09473 -2.5459,-3.31934 -4.86622,-3.31934 -3.26562,0 -5.46777,2.47071 -5.46777,6.23047 0,3.70606 2.20215,6.1875 5.46777,6.1875 z M 622.6084,122 h 1.93359 v -7.51953 c 0,-1.62207 1.26758,-2.79297 2.99707,-2.79297 0.51563,0 1.04199,0.0859 1.16016,0.10742 v -1.94433 c -0.22559,-0.0108 -0.69824,-0.0322 -0.97754,-0.0322 -1.42871,0 -2.67481,0.80566 -3.11523,2.01953 h -0.12891 v -1.84766 h -1.86914 z m 12.96582,0.25781 c 2.45996,0 4.2539,-1.23535 4.8125,-3.05078 l -1.86914,-0.51562 c -0.45117,1.22461 -1.51465,1.84765 -2.93262,1.84765 -2.12695,0 -3.58789,-1.375 -3.68457,-3.88867 h 8.67969 v -0.80566 c 0,-4.43653 -2.68555,-6.00489 -5.23145,-6.00489 -3.27636,0 -5.40332,2.56739 -5.40332,6.25196 0,3.69531 2.14844,6.16601 5.62891,6.16601 z m -3.66309,-7.24023 c 0.11817,-1.83692 1.375,-3.45899 3.4375,-3.45899 1.97657,0 3.08301,1.41797 3.26563,3.45899 z m 15.01758,7.26172 c 2.03027,0 3.1582,-1.06348 3.56641,-1.91211 h 0.1289 V 122 h 1.90137 v -7.91699 c 0,-3.74903 -2.88965,-4.24317 -4.50098,-4.24317 -1.85839,0 -3.92089,0.66602 -4.84472,2.84668 l 1.8584,0.61231 c 0.37597,-0.83789 1.31054,-1.76172 3.04003,-1.76172 1.66504,0 2.51368,0.85937 2.51368,2.35254 v 0.0644 c 0,0.8916 -0.94532,0.82715 -3.08301,1.0957 -2.22363,0.2793 -4.67285,0.78418 -4.67285,3.53418 0,2.36329 1.81543,3.69532 4.09277,3.69532 z m 0.33301,-1.70801 c -1.43945,0 -2.48145,-0.64453 -2.48145,-1.89063 0,-1.36425 1.23535,-1.81543 2.64258,-1.99804 0.74121,-0.0967 2.84668,-0.31153 3.16895,-0.6875 v 1.66504 c 0,1.47168 -1.19239,2.91113 -3.33008,2.91113 z m 13.38476,-10.58106 h -2.4707 v -2.85742 h -1.93359 v 2.85742 h -1.80469 v 1.6543 h 1.80469 v 7.39063 c 0,1.96582 1.22461,3.11523 3.29785,3.11523 0.49414,0 1.04199,-0.0752 1.43945,-0.21484 l -0.39746,-1.63282 c -0.32226,0.0645 -0.74121,0.12891 -0.98828,0.12891 -1.02051,0 -1.41797,-0.47266 -1.41797,-1.54687 v -7.24024 h 2.4707 z m 7.30469,12.26758 c 2.45996,0 4.25391,-1.23535 4.8125,-3.05078 l -1.86914,-0.51562 c -0.45117,1.22461 -1.51465,1.84765 -2.93262,1.84765 -2.12695,0 -3.58789,-1.375 -3.68457,-3.88867 h 8.67969 v -0.80566 c 0,-4.43653 -2.68555,-6.00489 -5.23144,-6.00489 -3.27637,0 -5.40332,2.56739 -5.40332,6.25196 0,3.69531 2.14843,6.16601 5.6289,6.16601 z m -3.66308,-7.24023 c 0.11816,-1.83692 1.375,-3.45899 3.4375,-3.45899 1.97656,0 3.083,1.41797 3.26562,3.45899 z m 15.9414,7.24023 c 2.28809,0 3.09375,-1.45019 3.49121,-2.11621 h 0.21485 V 122 h 1.86914 v -16.00586 h -1.9336 v 5.91895 h -0.15039 c -0.39746,-0.63379 -1.13867,-2.07325 -3.48047,-2.07325 -2.99707,0 -5.09179,2.38477 -5.09179,6.1875 0,3.82422 2.08398,6.23047 5.08105,6.23047 z m 0.29004,-1.72949 c -2.24512,0 -3.40527,-1.99805 -3.40527,-4.52246 0,-2.49219 1.12793,-4.43652 3.40527,-4.43652 2.21289,0 3.37305,1.7832 3.37305,4.43652 0,2.6748 -1.19238,4.52246 -3.37305,4.52246 z m 10.15137,1.61133 c 0.80566,0 1.45019,-0.64453 1.45019,-1.4502 0,-0.80566 -0.64453,-1.45019 -1.45019,-1.45019 -0.80567,0 -1.4502,0.64453 -1.4502,1.45019 0,0.80567 0.64453,1.4502 1.4502,1.4502 z"
     id="text6"
     style="font-size:22px;font-family:Inter;letter-spacing:0;fill:#101426"
     aria-label="the evidence was created." />
  <path
     d="m 421.93359,152 h 2.04102 v -6.20898 h 3.44824 c 0.12891,0 0.24707,0 0.37598,-0.0108 L 431.12891,152 h 2.36328 l -3.58789,-6.58496 c 2.01953,-0.70899 2.96484,-2.35254 2.96484,-4.47949 0,-2.85743 -1.71875,-4.94141 -5.45703,-4.94141 h -5.47852 z m 2.04102,-8.02441 v -6.1875 h 3.33008 c 2.5459,0 3.53418,1.24609 3.53418,3.14746 0,1.87988 -0.98828,3.04004 -3.5127,3.04004 z m 16.60742,8.28222 c 2.45996,0 4.25391,-1.23535 4.8125,-3.05078 l -1.86914,-0.51562 c -0.45117,1.22461 -1.51465,1.84765 -2.93262,1.84765 -2.12695,0 -3.58789,-1.375 -3.68457,-3.88867 h 8.67969 v -0.80566 c 0,-4.43653 -2.68555,-6.00489 -5.23144,-6.00489 -3.27637,0 -5.40333,2.56739 -5.40333,6.25196 0,3.69531 2.14844,6.16601 5.62891,6.16601 z m -3.66308,-7.24023 c 0.11816,-1.83692 1.375,-3.45899 3.4375,-3.45899 1.97656,0 3.083,1.41797 3.26562,3.45899 z m 11.44042,11.47265 h 1.9336 v -6.34863 h 0.15039 c 0.39746,0.66602 1.20312,2.11621 3.49121,2.11621 2.99707,0 5.08105,-2.40625 5.08105,-6.23047 0,-3.80273 -2.09472,-6.1875 -5.09179,-6.1875 -2.3418,0 -3.08301,1.43946 -3.48047,2.07325 h -0.21484 v -1.92286 h -1.86915 z m 5.28516,-5.96191 c -2.18066,0 -3.37305,-1.84766 -3.37305,-4.52246 0,-2.65332 1.16016,-4.43652 3.37305,-4.43652 2.27734,0 3.40527,1.94433 3.40527,4.43652 0,2.52441 -1.16015,4.52246 -3.40527,4.52246 z M 461.83008,152 h 1.93359 v -7.51953 c 0,-1.62207 1.26758,-2.79297 2.99707,-2.79297 0.51563,0 1.04199,0.0859 1.16016,0.10742 v -1.94433 c -0.22559,-0.0108 -0.69824,-0.0322 -0.97754,-0.0322 -1.42871,0 -2.67481,0.80566 -3.11524,2.01953 h -0.1289 v -1.84766 h -1.86914 z m 12.80469,0.25781 c 3.27636,0 5.48925,-2.48144 5.48925,-6.1875 0,-3.75976 -2.21289,-6.23047 -5.48925,-6.23047 -3.26563,0 -5.46778,2.47071 -5.46778,6.23047 0,3.70606 2.20215,6.1875 5.46778,6.1875 z m 0,-1.72949 c -2.39551,0 -3.50196,-2.09473 -3.50196,-4.45801 0,-2.39551 1.10645,-4.50097 3.50196,-4.50097 2.42773,0 3.53418,2.11621 3.53418,4.50097 0,2.36328 -1.10645,4.45801 -3.53418,4.45801 z m 12.80468,1.72949 c 2.28809,0 3.09375,-1.45019 3.49121,-2.11621 h 0.21485 V 152 h 1.86914 v -16.00586 h -1.9336 v 5.91895 h -0.15039 c -0.39746,-0.63379 -1.13867,-2.07325 -3.48046,-2.07325 -2.99708,0 -5.0918,2.38477 -5.0918,6.1875 0,3.82422 2.08398,6.23047 5.08105,6.23047 z m 0.29004,-1.72949 c -2.24512,0 -3.40527,-1.99805 -3.40527,-4.52246 0,-2.49219 1.12793,-4.43652 3.40527,-4.43652 2.21289,0 3.37305,1.7832 3.37305,4.43652 0,2.6748 -1.19238,4.52246 -3.37305,4.52246 z m 12.75098,1.62207 c 1.5791,0 2.88965,-0.64453 3.67383,-2.39551 V 152 h 1.86914 v -12.00977 h -1.94434 v 7.19727 c 0,2.05176 -1.2998,3.22266 -3.01855,3.22266 -1.67578,0 -2.71778,-1.10645 -2.71778,-2.95411 v -7.46582 h -1.93359 v 7.62696 c 0,3.04004 1.64355,4.5332 4.07129,4.5332 z m 13.82519,0.10742 c 2.35254,0 4.26465,-1.27832 4.90918,-3.41601 l -1.84765,-0.52637 c -0.35449,1.2998 -1.4502,2.21289 -3.06153,2.21289 -2.3955,0 -3.50195,-2.09473 -3.50195,-4.45801 0,-2.39551 1.10645,-4.50097 3.50195,-4.50097 1.57911,0 2.65332,0.88086 3.00782,2.11621 l 1.85839,-0.52637 c -0.65527,-2.09473 -2.54589,-3.31934 -4.86621,-3.31934 -3.26562,0 -5.46777,2.47071 -5.46777,6.23047 0,3.70606 2.20215,6.1875 5.46777,6.1875 z M 521.98633,152 h 1.93359 v -12.00977 h -1.93359 z m 0.97754,-13.97559 c 0.74121,0 1.35351,-0.56933 1.35351,-1.27832 0,-0.70898 -0.6123,-1.27832 -1.35351,-1.27832 -0.73047,0 -1.34278,0.56934 -1.34278,1.27832 0,0.70899 0.61231,1.27832 1.34278,1.27832 z m 9.92578,14.2334 c 2.99707,0 5.08105,-2.40625 5.08105,-6.23047 0,-3.80273 -2.09472,-6.1875 -5.09179,-6.1875 -2.3418,0 -3.08301,1.43946 -3.48047,2.07325 h -0.15039 v -5.91895 h -1.9336 V 152 h 1.86914 v -1.8584 h 0.21485 c 0.39746,0.66602 1.20312,2.11621 3.49121,2.11621 z m -0.29004,-1.72949 c -2.18066,0 -3.37305,-1.84766 -3.37305,-4.52246 0,-2.65332 1.16016,-4.43652 3.37305,-4.43652 2.27734,0 3.40527,1.94433 3.40527,4.43652 0,2.52441 -1.16015,4.52246 -3.40527,4.52246 z m 10.11914,-14.53418 h -1.93359 V 152 h 1.93359 z m 8.44336,16.26367 c 2.45996,0 4.25391,-1.23535 4.8125,-3.05078 l -1.86914,-0.51562 c -0.45117,1.22461 -1.51465,1.84765 -2.93262,1.84765 -2.12695,0 -3.58789,-1.375 -3.68457,-3.88867 h 8.67969 v -0.80566 c 0,-4.43653 -2.68555,-6.00489 -5.23145,-6.00489 -3.27636,0 -5.40332,2.56739 -5.40332,6.25196 0,3.69531 2.14844,6.16601 5.62891,6.16601 z m -3.66309,-7.24023 c 0.11817,-1.83692 1.375,-3.45899 3.4375,-3.45899 1.97657,0 3.08301,1.41797 3.26563,3.45899 z m 12.91211,7.12207 c 0.80567,0 1.4502,-0.64453 1.4502,-1.4502 0,-0.80566 -0.64453,-1.45019 -1.4502,-1.45019 -0.80566,0 -1.45019,0.64453 -1.45019,1.45019 0,0.80567 0.64453,1.4502 1.45019,1.4502 z m 10.40918,-14.34082 h 5.03809 V 152 h 2.04101 v -14.20117 h 5.01661 v -1.80469 H 570.82031 Z M 584.41992,152 h 1.9336 v -7.51953 c 0,-1.62207 1.26757,-2.79297 2.99707,-2.79297 0.51562,0 1.04199,0.0859 1.16015,0.10742 v -1.94433 c -0.22558,-0.0108 -0.69824,-0.0322 -0.97754,-0.0322 -1.42871,0 -2.6748,0.80566 -3.11523,2.01953 h -0.12891 v -1.84766 h -1.86914 z m 11.64453,0.2793 c 2.03028,0 3.15821,-1.06348 3.56641,-1.91211 h 0.12891 V 152 h 1.90136 v -7.91699 c 0,-3.74903 -2.88965,-4.24317 -4.50097,-4.24317 -1.8584,0 -3.9209,0.66602 -4.84473,2.84668 l 1.8584,0.61231 c 0.37597,-0.83789 1.31054,-1.76172 3.04004,-1.76172 1.66504,0 2.51367,0.85937 2.51367,2.35254 v 0.0645 c 0,0.8916 -0.94531,0.82715 -3.08301,1.0957 -2.22363,0.2793 -4.67285,0.78418 -4.67285,3.53418 0,2.36329 1.81543,3.69532 4.09277,3.69532 z m 0.33301,-1.70801 c -1.43945,0 -2.48144,-0.64453 -2.48144,-1.89063 0,-1.36425 1.23535,-1.81543 2.64257,-1.99804 0.74121,-0.0967 2.84668,-0.31153 3.16895,-0.6875 v 1.66504 c 0,1.47168 -1.19238,2.91113 -3.33008,2.91113 z m 10.5918,-5.76856 c 0,-2.05175 1.2998,-3.22265 3.02929,-3.22265 1.67579,0 2.70704,1.10644 2.70704,2.9541 V 152 h 1.93359 v -7.62695 c 0,-3.04004 -1.63281,-4.53321 -4.06055,-4.53321 -1.61133,0 -2.90039,0.67676 -3.67383,2.37403 l -0.0107,-2.22364 h -1.8584 V 152 h 1.9336 z m 15.14648,7.45508 c 2.81446,0 4.73731,-1.53613 4.73731,-3.6416 0,-1.64355 -1.02051,-2.72851 -3.20118,-3.24414 l -1.81542,-0.42969 c -1.40723,-0.33301 -2.01954,-0.82715 -2.01954,-1.71875 0,-0.99902 1.07422,-1.74023 2.50293,-1.74023 1.54688,0 2.22364,0.83789 2.55664,1.69726 l 1.75098,-0.45117 c -0.54785,-1.68652 -1.84766,-2.88965 -4.31836,-2.88965 -2.55664,0 -4.44726,1.43946 -4.44726,3.50196 0,1.68652 1.04199,2.76074 3.22265,3.27636 l 1.99805,0.47266 c 1.18164,0.2793 1.76172,0.82715 1.76172,1.6543 0,0.98828 -1.07422,1.81543 -2.75,1.81543 -1.43946,0 -2.41699,-0.59082 -2.76074,-1.91211 l -1.83692,0.44043 c 0.42969,2.07324 2.14844,3.16894 4.61914,3.16894 z m 7.53028,4.23242 h 1.93359 V 150.1416 H 631.75 c 0.39746,0.66602 1.20312,2.11621 3.49121,2.11621 2.99707,0 5.08106,-2.40625 5.08106,-6.23047 0,-3.80273 -2.09473,-6.1875 -5.0918,-6.1875 -2.3418,0 -3.08301,1.43946 -3.48047,2.07325 h -0.21484 v -1.92286 h -1.86914 z m 5.28515,-5.96191 c -2.18066,0 -3.37305,-1.84766 -3.37305,-4.52246 0,-2.65332 1.16016,-4.43652 3.37305,-4.43652 2.27735,0 3.40528,1.94433 3.40528,4.43652 0,2.52441 -1.16016,4.52246 -3.40528,4.52246 z m 11.7627,1.75098 c 2.03027,0 3.1582,-1.06348 3.5664,-1.91211 h 0.12891 V 152 h 1.90137 v -7.91699 c 0,-3.74903 -2.88965,-4.24317 -4.50098,-4.24317 -1.8584,0 -3.9209,0.66602 -4.84473,2.84668 l 1.8584,0.61231 c 0.37598,-0.83789 1.31055,-1.76172 3.04004,-1.76172 1.66504,0 2.51367,0.85937 2.51367,2.35254 v 0.0645 c 0,0.8916 -0.94531,0.82715 -3.083,1.0957 -2.22364,0.2793 -4.67286,0.78418 -4.67286,3.53418 0,2.36329 1.81543,3.69532 4.09278,3.69532 z m 0.333,-1.70801 c -1.43945,0 -2.48144,-0.64453 -2.48144,-1.89063 0,-1.36425 1.23535,-1.81543 2.64258,-1.99804 0.74121,-0.0967 2.84668,-0.31153 3.16894,-0.6875 v 1.66504 c 0,1.47168 -1.19238,2.91113 -3.33008,2.91113 z M 655.70508,152 h 1.93359 v -7.51953 c 0,-1.62207 1.26758,-2.79297 2.99707,-2.79297 0.51563,0 1.04199,0.0859 1.16016,0.10742 v -1.94433 c -0.22559,-0.0108 -0.69824,-0.0322 -0.97754,-0.0322 -1.42871,0 -2.67481,0.80566 -3.11524,2.01953 h -0.1289 v -1.84766 h -1.86914 z m 12.96582,0.25781 c 2.45996,0 4.2539,-1.23535 4.8125,-3.05078 l -1.86914,-0.51562 c -0.45117,1.22461 -1.51465,1.84765 -2.93262,1.84765 -2.12695,0 -3.58789,-1.375 -3.68457,-3.88867 h 8.67969 v -0.80566 c 0,-4.43653 -2.68555,-6.00489 -5.23145,-6.00489 -3.27636,0 -5.40332,2.56739 -5.40332,6.25196 0,3.69531 2.14844,6.16601 5.62891,6.16601 z m -3.66309,-7.24023 c 0.11817,-1.83692 1.375,-3.45899 3.4375,-3.45899 1.97656,0 3.08301,1.41797 3.26563,3.45899 z m 13.37403,-0.21485 c 0,-2.05175 1.2998,-3.22265 3.02929,-3.22265 1.67578,0 2.70703,1.10644 2.70703,2.9541 V 152 h 1.9336 v -7.62695 c 0,-3.04004 -1.63281,-4.53321 -4.06055,-4.53321 -1.61133,0 -2.90039,0.67676 -3.67383,2.37403 l -0.0107,-2.22364 h -1.8584 V 152 h 1.9336 z m 15.79101,-4.8125 h -2.4707 v -2.85742 h -1.9336 v 2.85742 h -1.80468 v 1.6543 h 1.80468 v 7.39063 c 0,1.96582 1.22461,3.11523 3.29786,3.11523 0.49414,0 1.04199,-0.0752 1.43945,-0.21484 l -0.39746,-1.63282 c -0.32227,0.0645 -0.74121,0.12891 -0.98828,0.12891 -1.02051,0 -1.41797,-0.47266 -1.41797,-1.54687 v -7.24024 h 2.4707 z m 3.94238,12.14942 c 0.80567,0 1.4502,-0.64453 1.4502,-1.4502 0,-0.80566 -0.64453,-1.45019 -1.4502,-1.45019 -0.80566,0 -1.45019,0.64453 -1.45019,1.45019 0,0.80567 0.64453,1.4502 1.45019,1.4502 z"
     id="text7"
     style="font-size:22px;font-family:Inter;letter-spacing:0;fill:#101426"
     aria-label="Reproducible. Transparent." />
  <path
     d="m 426.92871,182 c 4.87695,0 7.6377,-3.0293 7.6377,-8.03516 0,-4.96289 -2.76075,-7.9707 -7.4336,-7.9707 h -5.19922 V 182 Z m -2.9541,-1.80469 v -12.39648 h 3.01855 c 3.70606,0 5.59668,2.32031 5.59668,6.16601 0,3.88868 -1.89062,6.23047 -5.79004,6.23047 z m 18.64844,2.0625 c 2.45996,0 4.2539,-1.23535 4.8125,-3.05078 l -1.86914,-0.51562 c -0.45118,1.22461 -1.51465,1.84765 -2.93262,1.84765 -2.12695,0 -3.58789,-1.375 -3.68457,-3.88867 h 8.67969 v -0.80566 c 0,-4.43653 -2.68555,-6.00489 -5.23145,-6.00489 -3.27637,0 -5.40332,2.56739 -5.40332,6.25196 0,3.69531 2.14844,6.16601 5.62891,6.16601 z m -3.66309,-7.24023 c 0.11816,-1.83692 1.375,-3.45899 3.4375,-3.45899 1.97656,0 3.08301,1.41797 3.26563,3.45899 z m 17.02637,-5.02735 h -2.77149 v -1.17089 c 0,-1.16016 0.51563,-1.78321 1.70801,-1.78321 0.53711,0 0.83789,0.11817 1.04199,0.18262 l 0.53711,-1.6543 c -0.29004,-0.1289 -0.8916,-0.32226 -1.80468,-0.32226 -1.75098,0 -3.41602,1.06347 -3.41602,3.14746 v 1.60058 h -2.36328 v 1.6543 h 2.36328 V 182 h 1.93359 v -10.35547 h 2.77149 z m 6.96094,12.26758 c 2.45996,0 4.2539,-1.23535 4.8125,-3.05078 l -1.86915,-0.51562 c -0.45117,1.22461 -1.51464,1.84765 -2.93261,1.84765 -2.12696,0 -3.58789,-1.375 -3.68457,-3.88867 h 8.67968 v -0.80566 c 0,-4.43653 -2.68554,-6.00489 -5.23144,-6.00489 -3.27637,0 -5.40332,2.56739 -5.40332,6.25196 0,3.69531 2.14844,6.16601 5.62891,6.16601 z m -3.66309,-7.24023 c 0.11816,-1.83692 1.375,-3.45899 3.4375,-3.45899 1.97656,0 3.08301,1.41797 3.26562,3.45899 z m 13.37402,-0.21485 c 0,-2.05175 1.29981,-3.22265 3.0293,-3.22265 1.67578,0 2.70703,1.10644 2.70703,2.9541 V 182 h 1.93359 v -7.62695 c 0,-3.04004 -1.63281,-4.53321 -4.06054,-4.53321 -1.61133,0 -2.90039,0.67676 -3.67383,2.37403 l -0.0107,-2.22364 h -1.8584 V 182 h 1.93359 z m 15.14649,7.45508 c 2.81445,0 4.7373,-1.53613 4.7373,-3.6416 0,-1.64355 -1.02051,-2.72851 -3.20117,-3.24414 l -1.81543,-0.42969 c -1.40723,-0.33301 -2.01953,-0.82715 -2.01953,-1.71875 0,-0.99902 1.07422,-1.74023 2.50293,-1.74023 1.54687,0 2.22363,0.83789 2.55664,1.69726 l 1.75098,-0.45117 c -0.54786,-1.68652 -1.84766,-2.88965 -4.31836,-2.88965 -2.55664,0 -4.44727,1.43946 -4.44727,3.50196 0,1.68652 1.04199,2.76074 3.22266,3.27636 l 1.99804,0.47266 c 1.18164,0.2793 1.76172,0.82715 1.76172,1.6543 0,0.98828 -1.07422,1.81543 -2.75,1.81543 -1.43945,0 -2.41699,-0.59082 -2.76074,-1.91211 l -1.83691,0.44043 c 0.42968,2.07324 2.14843,3.16894 4.61914,3.16894 z M 495.33496,182 h 1.93359 v -12.00977 h -1.93359 z m 0.97754,-13.97559 c 0.74121,0 1.35352,-0.56933 1.35352,-1.27832 0,-0.70898 -0.61231,-1.27832 -1.35352,-1.27832 -0.73047,0 -1.34277,0.56934 -1.34277,1.27832 0,0.70899 0.6123,1.27832 1.34277,1.27832 z m 9.92578,14.2334 c 2.99707,0 5.08106,-2.40625 5.08106,-6.23047 0,-3.80273 -2.09473,-6.1875 -5.0918,-6.1875 -2.3418,0 -3.08301,1.43946 -3.48047,2.07325 h -0.15039 v -5.91895 h -1.93359 V 182 h 1.86914 v -1.8584 h 0.21484 c 0.39746,0.66602 1.20313,2.11621 3.49121,2.11621 z m -0.29004,-1.72949 c -2.18066,0 -3.37304,-1.84766 -3.37304,-4.52246 0,-2.65332 1.16015,-4.43652 3.37304,-4.43652 2.27735,0 3.40528,1.94433 3.40528,4.43652 0,2.52441 -1.16016,4.52246 -3.40528,4.52246 z m 10.11914,-14.53418 h -1.93359 V 182 h 1.93359 z m 8.44336,16.26367 c 2.45996,0 4.25391,-1.23535 4.8125,-3.05078 l -1.86914,-0.51562 c -0.45117,1.22461 -1.51465,1.84765 -2.93262,1.84765 -2.12695,0 -3.58789,-1.375 -3.68457,-3.88867 h 8.67969 v -0.80566 c 0,-4.43653 -2.68555,-6.00489 -5.23144,-6.00489 -3.27637,0 -5.40332,2.56739 -5.40332,6.25196 0,3.69531 2.14843,6.16601 5.6289,6.16601 z m -3.66308,-7.24023 c 0.11816,-1.83692 1.375,-3.45899 3.4375,-3.45899 1.97656,0 3.083,1.41797 3.26562,3.45899 z m 12.91211,7.12207 c 0.80566,0 1.45019,-0.64453 1.45019,-1.4502 0,-0.80566 -0.64453,-1.45019 -1.45019,-1.45019 -0.80567,0 -1.4502,0.64453 -1.4502,1.45019 0,0.80567 0.64453,1.4502 1.4502,1.4502 z"
     id="text8"
     style="font-size:22px;font-family:Inter;letter-spacing:0;fill:#101426"
     aria-label="Defensible." />
  <path
     d="m 793.52734,33.783203 v 6.227539 h 0.84766 q 1.44922,0 2.21484,-0.799805 0.76563,-0.799804 0.76563,-2.324218 0,-1.517578 -0.76563,-2.310547 -0.75879,-0.792969 -2.21484,-0.792969 z m -2.37207,-1.989258 h 2.50196 q 2.09179,0 3.11035,0.334961 1.02539,0.328125 1.75683,1.121094 0.64942,0.69043 0.96387,1.592773 0.31445,0.902344 0.31445,2.043946 0,1.155273 -0.31445,2.064453 -0.31445,0.902344 -0.96387,1.592773 -0.73828,0.792969 -1.7705,1.12793 Q 795.72168,42 793.65723,42 h -2.50196 z m 16.03711,8.34668 H 803.4873 L 802.89941,42 h -2.3789 l 3.40429,-10.206055 h 2.82325 L 810.15234,42 H 807.7666 Z M 804.0752,38.24707 h 2.51562 l -1.25098,-4.060547 z m 5.10644,-6.453125 h 8.46289 v 1.989258 h -3.04199 V 42 h -2.37207 v -8.216797 h -3.04883 z m 14.17773,8.34668 H 819.6543 L 819.06641,42 h -2.37891 l 3.4043,-10.206055 h 2.82324 L 826.31934,42 h -2.38575 z m -3.11718,-1.893555 h 2.51562 l -1.25097,-4.060547 z m 13.74707,-6.453125 h 1.36719 l -3.24024,11.504883 h -1.36035 z m 6.90429,0 h 3.01465 l 2.0918,5.461914 2.10547,-5.461914 h 3.00781 V 42 h -2.24219 v -7.464844 l -2.1123,5.50293 h -1.50391 l -2.1123,-5.50293 V 42 h -2.24903 z m 16.73438,1.722657 q -1.08008,0 -1.68164,0.888671 -0.59473,0.888672 -0.59473,2.501954 0,1.606445 0.59473,2.495117 0.60156,0.888672 1.68164,0.888672 1.08691,0 1.68164,-0.888672 0.60156,-0.888672 0.60156,-2.495117 0,-1.613282 -0.60156,-2.501954 -0.59473,-0.888671 -1.68164,-0.888671 z m 0,-1.907227 q 2.21484,0 3.46582,1.408203 1.25781,1.408203 1.25781,3.889649 0,2.474609 -1.25781,3.882812 -1.25098,1.408203 -3.46582,1.408203 -2.20801,0 -3.46582,-1.408203 -1.25781,-1.408203 -1.25781,-3.882812 0,-2.481446 1.25781,-3.889649 1.25781,-1.408203 3.46582,-1.408203 z m 6.50781,0.18457 h 2.64551 l 3.34277,7 v -7 h 2.24219 V 42 h -2.64551 l -3.33593,-7 v 7 h -2.24903 z m 14.73828,1.722657 q -1.08007,0 -1.68164,0.888671 -0.59472,0.888672 -0.59472,2.501954 0,1.606445 0.59472,2.495117 0.60157,0.888672 1.68164,0.888672 1.08692,0 1.68164,-0.888672 0.60157,-0.888672 0.60157,-2.495117 0,-1.613282 -0.60157,-2.501954 -0.59472,-0.888671 -1.68164,-0.888671 z m 0,-1.907227 q 2.21485,0 3.46582,1.408203 1.25782,1.408203 1.25782,3.889649 0,2.474609 -1.25782,3.882812 -1.25097,1.408203 -3.46582,1.408203 -2.208,0 -3.46582,-1.408203 -1.25781,-1.408203 -1.25781,-3.882812 0,-2.481446 1.25781,-3.889649 1.25782,-1.408203 3.46582,-1.408203 z m 12.89942,0.505859 v 2.160157 q -0.75196,-0.375977 -1.47657,-0.567383 -0.71777,-0.191406 -1.36035,-0.191406 -0.84765,0 -1.25781,0.259765 -0.40332,0.259766 -0.40332,0.806641 0,0.410156 0.27344,0.642578 0.27344,0.225586 0.99804,0.389648 l 1.00489,0.225586 q 1.53808,0.341797 2.18066,1.039063 0.64258,0.697265 0.64258,1.982422 0,1.688476 -0.90234,2.515625 -0.89551,0.820312 -2.74805,0.820312 -0.875,0 -1.75684,-0.18457 -0.875,-0.18457 -1.75683,-0.546875 v -2.22168 q 0.88183,0.519531 1.70215,0.786133 0.82031,0.259766 1.58593,0.259766 0.77246,0 1.18262,-0.28711 0.41699,-0.287109 0.41699,-0.820312 0,-0.478516 -0.28027,-0.738282 -0.28027,-0.259765 -1.12109,-0.464843 l -0.91602,-0.225586 q -1.37402,-0.328125 -2.0166,-1.045899 -0.63574,-0.717773 -0.63574,-1.93457 0,-1.524414 0.88867,-2.344727 0.88867,-0.820312 2.54297,-0.820312 0.75879,0 1.55859,0.129883 0.79981,0.123047 1.6543,0.375976 z m 2.67968,-0.321289 h 3.93067 q 1.75683,0 2.69336,0.868164 0.93652,0.861328 0.93652,2.460938 0,1.606445 -0.93652,2.474609 -0.93653,0.861328 -2.69336,0.861328 H 896.8252 V 42 h -2.37208 z m 2.37208,1.907227 v 2.850586 h 1.30566 q 0.69043,0 1.06641,-0.369141 0.37597,-0.375976 0.37597,-1.05957 0,-0.683594 -0.37597,-1.052735 -0.37598,-0.36914 -1.06641,-0.36914 z m 11.14941,6.439453 h -3.70508 L 903.68164,42 h -2.37891 l 3.4043,-10.206055 h 2.82324 L 910.93457,42 h -2.38574 z m -3.11719,-1.893555 h 2.51563 l -1.25098,-4.060547 z m 14.57422,3.192383 q -0.65625,0.375977 -1.36719,0.567383 -0.7041,0.191406 -1.46972,0.191406 -2.29688,0 -3.63672,-1.421875 -1.33985,-1.428711 -1.33985,-3.86914 0,-2.447266 1.33985,-3.869141 1.33984,-1.428711 3.63672,-1.428711 0.76562,0 1.46972,0.191406 0.71094,0.191406 1.36719,0.567383 v 2.112305 q -0.66309,-0.499024 -1.30566,-0.731446 -0.63575,-0.232421 -1.33985,-0.232421 -1.27148,0 -1.99609,0.902343 -0.72461,0.902344 -0.72461,2.488282 0,1.579101 0.72461,2.481445 0.72461,0.902344 1.99609,0.902344 0.7041,0 1.33985,-0.232422 0.64257,-0.232422 1.30566,-0.731446 z m 1.95508,-9.645508 h 6.3916 v 1.989258 h -4.01953 v 1.900391 h 3.78027 v 1.989258 h -3.78027 v 2.33789 h 4.15625 V 42 h -6.52832 z"
     id="text9"
     style="font-weight:700;font-size:14px;font-family:'DejaVu Sans Condensed';letter-spacing:0;fill:#4d5dff"
     aria-label="DATA / MONOSPACE" />
  <path
     d="m 799.3252,85.499023 q -0.6504,0.37793 -1.34473,0.5625 -0.68555,0.19336 -1.40625,0.19336 -2.28516,0 -3.57715,-1.371094 -1.2832,-1.371094 -1.2832,-3.796875 0,-2.425781 1.2832,-3.796875 1.29199,-1.371094 3.57715,-1.371094 0.71191,0 1.38867,0.184571 0.67676,0.18457 1.36231,0.571289 v 1.696289 q -0.64161,-0.571289 -1.292,-0.826172 -0.6416,-0.254883 -1.45898,-0.254883 -1.52051,0 -2.33789,0.984375 -0.81738,0.984375 -0.81738,2.8125 0,1.819336 0.81738,2.8125 0.82617,0.984375 2.33789,0.984375 0.84375,0 1.51172,-0.254883 0.66797,-0.263672 1.23926,-0.808594 z m 7.68164,-4.447265 h -0.53614 q -1.41504,0 -2.13574,0.500976 -0.71191,0.492188 -0.71191,1.476563 0,0.887695 0.53613,1.379883 0.53613,0.492187 1.48535,0.492187 1.33594,0 2.10059,-0.922851 0.76465,-0.931641 0.77343,-2.566407 v -0.360351 z m 3.13769,-0.667969 V 86 h -1.62598 v -1.458984 q -0.51855,0.878906 -1.30957,1.300781 -0.78222,0.413086 -1.90722,0.413086 -1.50293,0 -2.39942,-0.84375 -0.89648,-0.852539 -0.89648,-2.276367 0,-1.643555 1.09863,-2.496094 1.10742,-0.852539 3.24317,-0.852539 h 2.17089 V 79.53125 q -0.009,-1.177734 -0.59765,-1.705078 -0.58887,-0.536133 -1.88086,-0.536133 -0.82617,0 -1.66992,0.237305 -0.84375,0.237304 -1.64356,0.694336 v -1.617188 q 0.89649,-0.342773 1.71387,-0.509765 0.82617,-0.175782 1.59961,-0.175782 1.22168,0 2.08301,0.360352 0.87011,0.360351 1.40625,1.081055 0.33398,0.439453 0.47461,1.089843 0.14062,0.641602 0.14062,1.933594 z m 10.08106,-3.884766 v 1.582032 q -0.69434,-0.404297 -1.39747,-0.606446 -0.70312,-0.202148 -1.43261,-0.202148 -1.09864,0 -1.64356,0.360351 -0.53613,0.351563 -0.53613,1.081055 0,0.65918 0.4043,0.984375 0.40429,0.325195 2.01269,0.632813 l 0.65039,0.123047 q 1.2041,0.228515 1.81934,0.914062 0.62402,0.685547 0.62402,1.78418 0,1.458984 -1.03711,2.285156 -1.03711,0.817383 -2.88281,0.817383 -0.72949,0 -1.5293,-0.158203 -0.7998,-0.149414 -1.73144,-0.457032 v -1.669921 q 0.90527,0.46582 1.73144,0.703125 0.82618,0.228515 1.56446,0.228515 1.07226,0 1.66113,-0.430664 0.58887,-0.439453 0.58887,-1.22168 0,-1.125 -2.15332,-1.555664 l -0.0703,-0.01758 -0.60644,-0.123047 q -1.39746,-0.272461 -2.03906,-0.914062 -0.64161,-0.650391 -0.64161,-1.766602 0,-1.415039 0.95801,-2.179687 0.95801,-0.773438 2.7334,-0.773438 0.79102,0 1.52051,0.149414 0.72949,0.140625 1.43262,0.430664 z m 12.05859,4.174805 v 0.791016 h -7.00488 v 0.05273 q 0,1.608399 0.83496,2.487305 0.84375,0.878906 2.37304,0.878906 0.77344,0 1.61719,-0.246094 0.84375,-0.246093 1.80176,-0.74707 v 1.608398 q -0.92285,0.37793 -1.78418,0.5625 -0.85254,0.19336 -1.65234,0.19336 -2.29395,0 -3.58594,-1.371094 -1.29199,-1.379883 -1.29199,-3.796875 0,-2.355469 1.26562,-3.761719 1.26563,-1.40625 3.375,-1.40625 1.88086,0 2.96192,1.274414 1.08984,1.274414 1.08984,3.480469 z m -1.61719,-0.474609 q -0.0352,-1.423828 -0.67676,-2.16211 -0.63281,-0.74707 -1.82812,-0.74707 -1.16895,0 -1.92481,0.773438 -0.75585,0.773437 -0.89648,2.144531 z m 13.51758,9.342773 v 0.703125 h -10.83691 v -0.703125 z m 2.25,-13.385742 h 4.13965 v 8.586914 h 3.20801 V 86 h -8.03321 v -1.256836 h 3.20801 v -7.330078 h -2.52246 z m 2.52246,-3.832031 h 1.61719 v 2.047851 h -1.61719 z m 13.60547,5.088867 v -5.088867 h 1.61719 V 86 h -1.61719 v -1.239258 q -0.4043,0.729492 -1.08105,1.116211 -0.66797,0.37793 -1.54688,0.37793 -1.78418,0 -2.8125,-1.379883 -1.01953,-1.388672 -1.01953,-3.823242 0,-2.399414 1.02832,-3.761719 1.02832,-1.371094 2.80371,-1.371094 0.8877,0 1.56445,0.386719 0.67676,0.37793 1.06348,1.107422 z m -4.75488,3.673828 q 0,1.880859 0.59765,2.838867 0.59766,0.958008 1.7666,0.958008 1.16895,0 1.7754,-0.966797 0.61523,-0.966797 0.61523,-2.830078 0,-1.87207 -0.61523,-2.830078 -0.60645,-0.966797 -1.7754,-0.966797 -1.16894,0 -1.7666,0.958008 -0.59765,0.958008 -0.59765,2.838867 z m 12.34863,-4.429687 h 2.21484 v 2.663085 h -2.21484 z m 0,6.662109 h 2.21484 V 86 h -2.21484 z m 20.6543,1.186523 h 6.02929 V 86 h -7.97168 v -1.494141 q 1.64356,-1.731445 2.87403,-3.058593 1.23047,-1.327149 1.69629,-1.872071 0.8789,-1.072265 1.18652,-1.731445 0.30762,-0.667969 0.30762,-1.362305 0,-1.098633 -0.65039,-1.722656 -0.64161,-0.624023 -1.76661,-0.624023 -0.7998,0 -1.67871,0.290039 -0.8789,0.290039 -1.86328,0.878906 v -1.792969 q 0.90528,-0.430664 1.77539,-0.65039 0.87891,-0.219727 1.73145,-0.219727 1.9248,0 3.09375,1.02832 1.17773,1.019532 1.17773,2.680664 0,0.84375 -0.3955,1.6875 -0.38672,0.84375 -1.26563,1.863282 -0.49219,0.571289 -1.43262,1.582031 -0.93164,1.010742 -2.84765,3.023437 z m 11.80371,-5.097656 q 0,-0.483398 0.33398,-0.834961 0.34278,-0.351562 0.81738,-0.351562 0.49219,0 0.84375,0.351562 0.35157,0.351563 0.35157,0.834961 0,0.492188 -0.35157,0.834961 -0.34277,0.342773 -0.84375,0.342773 -0.49218,0 -0.82617,-0.333984 -0.32519,-0.333984 -0.32519,-0.84375 z m 1.16894,-5.361328 q -1.23925,0 -1.85449,1.335937 -0.60644,1.335938 -0.60644,4.069336 0,2.72461 0.60644,4.060547 0.61524,1.335938 1.85449,1.335938 1.24805,0 1.8545,-1.335938 0.61523,-1.335937 0.61523,-4.060547 0,-2.733398 -0.61523,-4.069336 -0.60645,-1.335937 -1.8545,-1.335937 z m 0,-1.40625 q 2.10059,0 3.17285,1.722656 1.08106,1.722656 1.08106,5.088867 0,3.357422 -1.08106,5.080079 -1.07226,1.722656 -3.17285,1.722656 -2.10058,0 -3.17285,-1.722656 -1.07226,-1.722657 -1.07226,-5.080079 0,-3.366211 1.07226,-5.088867 1.07227,-1.722656 3.17285,-1.722656 z m 8.70117,11.865234 h 6.0293 V 86 h -7.97168 v -1.494141 q 1.64356,-1.731445 2.87403,-3.058593 1.23046,-1.327149 1.69628,-1.872071 0.87891,-1.072265 1.18653,-1.731445 0.30762,-0.667969 0.30762,-1.362305 0,-1.098633 -0.6504,-1.722656 -0.6416,-0.624023 -1.7666,-0.624023 -0.7998,0 -1.67871,0.290039 -0.8789,0.290039 -1.86328,0.878906 v -1.792969 q 0.90527,-0.430664 1.77539,-0.65039 0.87891,-0.219727 1.73145,-0.219727 1.9248,0 3.09375,1.02832 1.17773,1.019532 1.17773,2.680664 0,0.84375 -0.39551,1.6875 -0.38672,0.84375 -1.26562,1.863282 -0.49219,0.571289 -1.43262,1.582031 -0.93164,1.010742 -2.84766,3.023437 z m 14.01856,-10.010742 -4.13965,6.93457 h 4.13965 z m -0.29004,-1.617187 h 2.05664 v 8.551757 h 1.74902 v 1.441407 h -1.74902 V 86 h -1.7666 v -3.128906 h -5.56348 v -1.678711 z m 7.7959,7.470703 h 4.5791 v 1.441406 h -4.5791 z m 11.95312,-0.94043 q 0,-0.483398 0.33399,-0.834961 0.34277,-0.351562 0.81738,-0.351562 0.49219,0 0.84375,0.351562 0.35156,0.351563 0.35156,0.834961 0,0.492188 -0.35156,0.834961 -0.34277,0.342773 -0.84375,0.342773 -0.49219,0 -0.82617,-0.333984 -0.3252,-0.333984 -0.3252,-0.84375 z m 1.16895,-5.361328 q -1.23926,0 -1.85449,1.335937 -0.60645,1.335938 -0.60645,4.069336 0,2.72461 0.60645,4.060547 0.61523,1.335938 1.85449,1.335938 1.24805,0 1.85449,-1.335938 0.61524,-1.335937 0.61524,-4.060547 0,-2.733398 -0.61524,-4.069336 -0.60644,-1.335937 -1.85449,-1.335937 z m 0,-1.40625 q 2.10059,0 3.17285,1.722656 1.08106,1.722656 1.08106,5.088867 0,3.357422 -1.08106,5.080079 -1.07226,1.722656 -3.17285,1.722656 -2.10059,0 -3.17285,-1.722656 -1.07227,-1.722657 -1.07227,-5.080079 0,-3.366211 1.07227,-5.088867 1.07226,-1.722656 3.17285,-1.722656 z m 11.88281,1.854492 -4.13965,6.93457 h 4.13965 z m -0.29004,-1.617187 h 2.05664 v 8.551757 h 1.74903 v 1.441407 h -1.74903 V 86 h -1.7666 v -3.128906 h -5.56347 v -1.678711 z m 7.04004,11.627929 h 2.75977 v -10.02832 l -2.97071,0.667969 V 73.52832 l 2.95313,-0.65039 h 1.77539 v 11.627929 h 2.72461 V 86 h -7.24219 z m 11.74219,0 h 6.0293 V 86 h -7.97168 v -1.494141 q 1.64355,-1.731445 2.87402,-3.058593 1.23047,-1.327149 1.69629,-1.872071 0.87891,-1.072265 1.18652,-1.731445 0.30762,-0.667969 0.30762,-1.362305 0,-1.098633 -0.65039,-1.722656 -0.6416,-0.624023 -1.7666,-0.624023 -0.79981,0 -1.67871,0.290039 -0.87891,0.290039 -1.86328,0.878906 v -1.792969 q 0.90527,-0.430664 1.77539,-0.65039 0.8789,-0.219727 1.73144,-0.219727 1.92481,0 3.09375,1.02832 1.17774,1.019532 1.17774,2.680664 0,0.84375 -0.39551,1.6875 -0.38672,0.84375 -1.26563,1.863282 -0.49218,0.571289 -1.43261,1.582031 -0.93165,1.010742 -2.84766,3.023437 z"
     id="text10"
     style="font-size:18px;font-family:'DejaVu Sans Mono';letter-spacing:0;fill:#101426"
     aria-label="case_id: 2024-0412" />
  <path
     d="m 796.16992,111.05176 h -0.53613 q -1.41504,0 -2.13574,0.50097 -0.71192,0.49219 -0.71192,1.47657 0,0.88769 0.53614,1.37988 0.53613,0.49219 1.48535,0.49219 1.33593,0 2.10058,-0.92285 0.76465,-0.93164 0.77344,-2.56641 v -0.36035 z m 3.1377,-0.66797 V 116 h -1.62598 v -1.45898 q -0.51855,0.8789 -1.30957,1.30078 -0.78223,0.41308 -1.90723,0.41308 -1.50293,0 -2.39941,-0.84375 -0.89648,-0.85254 -0.89648,-2.27636 0,-1.64356 1.09863,-2.4961 1.10742,-0.85254 3.24316,-0.85254 h 2.1709 v -0.25488 q -0.009,-1.17773 -0.59766,-1.70508 -0.58886,-0.53613 -1.88086,-0.53613 -0.82617,0 -1.66992,0.2373 -0.84375,0.23731 -1.64355,0.69434 v -1.61719 q 0.89648,-0.34277 1.71387,-0.50976 0.82617,-0.17578 1.5996,-0.17578 1.22168,0 2.08301,0.36035 0.87012,0.36035 1.40625,1.08105 0.33399,0.43945 0.47461,1.08985 0.14063,0.6416 0.14063,1.93359 z m 11.68066,-2.19727 q -0.51855,-0.40429 -1.05469,-0.58886 -0.53613,-0.18457 -1.17773,-0.18457 -1.51172,0 -2.31152,0.94921 -0.79981,0.94922 -0.79981,2.74219 V 116 h -1.62598 v -9.84375 h 1.62598 v 1.9248 q 0.4043,-1.04589 1.23926,-1.5996 0.84375,-0.5625 1.99512,-0.5625 0.59765,0 1.11621,0.14941 0.51855,0.14941 0.99316,0.46582 z m 6.08203,-4.82519 v 2.79492 h 3.67383 v 1.25684 h -3.67383 v 5.34375 q 0,1.08984 0.41309,1.5205 0.41308,0.43067 1.4414,0.43067 h 1.81934 V 116 h -1.97754 q -1.81933,0 -2.5664,-0.72949 -0.74708,-0.72949 -0.74708,-2.51367 v -5.34375 h -2.62792 v -1.25684 h 2.62792 v -2.79492 z m 7.69043,2.79492 h 4.13965 v 8.58691 h 3.20801 V 116 h -8.0332 v -1.25684 h 3.208 v -7.33007 h -2.52246 z m 2.52246,-3.83203 h 1.61719 v 2.04785 h -1.61719 z m 15.40723,0 v 1.34473 h -1.83691 q -0.87012,0 -1.2129,0.36035 -0.33398,0.35156 -0.33398,1.25683 v 0.87012 h 3.38379 v 1.25684 h -3.38379 V 116 h -1.61719 v -8.58691 h -2.62793 v -1.25684 h 2.62793 v -0.68555 q 0,-1.61718 0.73828,-2.38183 0.74707,-0.76465 2.32032,-0.76465 z m 7.66406,8.72754 h -0.53613 q -1.41504,0 -2.13574,0.50097 -0.71192,0.49219 -0.71192,1.47657 0,0.88769 0.53614,1.37988 0.53613,0.49219 1.48535,0.49219 1.33593,0 2.10058,-0.92285 0.76465,-0.93164 0.77344,-2.56641 v -0.36035 z m 3.1377,-0.66797 V 116 h -1.62598 v -1.45898 q -0.51855,0.8789 -1.30957,1.30078 -0.78223,0.41308 -1.90723,0.41308 -1.50293,0 -2.39941,-0.84375 -0.89648,-0.85254 -0.89648,-2.27636 0,-1.64356 1.09863,-2.4961 1.10742,-0.85254 3.24316,-0.85254 h 2.1709 v -0.25488 q -0.009,-1.17773 -0.59766,-1.70508 -0.58886,-0.53613 -1.88085,-0.53613 -0.82618,0 -1.66993,0.2373 -0.84375,0.23731 -1.64355,0.69434 v -1.61719 q 0.89648,-0.34277 1.71387,-0.50976 0.82617,-0.17578 1.59961,-0.17578 1.22167,0 2.083,0.36035 0.87012,0.36035 1.40625,1.08105 0.33399,0.43945 0.47461,1.08985 0.14063,0.6416 0.14063,1.93359 z m 10.85449,5.11523 q -0.65039,0.37793 -1.34473,0.5625 -0.68554,0.19336 -1.40625,0.19336 -2.28515,0 -3.57715,-1.37109 -1.2832,-1.37109 -1.2832,-3.79688 0,-2.42578 1.2832,-3.79687 1.292,-1.37109 3.57715,-1.37109 0.71192,0 1.38867,0.18457 0.67676,0.18457 1.36231,0.57128 v 1.69629 q -0.6416,-0.57129 -1.29199,-0.82617 -0.6416,-0.25488 -1.45899,-0.25488 -1.5205,0 -2.33789,0.98437 -0.81738,0.98438 -0.81738,2.8125 0,1.81934 0.81738,2.8125 0.82617,0.98438 2.33789,0.98438 0.84375,0 1.51172,-0.25488 0.66797,-0.26368 1.23926,-0.8086 z m 6.9082,-12.13769 v 2.79492 h 3.67383 v 1.25684 h -3.67383 v 5.34375 q 0,1.08984 0.41309,1.5205 0.41308,0.43067 1.4414,0.43067 h 1.81934 V 116 h -1.97754 q -1.81933,0 -2.5664,-0.72949 -0.74707,-0.72949 -0.74707,-2.51367 v -5.34375 h -2.62793 v -1.25684 h 2.62793 v -2.79492 z m 9.73828,3.2959 h 2.21485 v 2.66308 h -2.21485 z m 0,6.66211 h 2.21485 V 116 h -2.21485 z m 22.77246,-9.95801 v 2.79492 h 3.67383 v 1.25684 h -3.67383 v 5.34375 q 0,1.08984 0.41309,1.5205 0.41309,0.43067 1.44141,0.43067 h 1.81933 V 116 h -1.97754 q -1.81933,0 -2.5664,-0.72949 -0.74707,-0.72949 -0.74707,-2.51367 v -5.34375 h -2.62793 v -1.25684 h 2.62793 v -2.79492 z m 10.8545,3.92871 q -1.23047,0 -1.86328,0.95801 -0.63282,0.958 -0.63282,2.83886 0,1.87207 0.63282,2.83887 0.63281,0.95801 1.86328,0.95801 1.23925,0 1.87207,-0.95801 0.63281,-0.9668 0.63281,-2.83887 0,-1.88086 -0.63281,-2.83886 -0.63282,-0.95801 -1.87207,-0.95801 z m 0,-1.37109 q 2.04785,0 3.1289,1.32714 1.08985,1.32715 1.08985,3.84082 0,2.52247 -1.08106,3.84961 -1.08105,1.31836 -3.13769,1.31836 -2.04785,0 -3.12891,-1.31836 -1.08105,-1.32714 -1.08105,-3.84961 0,-2.51367 1.08105,-3.84082 1.08106,-1.32714 3.12891,-1.32714 z m 10.83691,1.37109 q -1.23047,0 -1.86328,0.95801 -0.63281,0.958 -0.63281,2.83886 0,1.87207 0.63281,2.83887 0.63281,0.95801 1.86328,0.95801 1.23926,0 1.87207,-0.95801 0.63281,-0.9668 0.63281,-2.83887 0,-1.88086 -0.63281,-2.83886 -0.63281,-0.95801 -1.87207,-0.95801 z m 0,-1.37109 q 2.04785,0 3.12891,1.32714 1.08984,1.32715 1.08984,3.84082 0,2.52247 -1.08105,3.84961 -1.08106,1.31836 -3.1377,1.31836 -2.04785,0 -3.12891,-1.31836 -1.08105,-1.32714 -1.08105,-3.84961 0,-2.51367 1.08105,-3.84082 1.08106,-1.32714 3.12891,-1.32714 z m 11.03906,6.51269 q 0,1.08984 0.39551,1.64356 0.4043,0.55371 1.18652,0.55371 h 1.88965 V 116 h -2.04785 q -1.45019,0 -2.25,-0.93164 -0.79101,-0.93164 -0.79101,-2.63672 v -8.93848 h -2.59278 v -1.26562 h 4.20996 z m 16.05762,7.11035 v 0.70313 H 941.7168 v -0.70313 z m 9.3252,-4.04297 q -0.65039,0.37793 -1.34473,0.5625 -0.68555,0.19336 -1.40625,0.19336 -2.28516,0 -3.57715,-1.37109 -1.2832,-1.37109 -1.2832,-3.79688 0,-2.42578 1.2832,-3.79687 1.29199,-1.37109 3.57715,-1.37109 0.71191,0 1.38867,0.18457 0.67676,0.18457 1.36231,0.57128 v 1.69629 q -0.64161,-0.57129 -1.292,-0.82617 -0.6416,-0.25488 -1.45898,-0.25488 -1.52051,0 -2.33789,0.98437 -0.81738,0.98438 -0.81738,2.8125 0,1.81934 0.81738,2.8125 0.82617,0.98438 2.33789,0.98438 0.84375,0 1.51172,-0.25488 0.66797,-0.26368 1.23926,-0.8086 z m 7.68164,-4.44726 h -0.53614 q -1.41504,0 -2.13574,0.50097 -0.71191,0.49219 -0.71191,1.47657 0,0.88769 0.53613,1.37988 0.53613,0.49219 1.48535,0.49219 1.33594,0 2.10059,-0.92285 0.76465,-0.93164 0.77344,-2.56641 v -0.36035 z m 3.13769,-0.66797 V 116 h -1.62597 v -1.45898 q -0.51856,0.8789 -1.30957,1.30078 -0.78223,0.41308 -1.90723,0.41308 -1.50293,0 -2.39942,-0.84375 -0.89648,-0.85254 -0.89648,-2.27636 0,-1.64356 1.09863,-2.4961 1.10742,-0.85254 3.24317,-0.85254 h 2.1709 v -0.25488 q -0.009,-1.17773 -0.59766,-1.70508 -0.58887,-0.53613 -1.88086,-0.53613 -0.82617,0 -1.66992,0.2373 -0.84375,0.23731 -1.64356,0.69434 v -1.61719 q 0.89649,-0.34277 1.71387,-0.50976 0.82617,-0.17578 1.59961,-0.17578 1.22168,0 2.08301,0.36035 0.87011,0.36035 1.40625,1.08105 0.33398,0.43945 0.47461,1.08985 0.14062,0.6416 0.14062,1.93359 z m 7.14551,2.04785 q 0,1.08984 0.39551,1.64356 0.40429,0.55371 1.18652,0.55371 h 1.88965 V 116 h -2.04785 q -1.4502,0 -2.25,-0.93164 -0.79102,-0.93164 -0.79102,-2.63672 v -8.93848 h -2.59277 v -1.26562 h 4.20996 z m 10.83691,0 q 0,1.08984 0.39551,1.64356 0.4043,0.55371 1.18653,0.55371 h 1.88964 V 116 h -2.04785 q -1.45019,0 -2.25,-0.93164 -0.79101,-0.93164 -0.79101,-2.63672 v -8.93848 h -2.59278 v -1.26562 h 4.20996 z m 9.51854,0.8877 h 2.2149 V 116 h -2.2149 z m 16.3125,-2.64551 v 0.79101 h -7.0049 v 0.0527 q 0,1.6084 0.835,2.4873 0.8437,0.87891 2.373,0.87891 0.7735,0 1.6172,-0.24609 0.8438,-0.2461 1.8018,-0.74707 v 1.60839 q -0.9229,0.37793 -1.7842,0.5625 -0.8525,0.19336 -1.6523,0.19336 -2.294,0 -3.586,-1.37109 -1.292,-1.37988 -1.292,-3.79688 0,-2.35546 1.2657,-3.76171 1.2656,-1.40625 3.375,-1.40625 1.8808,0 2.9619,1.27441 1.0898,1.27441 1.0898,3.48047 z m -1.6172,-0.47461 q -0.035,-1.42383 -0.6767,-2.16211 -0.6328,-0.74707 -1.8282,-0.74707 -1.1689,0 -1.9248,0.77344 -0.7558,0.77343 -0.8964,2.14453 z m 12.5069,-4.04297 -3.5244,4.71094 3.8671,5.13281 h -1.872 l -2.8828,-3.94629 -2.8741,3.94629 h -1.872 l 3.8672,-5.13281 -3.5245,-4.71094 h 1.793 l 2.6104,3.55957 2.5927,-3.55957 z m 10.7841,4.51758 v 0.79101 h -7.0048 v 0.0527 q 0,1.6084 0.8349,2.4873 0.8438,0.87891 2.3731,0.87891 0.7734,0 1.6172,-0.24609 0.8437,-0.2461 1.8017,-0.74707 v 1.60839 q -0.9228,0.37793 -1.7842,0.5625 -0.8525,0.19336 -1.6523,0.19336 -2.294,0 -3.5859,-1.37109 -1.292,-1.37988 -1.292,-3.79688 0,-2.35546 1.2656,-3.76171 1.2656,-1.40625 3.375,-1.40625 1.8808,0 2.9619,1.27441 1.0898,1.27441 1.0898,3.48047 z m -1.6171,-0.47461 q -0.035,-1.42383 -0.6768,-2.16211 -0.6328,-0.74707 -1.8281,-0.74707 -1.169,0 -1.9248,0.77344 -0.7559,0.77343 -0.8965,2.14453 z"
     id="text11"
     style="font-size:18px;font-family:'DejaVu Sans Mono';letter-spacing:0;fill:#101426"
     aria-label="artifact: tool_call.exe" />
  <path
     d="m 800.15137,138.18652 q -0.51856,-0.40429 -1.05469,-0.58886 -0.53613,-0.18457 -1.17773,-0.18457 -1.51172,0 -2.31153,0.94921 -0.7998,0.94922 -0.7998,2.74219 V 146 h -1.62598 v -9.84375 h 1.62598 v 1.9248 q 0.40429,-1.04589 1.23925,-1.5996 0.84375,-0.5625 1.99512,-0.5625 0.59766,0 1.11621,0.14941 0.51856,0.14941 0.99317,0.46582 z m 10.45898,2.48731 v 0.79101 h -7.00488 v 0.0527 q 0,1.6084 0.83496,2.4873 0.84375,0.87891 2.37305,0.87891 0.77343,0 1.61718,-0.24609 0.84375,-0.2461 1.80176,-0.74708 v 1.6084 q -0.92285,0.37793 -1.78418,0.5625 -0.85254,0.19336 -1.65234,0.19336 -2.29395,0 -3.58594,-1.37109 -1.29199,-1.37988 -1.29199,-3.79688 0,-2.35546 1.26562,-3.76171 1.26563,-1.40625 3.375,-1.40625 1.88086,0 2.96192,1.27441 1.08984,1.27441 1.08984,3.48047 z m -1.61719,-0.47461 q -0.0352,-1.42383 -0.67675,-2.16211 -0.63282,-0.74707 -1.82813,-0.74707 -1.16894,0 -1.9248,0.77344 -0.75586,0.77343 -0.89649,2.14453 z m 11.23243,-3.7002 v 1.58203 q -0.69434,-0.40429 -1.39747,-0.60644 -0.70312,-0.20215 -1.43261,-0.20215 -1.09864,0 -1.64356,0.36035 -0.53613,0.35156 -0.53613,1.08106 0,0.65918 0.4043,0.98437 0.40429,0.3252 2.01269,0.63281 l 0.65039,0.12305 q 1.2041,0.22852 1.81934,0.91406 0.62402,0.68555 0.62402,1.78418 0,1.45899 -1.03711,2.28516 -1.03711,0.81738 -2.88281,0.81738 -0.72949,0 -1.5293,-0.1582 -0.7998,-0.14941 -1.73144,-0.45703 v -1.66992 q 0.90527,0.46582 1.73144,0.70312 0.82618,0.22852 1.56446,0.22852 1.07226,0 1.66113,-0.43067 0.58887,-0.43945 0.58887,-1.22168 0,-1.125 -2.15332,-1.55566 l -0.0703,-0.0176 -0.60644,-0.12305 q -1.39746,-0.27246 -2.03906,-0.91406 -0.64161,-0.65039 -0.64161,-1.7666 0,-1.41504 0.95801,-2.17969 0.95801,-0.77343 2.7334,-0.77343 0.79102,0 1.52051,0.14941 0.72949,0.14062 1.43262,0.43066 z m 3.99902,5.77442 v -6.09961 h 1.61719 v 6.09961 q 0,1.32715 0.46582,1.95117 0.47461,0.62402 1.45898,0.62402 1.14258,0 1.74902,-0.7998 0.60645,-0.8086 0.60645,-2.31153 v -5.56347 h 1.62598 V 146 h -1.62598 v -1.47656 q -0.43066,0.85254 -1.17773,1.29199 -0.73829,0.43945 -1.73145,0.43945 -1.51172,0 -2.25,-0.98437 -0.73828,-0.99317 -0.73828,-2.99707 z m 14.73926,0.1582 q 0,1.08984 0.3955,1.64356 0.4043,0.55371 1.18653,0.55371 h 1.88965 V 146 h -2.04785 q -1.4502,0 -2.25,-0.93164 -0.79102,-0.93164 -0.79102,-2.63672 v -8.93848 h -2.59277 v -1.26562 h 4.20996 z m 10.61718,-9.07031 v 2.79492 h 3.67383 v 1.25684 h -3.67383 v 5.34375 q 0,1.08984 0.41309,1.5205 0.41309,0.43067 1.44141,0.43067 h 1.81933 V 146 h -1.97754 q -1.81933,0 -2.5664,-0.72949 -0.74707,-0.72949 -0.74707,-2.51367 v -5.34375 h -2.62793 v -1.25684 h 2.62793 v -2.79492 z m 9.73829,3.2959 h 2.21484 v 2.66308 h -2.21484 z m 0,6.66211 h 2.21484 V 146 h -2.21484 z m 23.31738,-6.16114 q 0.29883,-0.63281 0.75586,-0.93164 0.46582,-0.30761 1.11621,-0.30761 1.18652,0 1.66992,0.92285 0.49219,0.91406 0.49219,3.4541 V 146 h -1.47656 v -5.63379 q 0,-2.08301 -0.23731,-2.58398 -0.22851,-0.50977 -0.84375,-0.50977 -0.70312,0 -0.9668,0.54492 -0.25488,0.53614 -0.25488,2.54883 V 146 h -1.47656 v -5.63379 q 0,-2.10937 -0.25488,-2.60156 -0.2461,-0.49219 -0.89649,-0.49219 -0.6416,0 -0.89648,0.54492 -0.2461,0.53614 -0.2461,2.54883 V 146 h -1.46777 v -9.84375 h 1.46777 V 137 q 0.29004,-0.52734 0.72071,-0.7998 0.43945,-0.28125 0.99316,-0.28125 0.66797,0 1.10742,0.30761 0.44824,0.30762 0.69434,0.93164 z m 11.06543,3.89356 h -0.53613 q -1.41504,0 -2.13575,0.50097 -0.71191,0.49219 -0.71191,1.47657 0,0.88769 0.53613,1.37988 0.53613,0.49219 1.48535,0.49219 1.33594,0 2.10059,-0.92285 0.76465,-0.93165 0.77344,-2.56641 v -0.36035 z m 3.13769,-0.66797 V 146 h -1.62597 v -1.45898 q -0.51856,0.8789 -1.30957,1.30078 -0.78223,0.41308 -1.90723,0.41308 -1.50293,0 -2.39941,-0.84375 -0.89649,-0.85254 -0.89649,-2.27636 0,-1.64356 1.09863,-2.4961 1.10743,-0.85254 3.24317,-0.85254 h 2.1709 v -0.25488 q -0.009,-1.17773 -0.59766,-1.70508 -0.58887,-0.53613 -1.88086,-0.53613 -0.82617,0 -1.66992,0.2373 -0.84375,0.23731 -1.64356,0.69434 v -1.61719 q 0.89649,-0.34277 1.71387,-0.50976 0.82617,-0.17578 1.59961,-0.17578 1.22168,0 2.08301,0.36035 0.87012,0.36035 1.40625,1.08105 0.33398,0.43945 0.47461,1.08985 0.14062,0.6416 0.14062,1.93359 z m 6.92578,-7.02246 v 2.79492 h 3.67383 v 1.25684 h -3.67383 v 5.34375 q 0,1.08984 0.41309,1.5205 0.41309,0.43067 1.44141,0.43067 h 1.81933 V 146 h -1.97754 q -1.81933,0 -2.5664,-0.72949 -0.74707,-0.72949 -0.74707,-2.51367 v -5.34375 h -2.62793 v -1.25684 h 2.62793 v -2.79492 z m 14.76563,12.13769 q -0.65039,0.37793 -1.34473,0.5625 -0.68554,0.19336 -1.40625,0.19336 -2.28515,0 -3.57715,-1.37109 -1.2832,-1.37109 -1.2832,-3.79688 0,-2.42578 1.2832,-3.79687 1.292,-1.37109 3.57715,-1.37109 0.71192,0 1.38868,0.18457 0.67675,0.18457 1.3623,0.57128 v 1.69629 q -0.6416,-0.57129 -1.29199,-0.82617 -0.6416,-0.25488 -1.45899,-0.25488 -1.5205,0 -2.33789,0.98437 -0.81738,0.98438 -0.81738,2.8125 0,1.81934 0.81738,2.8125 0.82617,0.98438 2.33789,0.98438 0.84375,0 1.51172,-0.25488 0.66797,-0.26368 1.23926,-0.8086 z m 10.74902,-5.59863 V 146 h -1.62597 v -6.09961 q 0,-1.32715 -0.46582,-1.95117 -0.46582,-0.62402 -1.45899,-0.62402 -1.13379,0 -1.74902,0.80859 -0.60645,0.7998 -0.60645,2.30273 V 146 h -1.61718 v -13.67578 h 1.61718 v 5.30859 q 0.43067,-0.84375 1.16895,-1.27441 0.73828,-0.43945 1.74902,-0.43945 1.50293,0 2.24121,0.99316 0.74707,0.98437 0.74707,2.98828 z"
     id="text12"
     style="font-size:18px;font-family:'DejaVu Sans Mono';letter-spacing:0;fill:#101426"
     aria-label="result: match" />
  <path
     d="m 790.87891,166.15625 h 1.67871 l 2.85644,8.26172 2.86524,-8.26172 h 1.67871 L 796.45996,176 h -2.08301 z m 19.73144,4.51758 v 0.79101 h -7.00488 v 0.0527 q 0,1.6084 0.83496,2.4873 0.84375,0.87891 2.37305,0.87891 0.77343,0 1.61718,-0.24609 0.84375,-0.2461 1.80176,-0.74708 v 1.6084 q -0.92285,0.37793 -1.78418,0.5625 -0.85254,0.19336 -1.65234,0.19336 -2.29395,0 -3.58594,-1.37109 -1.29199,-1.37988 -1.29199,-3.79688 0,-2.35546 1.26562,-3.76171 1.26563,-1.40625 3.375,-1.40625 1.88086,0 2.96192,1.27441 1.08984,1.27441 1.08984,3.48047 z m -1.61719,-0.47461 q -0.0352,-1.42383 -0.67675,-2.16211 -0.63282,-0.74707 -1.82813,-0.74707 -1.16894,0 -1.9248,0.77344 -0.75586,0.77343 -0.89649,2.14453 z m 12.83204,-2.0127 q -0.51856,-0.40429 -1.05469,-0.58886 -0.53614,-0.18457 -1.17774,-0.18457 -1.51172,0 -2.31152,0.94921 -0.7998,0.94922 -0.7998,2.74219 V 176 h -1.62598 v -9.84375 h 1.62598 v 1.9248 q 0.40429,-1.04589 1.23925,-1.5996 0.84375,-0.5625 1.99512,-0.5625 0.59766,0 1.11621,0.14941 0.51856,0.14941 0.99317,0.46582 z m 8.22656,-0.77343 v -5.08887 h 1.61719 V 176 h -1.61719 v -1.23926 q -0.4043,0.72949 -1.08106,1.11621 -0.66797,0.37793 -1.54687,0.37793 -1.78418,0 -2.8125,-1.37988 -1.01953,-1.38867 -1.01953,-3.82324 0,-2.39942 1.02832,-3.76172 1.02832,-1.37109 2.80371,-1.37109 0.88769,0 1.56445,0.38671 0.67676,0.37793 1.06348,1.10743 z m -4.75489,3.67382 q 0,1.88086 0.59766,2.83887 0.59766,0.95801 1.7666,0.95801 1.16895,0 1.77539,-0.9668 0.61524,-0.96679 0.61524,-2.83008 0,-1.87207 -0.61524,-2.83007 -0.60644,-0.9668 -1.77539,-0.9668 -1.16894,0 -1.7666,0.95801 -0.59766,0.958 -0.59766,2.83886 z m 10.30079,-4.93066 h 4.13964 v 8.58691 h 3.20801 V 176 h -8.0332 v -1.25684 h 3.20801 v -7.33007 h -2.52246 z m 2.52246,-3.83203 h 1.61718 v 2.04785 h -1.61718 z m 15.38965,13.1748 q -0.6504,0.37793 -1.34473,0.5625 -0.68555,0.19336 -1.40625,0.19336 -2.28516,0 -3.57715,-1.37109 -1.2832,-1.37109 -1.2832,-3.79688 0,-2.42578 1.2832,-3.79687 1.29199,-1.37109 3.57715,-1.37109 0.71191,0 1.38867,0.18457 0.67676,0.18457 1.36231,0.57128 v 1.69629 q -0.64161,-0.57129 -1.292,-0.82617 -0.6416,-0.25488 -1.45898,-0.25488 -1.52051,0 -2.33789,0.98437 -0.81738,0.98438 -0.81738,2.8125 0,1.81934 0.81738,2.8125 0.82617,0.98438 2.33789,0.98438 0.84375,0 1.51172,-0.25488 0.66797,-0.26368 1.23926,-0.8086 z m 6.9082,-12.13769 v 2.79492 h 3.67383 v 1.25684 h -3.67383 v 5.34375 q 0,1.08984 0.41308,1.5205 0.41309,0.43067 1.44141,0.43067 h 1.81934 V 176 h -1.97754 q -1.81934,0 -2.56641,-0.72949 -0.74707,-0.72949 -0.74707,-2.51367 v -5.34375 h -2.62793 v -1.25684 h 2.62793 v -2.79492 z m 9.73828,3.2959 h 2.21484 v 2.66308 h -2.21484 z m 0,6.66211 h 2.21484 V 176 h -2.21484 z m 18.25488,-7.16309 h 1.67871 l 2.85645,8.26172 2.86523,-8.26172 h 1.67871 L 893.99219,176 h -2.08301 z m 19.73145,4.51758 v 0.79101 h -7.00488 v 0.0527 q 0,1.6084 0.83496,2.4873 0.84375,0.87891 2.37304,0.87891 0.77344,0 1.61719,-0.24609 0.84375,-0.2461 1.80176,-0.74708 v 1.6084 q -0.92285,0.37793 -1.78418,0.5625 -0.85254,0.19336 -1.65235,0.19336 -2.29394,0 -3.58593,-1.37109 -1.29199,-1.37988 -1.29199,-3.79688 0,-2.35546 1.26562,-3.76171 1.26563,-1.40625 3.375,-1.40625 1.88086,0 2.96191,1.27441 1.08985,1.27441 1.08985,3.48047 z m -1.61719,-0.47461 q -0.0352,-1.42383 -0.67676,-2.16211 -0.63281,-0.74707 -1.82812,-0.74707 -1.16895,0 -1.92481,0.77344 -0.75586,0.77343 -0.89648,2.14453 z m 12.83203,-2.0127 q -0.51855,-0.40429 -1.05469,-0.58886 -0.53613,-0.18457 -1.17773,-0.18457 -1.51172,0 -2.31152,0.94921 -0.79981,0.94922 -0.79981,2.74219 V 176 h -1.62597 v -9.84375 h 1.62597 v 1.9248 q 0.4043,-1.04589 1.23926,-1.5996 0.84375,-0.5625 1.99512,-0.5625 0.59765,0 1.11621,0.14941 0.51855,0.14941 0.99316,0.46582 z m 2.93555,-2.03027 h 4.13965 v 8.58691 h 3.208 V 176 h -8.0332 v -1.25684 h 3.20801 v -7.33007 h -2.52246 z m 2.52246,-3.83203 h 1.61719 v 2.04785 h -1.61719 z m 15.40723,0 v 1.34473 h -1.83692 q -0.87012,0 -1.21289,0.36035 -0.33398,0.35156 -0.33398,1.25683 v 0.87012 h 3.38379 v 1.25684 h -3.38379 V 176 h -1.61719 v -8.58691 h -2.62793 v -1.25684 h 2.62793 v -0.68555 q 0,-1.61718 0.73828,-2.38183 0.74707,-0.76465 2.32031,-0.76465 z m 3.74414,3.83203 h 4.13965 v 8.58691 h 3.208 V 176 h -8.0332 v -1.25684 h 3.20801 v -7.33007 h -2.52246 z m 2.52246,-3.83203 h 1.61719 v 2.04785 h -1.61719 z m 15.83789,8.34961 v 0.79101 h -7.00488 v 0.0527 q 0,1.6084 0.83496,2.4873 0.84375,0.87891 2.37304,0.87891 0.77344,0 1.61719,-0.24609 0.84375,-0.2461 1.80176,-0.74708 v 1.6084 q -0.92285,0.37793 -1.78418,0.5625 -0.85254,0.19336 -1.65234,0.19336 -2.29395,0 -3.58594,-1.37109 -1.29199,-1.37988 -1.29199,-3.79688 0,-2.35546 1.26562,-3.76171 1.26563,-1.40625 3.375,-1.40625 1.88086,0 2.96191,1.27441 1.08985,1.27441 1.08985,3.48047 z m -1.61719,-0.47461 q -0.0352,-1.42383 -0.67676,-2.16211 -0.63281,-0.74707 -1.82812,-0.74707 -1.16895,0 -1.92481,0.77344 -0.75586,0.77343 -0.89648,2.14453 z m 10.22168,-2.78613 v -5.08887 h 1.61719 V 176 h -1.61719 v -1.23926 q -0.4043,0.72949 -1.08105,1.11621 -0.66797,0.37793 -1.54688,0.37793 -1.78418,0 -2.8125,-1.37988 -1.01953,-1.38867 -1.01953,-3.82324 0,-2.39942 1.02832,-3.76172 1.02832,-1.37109 2.80371,-1.37109 0.8877,0 1.56445,0.38671 0.67676,0.37793 1.06348,1.10743 z m -4.75488,3.67382 q 0,1.88086 0.59765,2.83887 0.59766,0.95801 1.76661,0.95801 1.16894,0 1.77539,-0.9668 0.61523,-0.96679 0.61523,-2.83008 0,-1.87207 -0.61523,-2.83007 -0.60645,-0.9668 -1.77539,-0.9668 -1.16895,0 -1.76661,0.95801 -0.59765,0.958 -0.59765,2.83886 z"
     id="text13"
     style="font-size:18px;font-family:'DejaVu Sans Mono';letter-spacing:0;fill:#101426"
     aria-label="verdict: verified" />
</svg>
