<?xml version="1.0" encoding="UTF-8" standalone="no"?>
<svg
   width="320"
   height="80"
   viewBox="0 0 320 80"
   fill="none"
   version="1.1"
   id="svg1"
   xmlns="http://www.w3.org/2000/svg"
   xmlns:svg="http://www.w3.org/2000/svg">
  <defs
     id="defs1" />
  <rect
     x="2"
     y="2"
     width="316"
     height="76"
     rx="38"
     fill="#DCE8FF"
     id="rect1" />
  <circle
     cx="39"
     cy="37"
     r="12"
     fill="none"
     stroke="#12131A"
     stroke-width="2.2"
     id="circle1" />
  <path
     d="M48 46 L57 55"
     stroke="#12131A"
     stroke-width="2.2"
     stroke-linecap="round"
     id="path1" />
  <path
     d="m 75.647949,49 h 3.723145 v -6.982422 h 7.434082 V 38.978027 H 79.371094 V 33.899902 H 87.61084 V 30.811523 H 75.647949 Z M 94.043945,30.811523 H 90.320801 V 49 h 3.723144 z M 97.339844,49 h 3.808596 v -8.361816 c 0,-1.074219 -0.10987,-3.027344 -0.24414,-5.22461 1.12304,2.270508 1.79443,3.601074 2.80761,5.236817 L 108.93652,49 h 4.1626 V 30.811523 h -3.80859 v 8.728028 c 0,1.196289 0.0977,3.149414 0.23193,4.93164 -0.79346,-1.892089 -1.5625,-3.271484 -2.28271,-4.455566 l -5.74952,-9.204102 h -4.150386 z m 25.451656,0 c 5.52979,0 8.86231,-3.417969 8.86231,-9.106445 0,-5.664063 -3.33252,-9.082032 -8.80127,-9.082032 h -6.45752 V 49 Z m -2.67334,-3.210449 V 34.021973 h 2.51465 c 3.47901,0 5.31006,1.80664 5.31006,5.871582 0,4.089355 -1.83105,5.895996 -5.33447,5.895996 z m 18.0542,-14.978028 h -3.72314 V 49 h 3.72314 z M 141.46826,49 h 3.8086 v -8.361816 c 0,-1.074219 -0.10987,-3.027344 -0.24415,-5.22461 1.12305,2.270508 1.79444,3.601074 2.80762,5.236817 L 153.06494,49 h 4.1626 V 30.811523 h -3.80859 v 8.728028 c 0,1.196289 0.0977,3.149414 0.23193,4.93164 -0.79346,-1.892089 -1.5625,-3.271484 -2.28272,-4.455566 l -5.74951,-9.204102 h -4.15039 z m 27.11182,0.244141 c 4.56543,0 7.84912,-2.893067 7.84912,-7.666016 v -2.270508 h -7.56836 v 2.832031 h 3.95508 c -0.061,2.331543 -1.62354,3.796387 -4.21143,3.796387 -2.91748,0 -4.79736,-2.185058 -4.79736,-6.04248 0,-3.857422 1.94092,-6.018067 4.74853,-6.018067 2.02637,0 3.39356,1.062012 3.90625,2.79541 h 3.78418 c -0.51269,-3.588867 -3.66211,-6.103515 -7.75146,-6.103515 -4.78516,0 -8.47168,3.466797 -8.47168,9.362793 0,5.749511 3.45459,9.313965 8.55713,9.313965 z"
     id="text1"
     style="font-weight:700;font-size:25px;font-family:Inter;letter-spacing:0;fill:#12131a"
     aria-label="FINDING" />
</svg>
