<?xml version="1.0" encoding="UTF-8" standalone="no"?>
<svg
   width="320"
   height="80"
   viewBox="0 0 320 80"
   fill="none"
   version="1.1"
   id="svg1"
   xmlns="http://www.w3.org/2000/svg"
   xmlns:svg="http://www.w3.org/2000/svg">
  <defs
     id="defs1" />
  <rect
     x="2"
     y="2"
     width="316"
     height="76"
     rx="38"
     fill="#B8A8FF"
     id="rect1" />
  <circle
     cx="42"
     cy="40"
     r="17"
     fill="none"
     stroke="#12131A"
     stroke-width="2"
     id="circle1" />
  <path
     d="M37 31 L51 40 L37 49 Z"
     fill="#12131A"
     id="path1" />
  <path
     d="m 75.647949,49 h 3.723145 v -6.494141 h 2.929687 L 85.767578,49 h 4.125977 l -3.869629,-7.092285 c 2.075195,-0.891113 3.222656,-2.685547 3.222656,-5.175781 0,-3.576661 -2.368164,-5.920411 -6.506348,-5.920411 h -7.092285 z m 3.723145,-9.509277 v -5.603028 h 2.67334 c 2.282714,0 3.356933,1.013184 3.356933,2.844239 0,1.818847 -1.074219,2.758789 -3.344726,2.758789 z M 92.066406,49 h 12.194824 v -3.088379 h -8.471679 v -4.577637 h 7.812499 v -3.03955 h -7.812499 v -4.394532 h 8.447269 V 30.811523 H 92.066406 Z m 15.185544,0 h 3.72315 v -5.944824 h 3.28369 c 4.18701,0 6.5918,-2.502442 6.5918,-6.103516 0,-3.57666 -2.36817,-6.140137 -6.50635,-6.140137 h -7.09229 z m 3.72315,-8.947754 v -6.164551 h 2.67334 c 2.28271,0 3.35693,1.23291 3.35693,3.063965 0,1.831055 -1.07422,3.100586 -3.34473,3.100586 z M 123.45068,49 h 11.57227 v -3.088379 h -7.84912 V 30.811523 h -3.72315 z m 13.08594,0 h 4.11377 l 1.35498,-4.223633 h 6.45752 L 149.8667,49 h 4.13818 L 147.63281,30.811523 H 142.75 Z m 6.39649,-7.141113 0.5249,-1.635742 c 0.54931,-1.831055 1.08642,-3.9917 1.69678,-6.494141 0.63476,2.478027 1.20849,4.626465 1.79443,6.494141 l 0.54932,1.635742 z M 159.97412,49 h 3.71094 v -6.835938 l 6.62842,-11.352539 h -4.34571 l -2.97851,5.664063 c -0.42725,0.817871 -0.78125,1.574707 -1.13526,2.539062 -0.36621,-0.952148 -0.72021,-1.708984 -1.18408,-2.539062 l -3.07617,-5.664063 h -4.35791 l 6.73828,11.352539 z"
     id="text1"
     style="font-weight:700;font-size:25px;font-family:Inter;letter-spacing:0;fill:#12131a"
     aria-label="REPLAY" />
</svg>
