<?xml version="1.0" encoding="UTF-8" standalone="no"?>
<svg
   width="620"
   height="280"
   viewBox="0 0 620 280"
   fill="none"
   version="1.1"
   id="svg11"
   xmlns="http://www.w3.org/2000/svg"
   xmlns:svg="http://www.w3.org/2000/svg">
  <defs
     id="defs11" />
  <rect
     width="620"
     height="280"
     rx="20"
     fill="#101426"
     id="rect1" />
  <g
     transform="translate(28 42) scale(1.15)"
     id="g7">
    <path
       d="M17 18 L31 12 L63 91 L50 103 Z"
       fill="#4D5DFF"
       id="path1" />
    <path
       d="M103 18 L89 12 L57 91 L70 103 Z"
       fill="#B8A8FF"
       id="path2" />
    <circle
       cx="24"
       cy="18"
       r="14"
       fill="#4D5DFF"
       id="circle2" />
    <circle
       cx="24"
       cy="18"
       r="7"
       fill="#FFFFFF"
       id="circle3" />
    <circle
       cx="96"
       cy="18"
       r="14"
       fill="#B8A8FF"
       id="circle4" />
    <circle
       cx="96"
       cy="18"
       r="7"
       fill="#FFFFFF"
       id="circle5" />
    <circle
       cx="60"
       cy="96"
       r="15"
       fill="#101426"
       id="circle6" />
    <circle
       cx="60"
       cy="96"
       r="10"
       fill="#F5F1E8"
       id="circle7" />
    <rect
       x="56"
       y="108"
       width="8"
       height="28"
       rx="4"
       fill="#F5F1E8"
       id="rect7" />
  </g>
  <path
     d="m 192.41699,100 h 8.39356 c 5.06836,0 7.36816,-2.53418 7.36816,-5.888672 0,-3.354492 -2.3584,-5.258789 -4.54101,-5.375976 v -0.219727 c 2.02148,-0.498047 3.6914,-1.889648 3.6914,-4.614258 0,-3.222656 -2.24121,-5.727539 -6.87012,-5.727539 h -8.04199 z m 3.33985,-2.871094 v -6.928711 h 4.84863 c 2.60742,0 4.26269,1.684571 4.26269,3.75 0,1.816407 -1.25976,3.178711 -4.39453,3.178711 z m 0,-9.506836 v -6.591797 h 4.46777 c 2.59277,0 3.82324,1.362305 3.82324,3.149414 0,2.094727 -1.69922,3.442383 -3.91113,3.442383 z m 21.69433,12.58301 c 2.25586,0 4.01367,-1.010744 5.03906,-3.383791 L 222.50488,100 h 3.09082 V 83.623047 h -3.2373 v 9.697265 c 0,2.592774 -1.62598,4.072266 -3.8086,4.072266 -2.13867,0 -3.45703,-1.40625 -3.45703,-3.764648 V 83.623047 h -3.22265 v 10.40039 c 0,4.042969 2.24121,6.181643 5.58105,6.181643 z M 229.91699,100 h 3.22266 V 83.623047 h -3.22266 z m 1.62598,-18.881836 c 1.11328,0 2.03613,-0.849609 2.03613,-1.904297 0,-1.069336 -0.92285,-1.918945 -2.03613,-1.918945 -1.11328,0 -2.03613,0.849609 -2.03613,1.918945 0,1.054688 0.92285,1.904297 2.03613,1.904297 z m 9.15527,-2.944336 h -3.22265 V 100 h 3.22265 z m 11.77735,5.449219 h -3.26661 v -3.896485 h -3.22265 v 3.896485 h -2.3877 v 2.62207 h 2.3877 v 9.594727 c 0,2.783203 1.71387,4.379886 4.6875,4.379886 0.74707,0 1.56738,-0.10254 2.25586,-0.336918 l -0.57129,-2.578125 c -0.39551,0.08789 -1.02539,0.175782 -1.36231,0.175782 -1.27441,0 -1.78711,-0.585938 -1.78711,-1.904297 v -9.331055 h 3.26661 z m 19.32128,0 h -3.6621 V 82.1875 c 0,-1.435547 0.62988,-2.226563 2.16796,-2.226563 0.67383,0 1.12793,0.146485 1.43555,0.234375 l 0.74707,-2.607421 c -0.43945,-0.161133 -1.40625,-0.439454 -2.69531,-0.439454 -2.59277,0 -4.87793,1.538086 -4.87793,4.59961 v 1.875 h -3.10547 v 2.62207 h 3.10547 V 100 h 3.22266 V 86.245117 h 3.6621 z m 9.34571,16.713863 c 4.61426,0 7.66113,-3.383785 7.66113,-8.437496 0,-5.097656 -3.04687,-8.481445 -7.66113,-8.481445 -4.61426,0 -7.64649,3.383789 -7.64649,8.481445 0,5.053711 3.03223,8.437496 7.64649,8.437496 z m 0,-2.724605 c -2.95899,0 -4.36524,-2.607422 -4.36524,-5.712891 0,-3.149414 1.40625,-5.756836 4.36524,-5.756836 2.98828,0 4.39453,2.62207 4.39453,5.756836 0,3.105469 -1.40625,5.712891 -4.39453,5.712891 z M 292.37793,100 h 3.22266 v -9.946289 c 0,-2.15332 1.64062,-3.676758 3.89648,-3.676758 0.67383,0 1.4502,0.117188 1.68457,0.175781 v -3.076172 c -0.33691,-0.04395 -0.95215,-0.08789 -1.3623,-0.08789 -1.91895,0 -3.54493,1.083984 -4.14551,2.871094 h -0.17578 v -2.636719 h -3.12012 z m 27.71484,-16.376953 h -3.66211 V 82.1875 c 0,-1.435547 0.62989,-2.226563 2.16797,-2.226563 0.67383,0 1.12793,0.146485 1.43555,0.234375 l 0.74707,-2.607421 c -0.43945,-0.161133 -1.40625,-0.439454 -2.69531,-0.439454 -2.59278,0 -4.87793,1.538086 -4.87793,4.59961 v 1.875 h -3.10547 v 2.62207 h 3.10547 V 100 h 3.22265 V 86.245117 h 3.66211 z m 9.34571,16.713863 c 4.61425,0 7.66113,-3.383785 7.66113,-8.437496 0,-5.097656 -3.04688,-8.481445 -7.66113,-8.481445 -4.61426,0 -7.64649,3.383789 -7.64649,8.481445 0,5.053711 3.03223,8.437496 7.64649,8.437496 z m 0,-2.724605 c -2.95899,0 -4.36524,-2.607422 -4.36524,-5.712891 0,-3.149414 1.40625,-5.756836 4.36524,-5.756836 2.98828,0 4.39453,2.62207 4.39453,5.756836 0,3.105469 -1.40625,5.712891 -4.39453,5.712891 z M 340.67383,100 h 3.22265 v -9.946289 c 0,-2.15332 1.64063,-3.676758 3.89649,-3.676758 0.67383,0 1.45019,0.117188 1.68457,0.175781 v -3.076172 c -0.33692,-0.04395 -0.95215,-0.08789 -1.36231,-0.08789 -1.91894,0 -3.54492,1.083984 -4.1455,2.871094 h -0.17578 v -2.636719 h -3.12012 z m 18.09082,0.33691 c 3.50097,0 6.00586,-1.713863 6.78222,-4.262691 l -3.03222,-0.717774 c -0.57129,1.523438 -1.91895,2.314453 -3.7207,2.314453 -2.68067,0 -4.49708,-1.713867 -4.61426,-4.877929 h 11.61621 v -1.142578 c 0,-5.903321 -3.57422,-8.232422 -7.30957,-8.232422 -4.58496,0 -7.54395,3.471679 -7.54395,8.510742 0,5.083008 2.98828,8.408199 7.82227,8.408199 z m -4.57031,-9.946285 c 0.17578,-2.358398 1.72851,-4.306641 4.30664,-4.306641 2.47558,0 3.86718,1.728516 4.10156,4.306641 z m 18.35449,-0.08789 c 0,-2.592773 1.61133,-4.072265 3.80859,-4.072265 2.13867,0 3.45703,1.40625 3.45703,3.764648 V 100 h 3.22266 V 89.599609 c 0,-4.042968 -2.22656,-6.18164 -5.56641,-6.18164 -2.31445,0 -4.02832,1.040039 -5.05371,3.354492 l -0.0147,-3.149414 h -3.07617 V 100 h 3.22266 z m 20.69824,10.034176 c 3.99902,0 6.75293,-2.109371 6.75293,-5.097652 0,-2.270508 -1.43555,-3.735352 -4.46777,-4.423828 l -2.63672,-0.585938 c -1.80176,-0.410156 -2.53418,-1.054687 -2.53418,-2.138672 0,-1.230468 1.34765,-2.124023 3.12012,-2.124023 1.93359,0 2.85644,1.02539 3.28125,2.167969 l 2.88574,-0.629883 c -0.70313,-2.431641 -2.65137,-4.086914 -6.19629,-4.086914 -3.70606,0 -6.34278,1.948242 -6.34278,4.877929 0,2.34375 1.46485,3.837891 4.51172,4.526368 l 2.75391,0.629882 c 1.55273,0.351563 2.2998,1.025391 2.2998,2.06543 0,1.21582 -1.31835,2.211914 -3.39843,2.211914 -1.9043,0 -3.14942,-0.791015 -3.60352,-2.504883 l -3.03223,0.629883 c 0.58594,2.900391 3.04688,4.482418 6.60645,4.482418 z M 403.53027,100 h 3.22266 V 83.623047 h -3.22266 z m 1.62598,-18.881836 c 1.11328,0 2.03613,-0.849609 2.03613,-1.904297 0,-1.069336 -0.92285,-1.918945 -2.03613,-1.918945 -1.11328,0 -2.03613,0.849609 -2.03613,1.918945 0,1.054688 0.92285,1.904297 2.03613,1.904297 z m 12.81738,19.218746 c 3.44239,0 6.1084,-1.860348 6.89942,-4.951168 l -3.04688,-0.732422 c -0.43945,1.772461 -1.80176,2.958985 -3.83789,2.958985 -2.95898,0 -4.37988,-2.592774 -4.37988,-5.712891 0,-3.164062 1.4209,-5.756836 4.37988,-5.756836 2.00684,0 3.33984,1.157227 3.7793,2.841797 l 3.06152,-0.732422 c -0.80566,-3.032226 -3.45703,-4.833984 -6.85547,-4.833984 -4.61426,0 -7.64648,3.383789 -7.64648,8.481445 0,5.053711 3.03222,8.437496 7.64648,8.437496 z"
     id="text7"
     style="font-weight:500;font-size:30px;font-family:Inter;letter-spacing:0;fill:#f5f1e8"
     aria-label="Built for forensic" />
  <path
     d="m 192.16797,142 h 3.22265 v -9.94629 c 0,-2.15332 1.64063,-3.67676 3.89649,-3.67676 0.67383,0 1.45019,0.11719 1.68457,0.17578 v -3.07617 c -0.33691,-0.0439 -0.95215,-0.0879 -1.36231,-0.0879 -1.91894,0 -3.54492,1.08399 -4.1455,2.8711 h -0.17578 v -2.63672 h -3.12012 z m 18.09082,0.33691 c 3.50098,0 6.00586,-1.71386 6.78223,-4.26269 l -3.03223,-0.71777 c -0.57129,1.52343 -1.91895,2.31445 -3.7207,2.31445 -2.68067,0 -4.49707,-1.71387 -4.61426,-4.87793 h 11.61621 v -1.14258 c 0,-5.90332 -3.57422,-8.23242 -7.30957,-8.23242 -4.58496,0 -7.54395,3.47168 -7.54395,8.51074 0,5.08301 2.98828,8.4082 7.82227,8.4082 z m -4.57031,-9.94629 c 0.17578,-2.35839 1.72851,-4.30664 4.30664,-4.30664 2.47558,0 3.86718,1.72852 4.10156,4.30664 z m 21.00586,9.94629 c 3.99902,0 6.75293,-2.10937 6.75293,-5.09765 0,-2.27051 -1.43555,-3.73535 -4.46778,-4.42383 l -2.63672,-0.58594 c -1.80175,-0.41015 -2.53418,-1.05469 -2.53418,-2.13867 0,-1.23047 1.34766,-2.12402 3.12012,-2.12402 1.93359,0 2.85645,1.02539 3.28125,2.16797 l 2.88574,-0.62989 c -0.70312,-2.43164 -2.65136,-4.08691 -6.19629,-4.08691 -3.70605,0 -6.34277,1.94824 -6.34277,4.87793 0,2.34375 1.46484,3.83789 4.51172,4.52637 l 2.75391,0.62988 c 1.55273,0.35156 2.2998,1.02539 2.2998,2.06543 0,1.21582 -1.31836,2.21191 -3.39844,2.21191 -1.90429,0 -3.14941,-0.79101 -3.60351,-2.50488 l -3.03223,0.62988 c 0.58594,2.90039 3.04688,4.48242 6.60645,4.48242 z m 17.34375,0 c 3.50097,0 6.00586,-1.71386 6.78222,-4.26269 l -3.03222,-0.71777 c -0.57129,1.52343 -1.91895,2.31445 -3.72071,2.31445 -2.68066,0 -4.49707,-1.71387 -4.61426,-4.87793 h 11.61622 v -1.14258 c 0,-5.90332 -3.57422,-8.23242 -7.30957,-8.23242 -4.58497,0 -7.54395,3.47168 -7.54395,8.51074 0,5.08301 2.98828,8.4082 7.82227,8.4082 z m -4.57032,-9.94629 c 0.17578,-2.35839 1.72852,-4.30664 4.30664,-4.30664 2.47559,0 3.86719,1.72852 4.10157,4.30664 z m 20.00977,9.97559 c 2.65137,0 4.2041,-1.33301 4.83398,-2.60742 h 0.16114 V 142 h 3.12011 v -10.86914 c 0,-4.73145 -3.76465,-5.71289 -6.40136,-5.71289 -2.91504,0 -5.66895,1.14258 -6.78223,4.07226 l 3.03223,0.79102 c 0.4541,-1.11328 1.65527,-2.24121 3.79394,-2.24121 2.05078,0 3.13477,1.05469 3.13477,2.87109 v 0.0879 c 0,1.15723 -1.24512,1.14258 -4.13086,1.4795 -3.09082,0.35156 -6.29883,1.17187 -6.29883,4.89257 0,3.22266 2.41699,4.99512 5.53711,4.99512 z m 0.71777,-2.59277 c -1.80176,0 -3.09082,-0.80567 -3.09082,-2.3584 0,-1.68457 1.49414,-2.29981 3.31055,-2.54883 0.99609,-0.13184 3.48633,-0.39551 3.96973,-0.86426 v 2.09473 c 0,1.91894 -1.56739,3.67676 -4.18946,3.67676 z M 271.92871,142 h 3.22266 v -9.94629 c 0,-2.15332 1.64062,-3.67676 3.89648,-3.67676 0.67383,0 1.4502,0.11719 1.68457,0.17578 v -3.07617 c -0.33691,-0.0439 -0.95215,-0.0879 -1.3623,-0.0879 -1.91895,0 -3.54492,1.08399 -4.14551,2.8711 h -0.17578 v -2.63672 h -3.12012 z m 17.91504,0.33691 c 3.44238,0 6.1084,-1.86035 6.89941,-4.95117 l -3.04687,-0.73242 c -0.43945,1.77246 -1.80176,2.95898 -3.83789,2.95898 -2.95899,0 -4.37988,-2.59277 -4.37988,-5.71289 0,-3.16406 1.42089,-5.75683 4.37988,-5.75683 2.00683,0 3.33984,1.15722 3.7793,2.84179 l 3.06152,-0.73242 c -0.80567,-3.03222 -3.45703,-4.83398 -6.85547,-4.83398 -4.61426,0 -7.64648,3.38379 -7.64648,8.48144 0,5.05371 3.03222,8.4375 7.64648,8.4375 z m 13.65234,-10.03418 c 0,-2.59277 1.61133,-4.07226 3.8086,-4.07226 2.13867,0 3.45703,1.40625 3.45703,3.76465 V 142 h 3.2373 v -10.40039 c 0,-4.04297 -2.24121,-6.18164 -5.58105,-6.18164 -2.24121,0 -3.92578,0.98144 -4.95117,3.14941 v -8.39355 h -3.19336 V 142 h 3.22265 z m 21.88477,10.03418 c 3.50098,0 6.00586,-1.71386 6.78223,-4.26269 l -3.03223,-0.71777 c -0.57129,1.52343 -1.91895,2.31445 -3.7207,2.31445 -2.68067,0 -4.49707,-1.71387 -4.61426,-4.87793 h 11.61621 v -1.14258 c 0,-5.90332 -3.57422,-8.23242 -7.30957,-8.23242 -4.58496,0 -7.54395,3.47168 -7.54395,8.51074 0,5.08301 2.98828,8.4082 7.82227,8.4082 z m -4.57031,-9.94629 c 0.17578,-2.35839 1.72851,-4.30664 4.30664,-4.30664 2.47558,0 3.86718,1.72852 4.10156,4.30664 z M 335.94238,142 h 3.22266 v -9.94629 c 0,-2.15332 1.64062,-3.67676 3.89648,-3.67676 0.67383,0 1.4502,0.11719 1.68457,0.17578 v -3.07617 c -0.33691,-0.0439 -0.95214,-0.0879 -1.3623,-0.0879 -1.91895,0 -3.54492,1.08399 -4.14551,2.8711 h -0.17578 v -2.63672 h -3.12012 z m 17.47559,0.33691 c 3.99902,0 6.75293,-2.10937 6.75293,-5.09765 0,-2.27051 -1.43555,-3.73535 -4.46778,-4.42383 l -2.63671,-0.58594 c -1.80176,-0.41015 -2.53418,-1.05469 -2.53418,-2.13867 0,-1.23047 1.34765,-2.12402 3.12011,-2.12402 1.9336,0 2.85645,1.02539 3.28125,2.16797 l 2.88575,-0.62989 c -0.70313,-2.43164 -2.65137,-4.08691 -6.19629,-4.08691 -3.70606,0 -6.34278,1.94824 -6.34278,4.87793 0,2.34375 1.46485,3.83789 4.51172,4.52637 l 2.75391,0.62988 c 1.55273,0.35156 2.2998,1.02539 2.2998,2.06543 0,1.21582 -1.31836,2.21191 -3.39843,2.21191 -1.9043,0 -3.14942,-0.79101 -3.60352,-2.50488 l -3.03223,0.62988 c 0.58594,2.90039 3.04688,4.48242 6.60645,4.48242 z m 22.86621,0.0293 c 2.65137,0 4.2041,-1.33301 4.83398,-2.60742 h 0.16114 V 142 h 3.12011 v -10.86914 c 0,-4.73145 -3.76464,-5.71289 -6.40136,-5.71289 -2.91504,0 -5.66895,1.14258 -6.78223,4.07226 l 3.03223,0.79102 c 0.4541,-1.11328 1.65527,-2.24121 3.79394,-2.24121 2.05078,0 3.13477,1.05469 3.13477,2.87109 v 0.0879 c 0,1.15723 -1.24512,1.14258 -4.13086,1.4795 -3.09082,0.35156 -6.29883,1.17187 -6.29883,4.89257 0,3.22266 2.41699,4.99512 5.53711,4.99512 z m 0.71777,-2.59277 c -1.80175,0 -3.09082,-0.80567 -3.09082,-2.3584 0,-1.68457 1.49414,-2.29981 3.31055,-2.54883 0.99609,-0.13184 3.48633,-0.39551 3.96973,-0.86426 v 2.09473 c 0,1.91894 -1.56739,3.67676 -4.18946,3.67676 z m 14.95606,-7.47071 c 0,-2.59277 1.61133,-4.07226 3.80859,-4.07226 2.13867,0 3.45703,1.40625 3.45703,3.76465 V 142 h 3.22266 v -10.40039 c 0,-4.04297 -2.22656,-6.18164 -5.56641,-6.18164 -2.31445,0 -4.02832,1.04004 -5.05371,3.35449 l -0.0147,-3.14941 h -3.07617 V 142 h 3.22266 z m 20.91797,10.01954 c 2.95898,0 4.1455,-1.84571 4.71679,-2.88575 h 0.26368 V 142 h 3.13476 v -21.82617 h -3.22266 v 8.11523 h -0.17578 c -0.55664,-1.01074 -1.66992,-2.87109 -4.71679,-2.87109 -3.94043,0 -6.85547,3.10547 -6.85547,8.4375 0,5.28808 2.87109,8.4668 6.85547,8.4668 z m 0.70312,-2.73926 c -2.79785,0 -4.26269,-2.50489 -4.26269,-5.75684 0,-3.22265 1.42089,-5.66894 4.26269,-5.66894 2.76856,0 4.24805,2.2705 4.24805,5.66894 0,3.41309 -1.50879,5.75684 -4.24805,5.75684 z"
     id="text8"
     style="font-weight:500;font-size:30px;font-family:Inter;letter-spacing:0;fill:#f5f1e8"
     aria-label="researchers and" />
  <path
     d="m 192.16797,184 h 3.22265 v -16.37695 h -3.22265 z m 1.62598,-18.88184 c 1.11328,0 2.03613,-0.84961 2.03613,-1.90429 0,-1.06934 -0.92285,-1.91895 -2.03613,-1.91895 -1.11329,0 -2.03614,0.84961 -2.03614,1.91895 0,1.05468 0.92285,1.90429 2.03614,1.90429 z m 9.15527,9.18457 c 0,-2.59277 1.61133,-4.07226 3.80859,-4.07226 2.13867,0 3.45703,1.40625 3.45703,3.76465 V 184 h 3.22266 v -10.40039 c 0,-4.04297 -2.22656,-6.18164 -5.56641,-6.18164 -2.31445,0 -4.02832,1.04004 -5.05371,3.35449 l -0.0147,-3.14941 h -3.07617 V 184 h 3.22266 z m 21.70898,10.03418 c 3.44239,0 6.1084,-1.86035 6.89942,-4.95117 l -3.04688,-0.73242 c -0.43945,1.77246 -1.80176,2.95898 -3.83789,2.95898 -2.95898,0 -4.37988,-2.59277 -4.37988,-5.71289 0,-3.16406 1.4209,-5.75683 4.37988,-5.75683 2.00684,0 3.33985,1.15722 3.7793,2.84179 l 3.06152,-0.73242 c -0.80566,-3.03222 -3.45703,-4.83398 -6.85547,-4.83398 -4.61425,0 -7.64648,3.38379 -7.64648,8.48144 0,5.05371 3.03223,8.4375 7.64648,8.4375 z M 235.08789,184 h 3.22266 v -16.37695 h -3.22266 z m 1.62598,-18.88184 c 1.11328,0 2.03613,-0.84961 2.03613,-1.90429 0,-1.06934 -0.92285,-1.91895 -2.03613,-1.91895 -1.11328,0 -2.03614,0.84961 -2.03614,1.91895 0,1.05468 0.92286,1.90429 2.03614,1.90429 z m 12.02636,19.20411 c 2.95899,0 4.14551,-1.84571 4.7168,-2.88575 h 0.26367 V 184 h 3.13477 v -21.82617 h -3.22266 v 8.11523 h -0.17578 c -0.55664,-1.01074 -1.66992,-2.87109 -4.7168,-2.87109 -3.94043,0 -6.85546,3.10547 -6.85546,8.4375 0,5.28808 2.87109,8.4668 6.85546,8.4668 z m 0.70313,-2.73926 c -2.79785,0 -4.2627,-2.50489 -4.2627,-5.75684 0,-3.22265 1.4209,-5.66894 4.2627,-5.66894 2.76855,0 4.24805,2.2705 4.24805,5.66894 0,3.41309 -1.50879,5.75684 -4.24805,5.75684 z m 18.80859,2.7539 c 3.50098,0 6.00586,-1.71386 6.78223,-4.26269 l -3.03223,-0.71777 c -0.57129,1.52343 -1.91894,2.31445 -3.7207,2.31445 -2.68066,0 -4.49707,-1.71387 -4.61426,-4.87793 h 11.61621 v -1.14258 c 0,-5.90332 -3.57422,-8.23242 -7.30957,-8.23242 -4.58496,0 -7.54394,3.47168 -7.54394,8.51074 0,5.08301 2.98828,8.4082 7.82226,8.4082 z m -4.57031,-9.94629 c 0.17578,-2.35839 1.72852,-4.30664 4.30664,-4.30664 2.47559,0 3.86719,1.72852 4.10156,4.30664 z m 18.35449,-0.0879 c 0,-2.59277 1.61133,-4.07226 3.8086,-4.07226 2.13867,0 3.45703,1.40625 3.45703,3.76465 V 184 h 3.22265 v -10.40039 c 0,-4.04297 -2.22656,-6.18164 -5.5664,-6.18164 -2.31446,0 -4.02832,1.04004 -5.05371,3.35449 l -0.0146,-3.14941 h -3.07617 V 184 h 3.22265 z m 21.82617,-6.67968 h -3.2666 v -3.89649 h -3.22265 v 3.89649 h -2.3877 v 2.62207 h 2.3877 v 9.59472 c 0,2.78321 1.71386,4.37989 4.6875,4.37989 0.74707,0 1.56738,-0.10254 2.25586,-0.33692 l -0.57129,-2.57812 c -0.39551,0.0879 -1.02539,0.17578 -1.36231,0.17578 -1.27441,0 -1.78711,-0.58594 -1.78711,-1.9043 v -9.33105 h 3.2666 z M 315.06836,184 h 3.22266 v -9.94629 c 0,-2.15332 1.64062,-3.67676 3.89648,-3.67676 0.67383,0 1.4502,0.11719 1.68457,0.17578 v -3.07617 c -0.33691,-0.0439 -0.95215,-0.0879 -1.3623,-0.0879 -1.91895,0 -3.54493,1.08399 -4.14551,2.8711 h -0.17578 v -2.63672 h -3.12012 z m 18.09082,0.33691 c 3.50098,0 6.00586,-1.71386 6.78223,-4.26269 l -3.03223,-0.71777 c -0.57129,1.52343 -1.91895,2.31445 -3.7207,2.31445 -2.68067,0 -4.49707,-1.71387 -4.61426,-4.87793 h 11.61621 v -1.14258 c 0,-5.90332 -3.57422,-8.23242 -7.30957,-8.23242 -4.58496,0 -7.54395,3.47168 -7.54395,8.51074 0,5.08301 2.98829,8.4082 7.82227,8.4082 z m -4.57031,-9.94629 c 0.17578,-2.35839 1.72851,-4.30664 4.30664,-4.30664 2.47558,0 3.86719,1.72852 4.10156,4.30664 z m 21.00586,9.94629 c 3.99902,0 6.75293,-2.10937 6.75293,-5.09765 0,-2.27051 -1.43555,-3.73535 -4.46778,-4.42383 l -2.63672,-0.58594 c -1.80175,-0.41015 -2.53418,-1.05469 -2.53418,-2.13867 0,-1.23047 1.34766,-2.12402 3.12012,-2.12402 1.9336,0 2.85645,1.02539 3.28125,2.16797 l 2.88574,-0.62989 c -0.70312,-2.43164 -2.65136,-4.08691 -6.19629,-4.08691 -3.70605,0 -6.34277,1.94824 -6.34277,4.87793 0,2.34375 1.46484,3.83789 4.51172,4.52637 l 2.75391,0.62988 c 1.55273,0.35156 2.2998,1.02539 2.2998,2.06543 0,1.21582 -1.31836,2.21191 -3.39844,2.21191 -1.90429,0 -3.14941,-0.79101 -3.60351,-2.50488 l -3.03223,0.62988 c 0.58594,2.90039 3.04688,4.48242 6.60645,4.48242 z m 10.2832,5.78614 h 3.22266 v -8.68653 h 0.17578 c 0.57129,1.04004 1.75781,2.88575 4.73144,2.88575 3.98438,0 6.84082,-3.17872 6.84082,-8.4668 0,-5.33203 -2.91504,-8.4375 -6.84082,-8.4375 -3.06152,0 -4.16015,1.86035 -4.73144,2.87109 h -0.26367 v -2.66601 h -3.13477 z m 7.41211,-8.54004 c -2.72461,0 -4.24805,-2.34375 -4.24805,-5.75684 0,-3.39844 1.47949,-5.66894 4.24805,-5.66894 2.8418,0 4.26269,2.44629 4.26269,5.66894 0,3.25195 -1.46484,5.75684 -4.26269,5.75684 z m 18.01758,2.7539 c 4.61425,0 7.66113,-3.38379 7.66113,-8.4375 0,-5.09765 -3.04688,-8.48144 -7.66113,-8.48144 -4.61426,0 -7.64649,3.38379 -7.64649,8.48144 0,5.05371 3.03223,8.4375 7.64649,8.4375 z m 0,-2.72461 c -2.95899,0 -4.36524,-2.60742 -4.36524,-5.71289 0,-3.14941 1.40625,-5.75683 4.36524,-5.75683 2.98828,0 4.39453,2.62207 4.39453,5.75683 0,3.10547 -1.40625,5.71289 -4.39453,5.71289 z m 14.458,-7.30957 c 0,-2.59277 1.61133,-4.07226 3.8086,-4.07226 2.13867,0 3.45703,1.40625 3.45703,3.76465 V 184 h 3.22266 v -10.40039 c 0,-4.04297 -2.22657,-6.18164 -5.56641,-6.18164 -2.31445,0 -4.02832,1.04004 -5.05371,3.35449 l -0.0146,-3.14941 h -3.07617 V 184 h 3.22265 z m 20.91797,10.01954 c 2.95899,0 4.14551,-1.84571 4.7168,-2.88575 h 0.26367 V 184 h 3.13477 v -21.82617 h -3.22266 v 8.11523 h -0.17578 c -0.55664,-1.01074 -1.66992,-2.87109 -4.7168,-2.87109 -3.94043,0 -6.85547,3.10547 -6.85547,8.4375 0,5.28808 2.8711,8.4668 6.85547,8.4668 z m 0.70313,-2.73926 c -2.79785,0 -4.2627,-2.50489 -4.2627,-5.75684 0,-3.22265 1.4209,-5.66894 4.2627,-5.66894 2.76855,0 4.24805,2.2705 4.24805,5.66894 0,3.41309 -1.50879,5.75684 -4.24805,5.75684 z m 18.80859,2.7539 c 3.50098,0 6.00586,-1.71386 6.78223,-4.26269 l -3.03223,-0.71777 c -0.57129,1.52343 -1.91894,2.31445 -3.7207,2.31445 -2.68066,0 -4.49707,-1.71387 -4.61426,-4.87793 h 11.61621 v -1.14258 c 0,-5.90332 -3.57422,-8.23242 -7.30957,-8.23242 -4.58496,0 -7.54394,3.47168 -7.54394,8.51074 0,5.08301 2.98828,8.4082 7.82226,8.4082 z m -4.57031,-9.94629 c 0.17578,-2.35839 1.72852,-4.30664 4.30664,-4.30664 2.47559,0 3.86719,1.72852 4.10156,4.30664 z M 450.75684,184 h 3.22265 v -9.94629 c 0,-2.15332 1.64063,-3.67676 3.89649,-3.67676 0.67382,0 1.45019,0.11719 1.68457,0.17578 v -3.07617 c -0.33692,-0.0439 -0.95215,-0.0879 -1.36231,-0.0879 -1.91894,0 -3.54492,1.08399 -4.14551,2.8711 h -0.17578 v -2.63672 h -3.12011 z m 17.47558,0.33691 c 3.99903,0 6.75293,-2.10937 6.75293,-5.09765 0,-2.27051 -1.43555,-3.73535 -4.46777,-4.42383 l -2.63672,-0.58594 c -1.80176,-0.41015 -2.53418,-1.05469 -2.53418,-2.13867 0,-1.23047 1.34766,-2.12402 3.12012,-2.12402 1.93359,0 2.85644,1.02539 3.28125,2.16797 l 2.88574,-0.62989 c -0.70313,-2.43164 -2.65137,-4.08691 -6.19629,-4.08691 -3.70605,0 -6.34277,1.94824 -6.34277,4.87793 0,2.34375 1.46484,3.83789 4.51172,4.52637 l 2.7539,0.62988 c 1.55274,0.35156 2.29981,1.02539 2.29981,2.06543 0,1.21582 -1.31836,2.21191 -3.39844,2.21191 -1.9043,0 -3.14942,-0.79101 -3.60352,-2.50488 l -3.03222,0.62988 c 0.58593,2.90039 3.04687,4.48242 6.60644,4.48242 z"
     id="text9"
     style="font-weight:500;font-size:30px;font-family:Inter;letter-spacing:0;fill:#f5f1e8"
     aria-label="incident responders" />
  <path
     d="m 195.75684,226 h 3.2373 l 2.02148,-7.0459 c 0.4834,-1.68457 0.95215,-3.6914 1.4209,-5.6543 0.4541,1.9629 0.90821,3.94043 1.40625,5.6543 L 205.86426,226 h 3.2373 l 4.93653,-16.37695 h -3.42774 l -1.80176,6.78222 c -0.46875,1.81641 -0.98144,3.88184 -1.47949,6.35743 -0.49805,-2.49024 -1.02539,-4.57032 -1.47949,-6.35743 l -1.78711,-6.78222 h -3.22266 l -1.80175,6.78222 c -0.4834,1.83106 -1.01075,3.92578 -1.50879,6.38672 -0.49805,-2.54883 -1.04004,-4.6289 -1.49414,-6.38672 l -1.80176,-6.78222 h -3.39844 z m 24.50683,-9.69727 c 0,-2.59277 1.61133,-4.07226 3.8086,-4.07226 2.13867,0 3.45703,1.40625 3.45703,3.76465 V 226 h 3.2373 v -10.40039 c 0,-4.04297 -2.24121,-6.18164 -5.58105,-6.18164 -2.24121,0 -3.92578,0.98144 -4.95118,3.14941 v -8.39355 h -3.19335 V 226 h 3.22265 z m 21.70899,10.03418 c 4.61425,0 7.66113,-3.38379 7.66113,-8.4375 0,-5.09765 -3.04688,-8.48144 -7.66113,-8.48144 -4.61426,0 -7.64649,3.38379 -7.64649,8.48144 0,5.05371 3.03223,8.4375 7.64649,8.4375 z m 0,-2.72461 c -2.95899,0 -4.36524,-2.60742 -4.36524,-5.71289 0,-3.14941 1.40625,-5.75683 4.36524,-5.75683 2.98828,0 4.39453,2.62207 4.39453,5.75683 0,3.10547 -1.40625,5.71289 -4.39453,5.71289 z M 265.89355,226 h 3.51563 l 6.18164,-16.37695 h -3.45703 l -3.23731,9.30175 c -0.49804,1.4502 -0.84961,2.88575 -1.21582,4.32129 -0.36621,-1.43554 -0.74707,-2.87109 -1.24511,-4.32129 l -3.23731,-9.30175 h -3.48633 z m 16.94825,0.36621 c 2.65136,0 4.2041,-1.33301 4.83398,-2.60742 h 0.16113 V 226 h 3.12012 v -10.86914 c 0,-4.73145 -3.76465,-5.71289 -6.40137,-5.71289 -2.91504,0 -5.66894,1.14258 -6.78222,4.07226 l 3.03222,0.79102 c 0.45411,-1.11328 1.65528,-2.24121 3.79395,-2.24121 2.05078,0 3.13476,1.05469 3.13476,2.87109 v 0.0879 c 0,1.15723 -1.24511,1.14258 -4.13085,1.4795 -3.09082,0.35156 -6.29883,1.17187 -6.29883,4.89257 0,3.22266 2.41699,4.99512 5.53711,4.99512 z m 0.71777,-2.59277 c -1.80176,0 -3.09082,-0.80567 -3.09082,-2.3584 0,-1.68457 1.49414,-2.29981 3.31055,-2.54883 0.99609,-0.13184 3.48632,-0.39551 3.96972,-0.86426 v 2.09473 c 0,1.91894 -1.56738,3.67676 -4.18945,3.67676 z m 14.95605,-19.59961 h -3.22265 V 226 h 3.22265 z m 9.917,22.03125 c 2.25586,0 4.01367,-1.01074 5.03906,-3.38379 L 313.48633,226 h 3.09082 v -16.37695 h -3.23731 v 9.69726 c 0,2.59278 -1.62597,4.07227 -3.80859,4.07227 -2.13867,0 -3.45703,-1.40625 -3.45703,-3.76465 v -10.00488 h -3.22266 v 10.40039 c 0,4.04297 2.24121,6.18164 5.58106,6.18164 z m 19.52636,0.13183 c 3.50098,0 6.00586,-1.71386 6.78223,-4.26269 l -3.03223,-0.71777 c -0.57128,1.52343 -1.91894,2.31445 -3.7207,2.31445 -2.68066,0 -4.49707,-1.71387 -4.61426,-4.87793 h 11.61621 v -1.14258 c 0,-5.90332 -3.57421,-8.23242 -7.30957,-8.23242 -4.58496,0 -7.54394,3.47168 -7.54394,8.51074 0,5.08301 2.98828,8.4082 7.82226,8.4082 z m -4.57031,-9.94629 c 0.17578,-2.35839 1.72852,-4.30664 4.30664,-4.30664 2.47559,0 3.86719,1.72852 4.10156,4.30664 z m 23.12988,15.73243 h 3.22266 v -8.68653 h 0.17578 c 0.57129,1.04004 1.75781,2.88575 4.73145,2.88575 3.98437,0 6.84082,-3.17872 6.84082,-8.4668 0,-5.33203 -2.91504,-8.4375 -6.84082,-8.4375 -3.06153,0 -4.16016,1.86035 -4.73145,2.87109 h -0.26367 v -2.66601 h -3.13477 z m 7.41211,-8.54004 c -2.72461,0 -4.24804,-2.34375 -4.24804,-5.75684 0,-3.39844 1.47949,-5.66894 4.24804,-5.66894 2.8418,0 4.2627,2.44629 4.2627,5.66894 0,3.25195 -1.46484,5.75684 -4.2627,5.75684 z M 365.06348,226 h 3.22265 v -9.94629 c 0,-2.15332 1.64063,-3.67676 3.89649,-3.67676 0.67383,0 1.45019,0.11719 1.68457,0.17578 v -3.07617 c -0.33692,-0.0439 -0.95215,-0.0879 -1.36231,-0.0879 -1.91894,0 -3.54492,1.08399 -4.14551,2.8711 h -0.17578 v -2.63672 h -3.12011 z m 17.91504,0.33691 c 4.61425,0 7.66113,-3.38379 7.66113,-8.4375 0,-5.09765 -3.04688,-8.48144 -7.66113,-8.48144 -4.61426,0 -7.64649,3.38379 -7.64649,8.48144 0,5.05371 3.03223,8.4375 7.64649,8.4375 z m 0,-2.72461 c -2.95899,0 -4.36524,-2.60742 -4.36524,-5.71289 0,-3.14941 1.40625,-5.75683 4.36524,-5.75683 2.98828,0 4.39453,2.62207 4.39453,5.75683 0,3.10547 -1.40625,5.71289 -4.39453,5.71289 z m 18.12011,2.72461 c 4.61426,0 7.66114,-3.38379 7.66114,-8.4375 0,-5.09765 -3.04688,-8.48144 -7.66114,-8.48144 -4.61426,0 -7.64648,3.38379 -7.64648,8.48144 0,5.05371 3.03222,8.4375 7.64648,8.4375 z m 0,-2.72461 c -2.95898,0 -4.36523,-2.60742 -4.36523,-5.71289 0,-3.14941 1.40625,-5.75683 4.36523,-5.75683 2.98828,0 4.39453,2.62207 4.39453,5.75683 0,3.10547 -1.40625,5.71289 -4.39453,5.71289 z m 19.35059,-13.98925 h -3.66211 v -1.43555 c 0,-1.43555 0.62988,-2.22656 2.16797,-2.22656 0.67383,0 1.12793,0.14648 1.43554,0.23437 l 0.74708,-2.60742 c -0.43946,-0.16113 -1.40625,-0.43945 -2.69532,-0.43945 -2.59277,0 -4.87793,1.53808 -4.87793,4.59961 v 1.875 h -3.10547 v 2.62207 h 3.10547 V 226 h 3.22266 v -13.75488 h 3.66211 z m 1.23047,21.81152 h 2.34375 l 2.41699,-8.56934 h -3.47168 z"
     id="text10"
     style="font-weight:500;font-size:30px;font-family:Inter;letter-spacing:0;fill:#f5f1e8"
     aria-label="who value proof," />
  <path
     d="m 196.26953,250.52246 c 0,-2.16797 1.30371,-3.42773 3.17871,-3.42773 1.84571,0 2.95899,1.21582 2.95899,3.25195 V 260 h 4.39453 v -10.41504 c 0,-3.83789 -2.22656,-6.16699 -5.625,-6.16699 -2.51953,0 -4.17481,1.30371 -5.09766,3.58887 l -0.0586,-3.38379 H 191.875 V 260 h 4.39453 z m 21.60645,9.79981 c 4.92187,0 8.01269,-3.39844 8.01269,-8.4375 0,-5.06836 -3.09082,-8.4668 -8.01269,-8.4668 -4.93653,0 -8.0127,3.39844 -8.0127,8.4668 0,5.03906 3.07617,8.4375 8.0127,8.4375 z m 0,-3.45704 c -2.34375,0 -3.53028,-2.13867 -3.53028,-4.99511 0,-2.90039 1.18653,-4.99512 3.53028,-4.99512 2.34375,0 3.54492,2.10937 3.54492,4.99512 0,2.85644 -1.20117,4.99511 -3.54492,4.99511 z m 19.2041,-13.24218 h -3.06153 v -3.89649 h -4.39453 v 3.89649 h -2.25586 v 3.35449 h 2.25586 v 8.61328 c 0,3.00293 1.78711,4.64355 5.06836,4.64355 0.87891,0 1.86035,-0.10253 2.8418,-0.3955 l -0.62988,-3.2959 c -0.32227,0.0879 -1.05469,0.19043 -1.3916,0.19043 -1.06934,0 -1.49415,-0.4834 -1.49415,-1.52344 v -8.23242 h 3.06153 z m 9.96094,22.5 h 4.39453 v -8.74512 h 0.13183 c 0.61524,1.31836 1.96289,2.90039 4.64356,2.90039 3.77929,0 6.66504,-2.98828 6.66504,-8.4375 0,-5.5957 -3.00293,-8.42285 -6.63575,-8.42285 -2.7832,0 -4.07226,1.65527 -4.67285,2.95898 h -0.20508 v -2.7539 h -4.32128 z m 7.82226,-9.375 c -2.24121,0 -3.53027,-1.96289 -3.53027,-4.92188 0,-2.97363 1.27441,-4.89258 3.53027,-4.89258 2.29981,0 3.51563,2.02149 3.51563,4.89258 0,2.88574 -1.23047,4.92188 -3.51563,4.92188 z M 265.95215,260 h 4.39453 v -9.31641 c 0,-2.03613 1.47949,-3.42773 3.50098,-3.42773 0.64453,0 1.50879,0.10254 1.90429,0.21973 v -3.92579 c -0.3955,-0.0879 -0.96679,-0.14648 -1.4209,-0.14648 -1.8457,0 -3.35449,1.05469 -3.95507,3.07617 h -0.17578 v -2.85644 h -4.24805 z m 18.88183,0.32227 c 3.8086,0 6.41602,-1.77247 7.22168,-4.49707 l -3.98437,-0.74708 c -0.46875,1.25977 -1.62598,1.9336 -3.16406,1.9336 -2.21192,0 -3.70606,-1.37695 -3.8086,-4.05762 h 11.20606 v -1.23047 c 0,-5.5957 -3.41309,-8.30566 -7.69043,-8.30566 -4.79004,0 -7.86621,3.42773 -7.86621,8.48144 0,5.1709 3.07617,8.42286 8.08593,8.42286 z m -3.70605,-10.12207 c 0.17578,-2.02149 1.43555,-3.47168 3.53027,-3.47168 2.03614,0 3.19336,1.333 3.41309,3.47168 z m 20.1709,10.07812 c 2.66601,0 4.02832,-1.58203 4.6289,-2.90039 h 0.21973 V 260 h 4.32129 v -21.82617 h -4.39453 v 8.20312 h -0.14649 c -0.58593,-1.30371 -1.875,-2.95898 -4.6582,-2.95898 -3.63281,0 -6.65039,2.82715 -6.65039,8.42285 0,5.44922 2.90039,8.4375 6.67969,8.4375 z m 1.34765,-3.53027 c -2.28515,0 -3.51562,-2.03614 -3.51562,-4.92188 0,-2.87109 1.20117,-4.89258 3.51562,-4.89258 2.25586,0 3.51563,1.91895 3.51563,4.89258 0,2.95899 -1.27441,4.92188 -3.51563,4.92188 z M 314.21875,260 h 4.39453 v -16.37695 h -4.39453 z m 2.19727,-18.51563 c 1.31835,0 2.41699,-0.99609 2.41699,-2.25585 0,-1.24512 -1.09864,-2.25586 -2.41699,-2.25586 -1.33301,0 -2.417,1.01074 -2.417,2.25586 0,1.25976 1.08399,2.25585 2.417,2.25585 z m 13.25683,18.8379 c 3.92578,0 6.69434,-2.12403 7.30957,-5.56641 l -4.08691,-0.74707 c -0.35156,1.77246 -1.47949,2.85644 -3.17871,2.85644 -2.34375,0 -3.57422,-2.06543 -3.57422,-4.99511 0,-2.95899 1.23047,-4.99512 3.57422,-4.99512 1.69922,0 2.7832,1.05469 3.14941,2.75391 l 4.08691,-0.76172 c -0.61523,-3.36914 -3.39843,-5.44922 -7.28027,-5.44922 -4.93652,0 -8.01269,3.39844 -8.01269,8.4668 0,5.03906 3.07617,8.4375 8.01269,8.4375 z m 18.45703,-16.69922 h -3.06152 v -3.89649 h -4.39453 v 3.89649 h -2.25586 v 3.35449 h 2.25586 v 8.61328 c 0,3.00293 1.78711,4.64355 5.06836,4.64355 0.8789,0 1.86035,-0.10253 2.84179,-0.3955 l -0.62988,-3.2959 c -0.32226,0.0879 -1.05469,0.19043 -1.3916,0.19043 -1.06934,0 -1.49414,-0.4834 -1.49414,-1.52344 v -8.23242 h 3.06152 z M 350.98633,260 h 4.39453 v -16.37695 h -4.39453 z m 2.19726,-18.51563 c 1.31836,0 2.417,-0.99609 2.417,-2.25585 0,-1.24512 -1.09864,-2.25586 -2.417,-2.25586 -1.333,0 -2.41699,1.01074 -2.41699,2.25586 0,1.25976 1.08399,2.25585 2.41699,2.25585 z m 13.25684,18.8379 c 4.92187,0 8.01269,-3.39844 8.01269,-8.4375 0,-5.06836 -3.09082,-8.4668 -8.01269,-8.4668 -4.93652,0 -8.0127,3.39844 -8.0127,8.4668 0,5.03906 3.07618,8.4375 8.0127,8.4375 z m 0,-3.45704 c -2.34375,0 -3.53027,-2.13867 -3.53027,-4.99511 0,-2.90039 1.18652,-4.99512 3.53027,-4.99512 2.34375,0 3.54492,2.10937 3.54492,4.99512 0,2.85644 -1.20117,4.99511 -3.54492,4.99511 z m 15.46875,-6.34277 c 0,-2.16797 1.30371,-3.42773 3.17871,-3.42773 1.8457,0 2.95898,1.21582 2.95898,3.25195 V 260 h 4.39454 v -10.41504 c 0,-3.83789 -2.22657,-6.16699 -5.625,-6.16699 -2.51954,0 -4.17481,1.30371 -5.09766,3.58887 l -0.0586,-3.38379 h -4.14551 V 260 h 4.39453 z m 20.78613,9.79981 c 4.29199,0 7.32422,-2.15332 7.32422,-5.37598 0,-2.3291 -1.52344,-3.7793 -4.6875,-4.42383 l -2.94433,-0.58594 c -1.55274,-0.32226 -2.10938,-0.89355 -2.10938,-1.71386 0,-0.98145 1.11328,-1.65528 2.54883,-1.65528 1.59668,0 2.51953,0.79102 2.87109,1.9043 l 3.89649,-0.68848 c -0.61524,-2.66601 -2.94434,-4.36523 -6.82618,-4.36523 -4.1455,0 -6.88476,1.93359 -6.88476,5.08301 0,2.44629 1.55273,3.99902 4.7168,4.64355 l 2.82714,0.58594 c 1.43555,0.29297 2.10938,0.82031 2.10938,1.68457 0,0.98144 -1.04004,1.68457 -2.70996,1.68457 -1.80176,0 -2.85645,-0.74707 -3.28125,-2.28516 l -4.08692,0.70313 c 0.57129,3.04687 3.28125,4.80469 7.23633,4.80469 z m 13.43262,-0.0439 c 1.43555,0 2.53418,-1.09863 2.53418,-2.51953 0,-1.4209 -1.09863,-2.51953 -2.53418,-2.51953 -1.43555,0 -2.53418,1.09863 -2.53418,2.51953 0,1.4209 1.09863,2.51953 2.53418,2.51953 z"
     id="text11"
     style="font-weight:700;font-size:30px;font-family:Inter;letter-spacing:0;fill:#b8a8ff"
     aria-label="not predictions." />
</svg>
