<?xml version="1.0" encoding="UTF-8" standalone="no"?>
<svg
   width="480"
   height="390"
   viewBox="0 0 480 390"
   fill="none"
   version="1.1"
   id="svg8"
   xmlns="http://www.w3.org/2000/svg"
   xmlns:svg="http://www.w3.org/2000/svg">
  <defs
     id="defs8" />
  <g
     transform="translate(147 24) scale(1.55)"
     id="g7">
    <path
       d="M17 18 L31 12 L63 91 L50 103 Z"
       fill="#4D5DFF"
       id="path1" />
    <path
       d="M103 18 L89 12 L57 91 L70 103 Z"
       fill="#B8A8FF"
       id="path2" />
    <circle
       cx="24"
       cy="18"
       r="14"
       fill="#4D5DFF"
       id="circle2" />
    <circle
       cx="24"
       cy="18"
       r="7"
       fill="#F5F1E8"
       id="circle3" />
    <circle
       cx="96"
       cy="18"
       r="14"
       fill="#B8A8FF"
       id="circle4" />
    <circle
       cx="96"
       cy="18"
       r="7"
       fill="#F5F1E8"
       id="circle5" />
    <circle
       cx="60"
       cy="96"
       r="15"
       fill="#F5F1E8"
       id="circle6" />
    <circle
       cx="60"
       cy="96"
       r="10"
       fill="#101426"
       id="circle7" />
    <rect
       x="56"
       y="108"
       width="8"
       height="28"
       rx="4"
       fill="#101426"
       id="rect7" />
  </g>
  <path
     d="m 114.74619,292 h 14.28906 l 15.07618,-45.10742 h -11.86719 l -6.02442,19.70801 c -1.51367,5.14648 -2.87597,10.62597 -4.26855,16.65039 -1.45313,-5.99414 -2.87598,-11.53418 -4.41992,-16.65039 l -6.2666,-19.70801 H 99.246191 Z m 35.49981,0 h 31.27246 v -8.71875 h -20.58594 v -9.80859 h 18.98145 v -8.53711 h -18.98145 v -9.32422 h 20.61621 v -8.71875 H 150.246 Z m 39.01152,0 h 10.68652 v -15.53027 h 5.8125 L 214.02119,292 h 11.71582 l -9.41504,-17.22559 c 4.99512,-2.24023 7.84082,-6.66015 7.84082,-12.89648 0,-9.20313 -6.2666,-14.98535 -16.43847,-14.98535 h -18.4668 z m 10.68652,-23.97656 v -12.47266 h 5.50977 c 5.02539,0 7.62891,2.11914 7.62891,6.32715 0,4.20801 -2.60352,6.14551 -7.59864,6.14551 z M 248.09815,292 c 13.71387,0 22.19043,-8.47656 22.19043,-22.55371 0,-14.07715 -8.47656,-22.55371 -22.19043,-22.55371 H 231.50831 V 292 Z m -5.90332,-9.14258 v -26.82226 h 5.29785 c 7.90137,0 12.10938,3.63281 12.10938,13.41113 0,9.77832 -4.20801,13.41113 -11.95801,13.41113 z m 46.00468,-35.96484 H 277.51299 V 292 h 10.68652 z m 28.53692,45.71289 c 12.26074,0 19.13281,-8.47656 19.95019,-16.5293 H 325.879 c -0.75683,4.38965 -4.08691,7.14453 -8.93066,7.14453 -6.47852,0 -10.62598,-4.69238 -10.62598,-13.74414 0,-8.74902 4.05664,-13.80469 10.68653,-13.80469 4.84375,0 8.14355,2.75489 8.83984,7.14454 h 10.80762 c -1.24121,-10.50489 -9.20313,-16.5293 -19.91992,-16.5293 -12.01856,0 -21.34278,8.29492 -21.34278,23.18945 0,14.80371 9.14258,23.12891 21.34278,23.12891 z m 25.47929,-36.99414 h 13.65332 V 292 h 10.65625 v -36.38867 h 13.65332 v -8.71875 h -37.96289 z"
     id="text7"
     style="font-weight:800;font-size:62px;font-family:Inter;letter-spacing:1.2;text-anchor:middle;fill:#101426"
     aria-label="VERDICT" />
  <path
     d="m 199.76941,340.35999 c 5.21127,0 8.2368,-3.2326 8.2368,-8.59342 0,-5.32631 -3.02553,-8.5474 -8.07574,-8.5474 h -5.74045 v 17.14082 z m -2.9565,-2.30079 v -12.53925 h 2.945 c 3.73877,0 5.67143,2.22025 5.67143,6.24662 0,4.06088 -1.93266,6.29263 -5.80948,6.29263 z m 28.66102,2.30079 h 2.62289 v -7.13243 h 7.27046 v -2.24326 h -7.27046 v -5.51037 h 8.04123 v -2.25476 h -10.66412 z m 30.78923,-17.14082 h -2.62289 v 17.14082 h 2.62289 z m 18.07743,17.14082 h 2.62289 v -6.4767 h 3.49718 c 0.046,0 0.10354,0 0.14956,0 l 3.47417,6.4767 h 2.97952 l -3.77328,-6.92536 c 2.0822,-0.78226 3.12906,-2.53086 3.12906,-4.83164 0,-3.16357 -1.96717,-5.38382 -5.93602,-5.38382 h -6.14308 z m 2.62289,-8.71997 v -6.17759 h 3.22109 c 2.53086,0 3.57772,1.20791 3.57772,3.14056 0,1.92116 -1.04686,3.03703 -3.55471,3.03703 z"
     id="text8"
     style="font-weight:500;font-size:23.56px;font-family:Inter;letter-spacing:4;text-anchor:middle;fill:#4d5dff"
     aria-label="D F I R" />
</svg>
