<?xml version="1.0" encoding="UTF-8" standalone="no"?>
<svg
   width="720"
   height="190"
   viewBox="0 0 720 190"
   fill="none"
   version="1.1"
   id="svg2"
   xmlns="http://www.w3.org/2000/svg"
   xmlns:svg="http://www.w3.org/2000/svg">
  <defs
     id="defs2" />
  <path
     d="m 175.88145,92 h 21.20312 l 22.37109,-66.933594 h -17.60937 l -8.93945,29.244141 c -2.2461,7.636719 -4.26758,15.767578 -6.33399,24.707031 -2.15625,-8.894531 -4.26758,-17.115234 -6.55859,-24.707031 l -9.29883,-29.244141 h -17.83398 z m 52.09648,0 h 46.40429 V 79.0625 H 243.83535 V 64.507812 h 28.16601 V 51.839844 H 243.83535 V 38.003906 h 30.5918 v -12.9375 h -46.44922 z m 57.30742,0 h 15.85742 V 68.955078 h 8.625 L 322.03144,92 H 339.4162 L 325.4455,66.439453 c 7.41211,-3.324219 11.63477,-9.882812 11.63477,-19.136719 0,-13.65625 -9.29883,-22.236328 -24.39258,-22.236328 H 285.28535 Z M 301.14277,56.421875 V 37.914062 h 8.17578 c 7.45703,0 11.32031,3.144532 11.32031,9.388672 0,6.244141 -3.86328,9.119141 -11.27539,9.119141 z M 372.01661,92 c 20.34961,0 32.92773,-12.578125 32.92773,-33.466797 0,-20.888672 -12.57812,-33.466797 -32.92773,-33.466797 H 347.39942 V 92 Z M 363.25684,78.433594 V 38.632812 h 7.86133 c 11.72461,0 17.96875,5.390625 17.96875,19.900391 0,14.509766 -6.24414,19.900391 -17.74414,19.900391 z M 430.9412,25.066406 H 415.08378 V 92 h 15.85742 z m 41.76446,67.832031 c 18.19336,0 28.39063,-12.578125 29.60352,-24.527343 h -16.03711 c -1.12305,6.513672 -6.06445,10.601562 -13.25195,10.601562 -9.61328,0 -15.76758,-6.96289 -15.76758,-20.394531 0,-12.982422 6.01953,-20.484375 15.85742,-20.484375 7.1875,0 12.08399,4.087891 13.11719,10.601562 h 16.03711 c -1.8418,-15.58789 -13.65625,-24.527343 -29.5586,-24.527343 -17.83398,0 -31.66992,12.308593 -31.66992,34.410156 0,21.966797 13.56641,34.320312 31.66992,34.320312 z m 37.22736,-54.894531 h 20.25977 V 92 h 15.8125 V 38.003906 h 20.25976 v -12.9375 h -56.33203 z"
     id="text1"
     style="font-weight:800;font-size:92px;font-family:Inter;letter-spacing:1.2;text-anchor:middle;fill:#101426"
     aria-label="VERDICT" />
  <path
     d="m 306.10945,163.75999 c 7.73286,0 12.22235,-4.79675 12.22235,-12.75152 0,-7.90355 -4.48949,-12.68324 -11.98336,-12.68324 h -8.51809 v 25.43476 z m -4.38707,-3.41406 v -18.60664 h 4.37 c 5.54786,0 8.41567,3.29457 8.41567,9.26918 0,6.02582 -2.86781,9.33746 -8.62051,9.33746 z m 38.65828,3.41406 h 3.89204 V 153.1764 h 10.78843 v -3.32871 H 344.2727 v -8.17668 h 11.93214 v -3.34578 h -15.82418 z m 41.8163,-25.43476 h -3.89204 v 25.43476 h 3.89204 z m 22.95358,25.43476 h 3.89203 v -9.61058 h 5.18938 c 0.0683,0 0.15363,0 0.22191,0 l 5.15524,9.61058 h 4.42121 l -5.59906,-10.27632 c 3.08972,-1.16078 4.64312,-3.75547 4.64312,-7.16953 0,-4.69434 -2.91902,-7.98891 -8.80828,-7.98891 h -9.11555 z m 3.89203,-12.93929 v -9.16676 h 4.77969 c 3.75547,0 5.30887,1.79238 5.30887,4.6602 0,2.85074 -1.5534,4.50656 -5.27473,4.50656 z"
     id="text2"
     style="font-weight:500;font-size:34.96px;font-family:Inter;letter-spacing:4;text-anchor:middle;fill:#4d5dff"
     aria-label="D F I R" />
</svg>
