<?xml version="1.0" encoding="UTF-8" standalone="no"?>
<svg
   width="340"
   height="270"
   viewBox="0 0 340 270"
   fill="none"
   version="1.1"
   id="svg3"
   xmlns="http://www.w3.org/2000/svg"
   xmlns:svg="http://www.w3.org/2000/svg">
  <defs
     id="defs3" />
  <path
     d="M8 16 L26 8 L50 13 L76 7 L100 14 L128 8 L156 13 L184 7 L214 13 L242 8 L270 14 L300 9 L326 16 L330 48 L324 76 L331 104 L325 132 L330 162 L324 192 L330 220 L322 252 L298 258 L270 253 L242 260 L214 254 L184 260 L156 254 L128 260 L100 254 L72 260 L44 254 L16 260 L8 234 L14 204 L8 176 L14 146 L8 118 L14 88 L8 58 Z"
     fill="#F5F1E8"
     stroke="#D8D2C6"
     stroke-width="2"
     id="path1" />
  <rect
     x="135"
     y="2"
     width="76"
     height="22"
     rx="2"
     fill="#B8A8FF"
     opacity="0.92"
     transform="rotate(-3 173.0 13)"
     id="rect1" />
  <path
     d="M 38.774,82 H 53.86 c 1.216,0 2.28,-1.102 2.28,-2.318 0,-0.874 -0.57,-1.482 -1.482,-1.482 H 41.434 l 1.558,-7.334 h 11.552 c 1.216,0 2.28,-1.102 2.28,-2.318 0,-0.874 -0.57,-1.444 -1.482,-1.444 H 43.79 l 1.444,-6.764 h 13.3 c 1.178,0 2.318,-1.14 2.318,-2.318 0,-0.874 -0.608,-1.482 -1.52,-1.482 H 44.17 c -1.064,0 -2.052,0.836 -2.28,1.9 L 37.254,80.252 C 37.064,81.202 37.71,82 38.774,82 Z m 25.726026,0.266 c 0.95,0 1.52,-0.418 1.976,-1.14 l 9.386,-15.314 c 0.114,-0.19 0.418,-0.646 0.418,-1.178 0,-0.76 -0.532,-1.406 -1.482,-1.406 -0.798,0 -1.558,0.456 -1.976,1.14 l -6.954,11.438 -2.052,-11.324 c -0.152,-0.76 -0.57,-1.216 -1.444,-1.216 -1.102,0 -2.318,0.95 -2.318,2.09 0,0.38 0.114,0.722 0.19,1.14 l 2.85,14.516 c 0.152,0.798 0.57,1.254 1.406,1.254 z M 81.866048,61.67 c 0.988,0 1.938,-0.76 2.204,-1.786 l 0.38,-1.444 c 0.228,-0.912 -0.456,-1.824 -1.406,-1.824 -0.912,0 -1.976,0.798 -2.204,1.786 l -0.342,1.406 c -0.266,1.102 0.418,1.862 1.368,1.862 z m -4.522,20.558 c 0.988,0 2.014,-0.836 2.242,-1.862 l 3.382,-15.124 c 0.228,-1.064 -0.38,-1.862 -1.444,-1.862 -0.988,0 -2.052,0.836 -2.28,1.862 l -3.382,15.124 c -0.228,1.026 0.456,1.862 1.482,1.862 z M 90.378049,82.19 c 2.09,0 4.218,-1.102 5.624,-2.546 l -0.19,0.76 c -0.228,1.026 0.304,1.824 1.406,1.824 1.026,0 1.976,-0.76 2.242,-1.748 l 5.206001,-22.116 c 0.228,-0.874 -0.228,-1.938 -1.368,-1.938 -1.026,0 -2.014,0.836 -2.28,1.862 l -1.520001,6.156 c -0.76,-0.532 -1.976,-1.14 -3.8,-1.14 -6.27,0 -10.602,6.574 -10.602,12.806 0,3.99 2.28,6.08 5.282,6.08 z m 1.026,-3.42 c -1.596,0 -2.584,-1.064 -2.584,-3.23 0,-4.028 2.28,-8.816 6.384,-8.816 1.406,0 2.812,0.608 3.534,1.178 l -1.634,6.992 c -0.418,1.786 -2.926,3.876 -5.7,3.876 z m 21.432011,3.458 c 2.356,0 5.244,-1.254 6.802,-2.66 0.646,-0.57 0.874,-1.026 0.874,-1.71 0,-0.76 -0.57,-1.292 -1.444,-1.292 -0.494,0 -0.988,0.266 -1.406,0.608 -1.026,0.874 -2.432,1.634 -4.37,1.634 -1.9,0 -3.876,-0.836 -4.104,-2.47 l 11.438,-5.852 c 1.064,-0.57 1.558,-1.254 1.558,-2.318 0,-1.9 -1.634,-4.902 -6.156,-4.902 -5.776,0 -10.868,5.89 -10.868,11.818 0,4.522 3.078,7.144 7.676,7.144 z m -4.028,-9.044 c 0.076,-1.254 0.874,-3.116 2.242,-4.484 1.254,-1.254 2.698,-2.09 4.522,-2.09 1.482,0 2.546,0.57 2.926,1.672 z m 16.34002,9.044 c 1.14,0 1.976,-0.836 2.166,-1.9 l 0.684,-3.192 c 0.608,-2.812 1.406,-4.56 2.964,-6.612 1.824,-2.356 3.686,-3.724 5.206,-3.724 1.748,0 2.242,1.292 0.95,7.334 -0.646,3.002 -0.988,4.636 -1.33,6.308 -0.19,0.912 0.456,1.786 1.444,1.786 1.026,0 1.938,-0.874 2.128,-1.824 0.456,-2.166 0.76,-3.458 1.444,-6.65 1.71,-7.942 0.608,-10.488 -3.534,-10.488 -2.584,0 -5.168,1.634 -7.258,4.674 l 0.608,-2.888 c 0.228,-1.026 -0.418,-1.824 -1.368,-1.824 -0.988,0 -2.052,0.798 -2.28,1.824 l -3.268,15.428 c -0.19,0.912 0.456,1.748 1.444,1.748 z m 26.29597,0 c 2.812,0 5.776,-1.786 7.486,-3.572 0.304,-0.304 0.722,-0.912 0.722,-1.558 0,-0.798 -0.608,-1.406 -1.444,-1.406 -0.874,0 -1.482,0.608 -1.824,0.95 -1.14,1.178 -2.508,2.166 -4.674,2.166 -1.786,0 -3.724,-1.444 -3.724,-3.838 0,-3.344 3.762,-8.284 6.688,-8.284 1.444,0 2.09,0.722 2.812,1.824 0.19,0.266 0.456,0.456 1.102,0.456 1.14,0 2.242,-1.026 2.242,-2.166 0,-0.304 -0.038,-0.646 -0.608,-1.444 -0.874,-1.178 -2.28,-2.128 -4.788,-2.128 -5.206,0 -11.096,6.764 -11.096,12.388 0,3.952 3.116,6.612 7.106,6.612 z m 18.62003,0 c 2.356,0 5.244,-1.254 6.802,-2.66 0.646,-0.57 0.874,-1.026 0.874,-1.71 0,-0.76 -0.57,-1.292 -1.444,-1.292 -0.494,0 -0.988,0.266 -1.406,0.608 -1.026,0.874 -2.432,1.634 -4.37,1.634 -1.9,0 -3.876,-0.836 -4.104,-2.47 l 11.438,-5.852 c 1.064,-0.57 1.558,-1.254 1.558,-2.318 0,-1.9 -1.634,-4.902 -6.156,-4.902 -5.776,0 -10.868,5.89 -10.868,11.818 0,4.522 3.078,7.144 7.676,7.144 z m -4.028,-9.044 c 0.076,-1.254 0.874,-3.116 2.242,-4.484 1.254,-1.254 2.698,-2.09 4.522,-2.09 1.482,0 2.546,0.57 2.926,1.672 z"
     id="text1"
     style="font-style:italic;font-weight:700;font-size:38px;font-family:'Comic Neue';letter-spacing:0;fill:#101426"
     aria-label="Evidence" />
  <path
     d="m 43.258,128.228 c 5.7,0 11.286,-6.384 11.286,-12.236 0,-3.8 -2.394,-6.764 -6.194,-6.764 -5.738,0 -11.286,6.384 -11.286,12.274 0,3.876 2.394,6.726 6.194,6.726 z m 0.684,-3.382 c -2.014,0 -3.154,-1.672 -3.154,-3.876 0,-3.724 3.268,-8.36 6.688,-8.36 1.938,0 3.192,1.786 3.192,4.142 0,3.724 -3.344,8.094 -6.726,8.094 z m 17.518028,3.42 c 0.95,0 1.52,-0.418 1.976,-1.14 l 9.386,-15.314 c 0.114,-0.19 0.418,-0.646 0.418,-1.178 0,-0.76 -0.532,-1.406 -1.482,-1.406 -0.798,0 -1.558,0.456 -1.976,1.14 l -6.954,11.438 -2.052,-11.324 c -0.152,-0.76 -0.57,-1.216 -1.444,-1.216 -1.102,0 -2.318,0.95 -2.318,2.09 0,0.38 0.114,0.722 0.19,1.14 l 2.85,14.516 c 0.152,0.798 0.57,1.254 1.406,1.254 z m 19.190023,-0.038 c 2.356,0 5.244,-1.254 6.802,-2.66 0.646,-0.57 0.874,-1.026 0.874,-1.71 0,-0.76 -0.57,-1.292 -1.444,-1.292 -0.494,0 -0.988,0.266 -1.406,0.608 -1.026,0.874 -2.432,1.634 -4.37,1.634 -1.9,0 -3.876,-0.836 -4.104,-2.47 l 11.438,-5.852 c 1.064,-0.57 1.558,-1.254 1.558,-2.318 0,-1.9 -1.634,-4.902 -6.156,-4.902 -5.776,0 -10.868,5.89 -10.868,11.818 0,4.522 3.078,7.144 7.676,7.144 z m -4.028,-9.044 c 0.076,-1.254 0.874,-3.116 2.242,-4.484 1.254,-1.254 2.698,-2.09 4.522,-2.09 1.482,0 2.546,0.57 2.926,1.672 z m 16.416022,9.044 c 0.912,0 1.976,-0.836 2.166,-1.748 l 1.71,-7.752 c 0.228,-1.178 0.684,-2.432 1.672,-3.42 1.026,-1.064 3.001997,-2.508 4.141997,-2.508 0.418,0 0.57,0.152 0.57,0.456 0,0.304 -0.266,0.798 -0.266,1.254 0,0.646 0.494,1.216 1.444,1.216 1.026,0 1.9,-0.76 2.128,-1.672 0.152,-0.57 0.418,-1.862 0.418,-2.508 0,-1.254 -1.026,-2.356 -3.002,-2.356 -2.014,0 -4.103997,0.95 -5.699997,2.774 l 0.19,-1.026 c 0.152,-0.836 -0.266,-1.672 -1.444,-1.672 -0.988,0 -2.052,0.798 -2.28,1.824 l -3.268,15.39 c -0.19,0.836 0.532,1.748 1.52,1.748 z"
     id="text2"
     style="font-style:italic;font-weight:700;font-size:38px;font-family:'Comic Neue';letter-spacing:0;fill:#101426"
     aria-label="over" />
  <path
     d="m 42.802,176.228 c 1.482,0 3.192,-0.608 4.712,-1.9 L 47.4,174.86 c -0.228,1.026 0.418,1.748 1.406,1.748 1.026,0 1.938,-0.722 2.204,-1.9 L 54.354,158.9 c -0.874,-0.456 -3.002,-1.634 -5.738,-1.634 -6.042,0 -11.628,6.764 -11.628,12.92 0,3.686 2.28,6.042 5.814,6.042 z m 0.912,-3.496 c -1.862,0 -3.002,-0.798 -3.002,-3.192 0,-3.876 3.572,-8.778 7.258,-8.778 0.798,0 1.672,0.19 2.28,0.456 l -2.204,9.918 c -0.988,0.722 -2.622,1.596 -4.332,1.596 z m 17.973978,3.496 c 4.256,0 7.904,-3.154 7.904,-6.726 0,-2.394 -1.406,-3.496 -4.598,-4.56 -2.66,-0.912 -3.306,-1.444 -3.306,-2.432 0,-1.102 1.102,-2.052 3.534,-2.052 2.128,0 2.66,0.608 2.66,1.216 0,0.608 -0.456,0.874 -0.456,1.406 0,0.798 0.532,1.368 1.482,1.368 1.368,0 2.508,-1.254 2.508,-3.268 0,-2.47 -1.824,-3.914 -5.662,-3.914 -4.066,0 -7.676,2.432 -7.676,5.966 0,2.242 1.406,3.724 4.788,4.826 2.28,0.76 3.04,1.254 3.04,2.318 0,1.254 -1.52,2.584 -3.61,2.584 -2.014,0 -3.154,-0.988 -3.306,-2.546 -0.076,-0.722 -0.532,-1.254 -1.406,-1.254 -1.102,0 -2.204,1.026 -2.204,2.166 0,2.242 2.394,4.902 6.308,4.902 z m 16.149971,0 c 4.256,0 7.904,-3.154 7.904,-6.726 0,-2.394 -1.406,-3.496 -4.598,-4.56 -2.66,-0.912 -3.306,-1.444 -3.306,-2.432 0,-1.102 1.102,-2.052 3.534,-2.052 2.128,0 2.66,0.608 2.66,1.216 0,0.608 -0.456,0.874 -0.456,1.406 0,0.798 0.532,1.368 1.482,1.368 1.368,0 2.508,-1.254 2.508,-3.268 0,-2.47 -1.824,-3.914 -5.662,-3.914 -4.066,0 -7.676,2.432 -7.676,5.966 0,2.242 1.406,3.724 4.788,4.826 2.28,0.76 3.04,1.254 3.04,2.318 0,1.254 -1.52,2.584 -3.61,2.584 -2.014,0 -3.154,-0.988 -3.306,-2.546 -0.076,-0.722 -0.532,-1.254 -1.406,-1.254 -1.102,0 -2.204,1.026 -2.204,2.166 0,2.242 2.394,4.902 6.308,4.902 z m 15.541971,0.114 c 2.47,0 4.712,-1.026 5.852,-2.204 l -0.038,0.608 c -0.038,0.836 0.646,1.482 1.558,1.482 0.95,0 1.976,-0.798 2.204,-1.824 l 3.268,-15.428 c 0.19,-0.912 -0.38,-1.748 -1.444,-1.748 -0.988,0 -1.938,0.722 -2.166,1.748 l -2.394,10.83 c -0.114,0.57 -0.266,0.874 -0.95,1.368 -0.494,0.38 -2.736,1.748 -4.788,1.748 -1.102,0 -1.596,-0.798 -1.596,-2.508 0,-3.344 1.634,-8.626 2.394,-11.096 0.418,-1.33 -0.114,-2.09 -1.33,-2.09 -1.102,0 -1.786,0.684 -2.204,1.938 -1.14,3.42 -2.546,9.158 -2.546,12.54 0,3.458 1.482,4.636 4.18,4.636 z m 16.34,-0.114 c 0.988,0 1.976,-0.798 2.204,-1.786 l 1.14,-5.586 c 0.418,-1.862 1.178,-3.306 2.356,-4.788 1.33,-1.558 3.344,-3.306 5.13,-3.306 1.33,0 1.634,1.102 1.14,3.496 l -2.166,10.184 c -0.228,0.988 0.494,1.786 1.444,1.786 1.026,0 1.976,-0.798 2.204,-1.786 l 1.482,-7.068 c 0.836,-3.838 3.914,-6.612 6.118,-6.612 1.444,0 1.824,1.178 1.33,3.496 l -2.166,10.184 c -0.228,0.988 0.456,1.786 1.444,1.786 0.95,0 1.976,-0.798 2.204,-1.786 l 2.128,-9.956 c 1.026,-4.978 -0.532,-7.22 -3.572,-7.22 -2.546,0 -4.788,1.482 -6.688,3.648 -0.152,-2.508 -1.634,-3.648 -3.61,-3.648 -2.584,0 -5.016,1.52 -7.22,4.484 l 0.57,-2.66 c 0.19,-0.95 -0.418,-1.824 -1.444,-1.824 -0.95,0 -2.014,0.874 -2.204,1.824 l -3.268,15.352 c -0.228,0.988 0.494,1.786 1.444,1.786 z m 28.84199,6.726 c 0.912,0 1.976,-0.76 2.204,-1.824 l 1.254,-5.928 c 0.95,0.418 2.128,0.76 3.458,0.76 3.838,0 6.46,-1.9 8.17,-4.294 1.558,-2.242 2.698,-5.624 2.698,-8.246 0,-3.876 -1.862,-6.194 -5.054,-6.194 -2.356,0 -4.446,0.874 -5.928,1.862 l 0.076,-0.532 c 0.114,-0.722 -0.532,-1.33 -1.368,-1.33 -1.064,0 -2.052,0.798 -2.28,1.862 l -4.674,22.04 c -0.152,0.76 0.342,1.824 1.444,1.824 z m 7.942,-10.678 c -1.444,0 -2.85,-0.494 -3.648,-0.836 l 1.748,-8.322 c 0.874,-0.874 2.926,-2.47 5.89,-2.47 1.444,0 2.318,1.102 2.318,3.344 0,1.748 -0.684,4.142 -1.558,5.548 -1.064,1.672 -2.546,2.736 -4.75,2.736 z m 15.19998,3.99 c 0.95,0 1.976,-0.76 2.204,-1.786 l 2.888,-13.718 h 3.23 c 1.064,0 2.242,-0.912 2.242,-2.09 0,-0.836 -0.57,-1.368 -1.444,-1.368 h -3.23 l 0.874,-4.142 c 0.19,-0.912 -0.304,-1.862 -1.444,-1.862 -0.988,0 -2.014,0.912 -2.204,1.862 l -0.874,4.142 h -3.116 c -1.178,0 -2.356,0.912 -2.356,2.014 0,0.798 0.57,1.444 1.482,1.444 h 3.192 l -2.888,13.718 c -0.19,0.95 0.494,1.786 1.444,1.786 z m 15.54202,-20.596 c 0.988,0 1.938,-0.76 2.204,-1.786 l 0.38,-1.444 c 0.228,-0.912 -0.456,-1.824 -1.406,-1.824 -0.912,0 -1.976,0.798 -2.204,1.786 l -0.342,1.406 c -0.266,1.102 0.418,1.862 1.368,1.862 z m -4.522,20.558 c 0.988,0 2.014,-0.836 2.242,-1.862 l 3.382,-15.124 c 0.228,-1.064 -0.38,-1.862 -1.444,-1.862 -0.988,0 -2.052,0.836 -2.28,1.862 l -3.382,15.124 c -0.228,1.026 0.456,1.862 1.482,1.862 z m 13.98401,0 c 5.7,0 11.286,-6.384 11.286,-12.236 0,-3.8 -2.394,-6.764 -6.194,-6.764 -5.738,0 -11.286,6.384 -11.286,12.274 0,3.876 2.394,6.726 6.194,6.726 z m 0.684,-3.382 c -2.014,0 -3.154,-1.672 -3.154,-3.876 0,-3.724 3.268,-8.36 6.688,-8.36 1.938,0 3.192,1.786 3.192,4.142 0,3.724 -3.344,8.094 -6.726,8.094 z m 14.13602,3.382 c 1.14,0 1.976,-0.836 2.166,-1.9 l 0.684,-3.192 c 0.608,-2.812 1.406,-4.56 2.964,-6.612 1.824,-2.356 3.686,-3.724 5.206,-3.724 1.748,0 2.242,1.292 0.95,7.334 -0.646,3.002 -0.988,4.636 -1.33,6.308 -0.19,0.912 0.456,1.786 1.444,1.786 1.026,0 1.938,-0.874 2.128,-1.824 0.456,-2.166 0.76,-3.458 1.444,-6.65 1.71,-7.942 0.608,-10.488 -3.534,-10.488 -2.584,0 -5.168,1.634 -7.258,4.674 l 0.608,-2.888 c 0.228,-1.026 -0.418,-1.824 -1.368,-1.824 -0.988,0 -2.052,0.798 -2.28,1.824 l -3.268,15.428 c -0.19,0.912 0.456,1.748 1.444,1.748 z M 220.86991,176 c 1.406,0 2.774,-1.52 2.774,-2.964 0,-0.95 -0.646,-1.634 -1.558,-1.634 -1.444,0 -2.812,1.52 -2.812,2.964 0,0.95 0.608,1.634 1.596,1.634 z"
     id="text3"
     style="font-style:italic;font-weight:700;font-size:38px;font-family:'Comic Neue';letter-spacing:0;fill:#101426"
     aria-label="assumption." />
  <path
     d="M42 220 C118 203 176 235 274 214"
     stroke="#73D9C2"
     stroke-width="5"
     fill="none"
     stroke-linecap="round"
     id="path3" />
</svg>
