<?xml version="1.0" encoding="UTF-8" standalone="no"?>
<svg
   width="340"
   height="270"
   viewBox="0 0 340 270"
   fill="none"
   version="1.1"
   id="svg4"
   xmlns="http://www.w3.org/2000/svg"
   xmlns:svg="http://www.w3.org/2000/svg">
  <defs
     id="defs4" />
  <path
     d="M8 16 L26 8 L50 13 L76 7 L100 14 L128 8 L156 13 L184 7 L214 13 L242 8 L270 14 L300 9 L326 16 L330 48 L324 76 L331 104 L325 132 L330 162 L324 192 L330 220 L322 252 L298 258 L270 253 L242 260 L214 254 L184 260 L156 254 L128 260 L100 254 L72 260 L44 254 L16 260 L8 234 L14 204 L8 176 L14 146 L8 118 L14 88 L8 58 Z"
     fill="#F5F1E8"
     stroke="#D8D2C6"
     stroke-width="2"
     id="path1" />
  <rect
     x="135"
     y="2"
     width="76"
     height="22"
     rx="2"
     fill="#4D5DFF"
     opacity="0.92"
     transform="rotate(-3 173.0 13)"
     id="rect1" />
  <path
     d="m 45.023437,72 c 7.520508,0 12.168946,-4.648438 12.168946,-12.368164 0,-7.719727 -4.648438,-12.368164 -12.168946,-12.368164 H 35.925781 V 72 Z M 41.786133,66.986328 V 52.277344 h 2.905273 c 4.333008,0 6.640625,1.992187 6.640625,7.354492 0,5.362305 -2.307617,7.354492 -6.557617,7.354492 z m 27.30957,5.362305 c 5.793945,0 9.313477,-3.851563 9.313477,-9.5625 0,-5.727539 -3.519532,-9.579102 -9.313477,-9.579102 -5.810547,0 -9.330078,3.851563 -9.330078,9.579102 0,5.710937 3.519531,9.5625 9.330078,9.5625 z m 0,-4.432617 c -2.224609,0 -3.419922,-2.075196 -3.419922,-5.163086 0,-3.104493 1.195313,-5.113282 3.419922,-5.113282 2.224609,0 3.419922,2.008789 3.419922,5.113282 0,3.08789 -1.195313,5.163086 -3.419922,5.163086 z m 18.228516,-6.507813 c 0,-2.158203 1.27832,-3.436523 3.170898,-3.436523 1.892578,0 3.021485,1.245117 3.021485,3.336914 V 72 h 5.793945 V 60.179687 c 0,-4.200195 -2.540039,-6.972656 -6.424805,-6.972656 -3.004883,0 -4.831055,1.660156 -5.810547,4.233399 l -0.09961,-4.000977 H 81.530273 V 72 h 5.793946 z M 103.0957,57.921875 h 3.81836 l 3.25391,-10.658203 h -5.61133 z m 20.50293,-4.482422 h -3.33691 v -4.416016 h -5.79395 v 4.416016 h -2.45703 v 4.299805 h 2.45703 v 9.097656 c 0,3.536133 2.0752,5.428711 6.00977,5.428711 1.0957,0 2.32422,-0.116211 3.61914,-0.481445 l -0.74707,-4.216797 c -0.31543,0.08301 -1.21191,0.199219 -1.61035,0.199219 -1.0459,0 -1.47754,-0.464844 -1.47754,-1.444336 v -8.583008 h 3.33691 z m 20.41992,0 h -3.33691 v -4.416016 h -5.79394 v 4.416016 h -2.45704 v 4.299805 h 2.45704 v 9.097656 c 0,3.536133 2.07519,5.428711 6.00976,5.428711 1.0957,0 2.32422,-0.116211 3.61914,-0.481445 l -0.74707,-4.216797 c -0.31543,0.08301 -1.21191,0.199219 -1.61035,0.199219 -1.0459,0 -1.47754,-0.464844 -1.47754,-1.444336 v -8.583008 h 3.33691 z M 146.99023,72 h 5.79395 V 61.873047 c 0,-2.22461 1.57715,-3.71875 3.71875,-3.71875 0.69727,0 1.74316,0.116211 2.29102,0.298828 V 53.40625 c -0.48145,-0.116211 -1.09571,-0.199219 -1.64356,-0.199219 -2.04199,0 -3.66894,1.178711 -4.33301,3.619141 h -0.19922 v -3.386719 h -5.62793 z m 20.71875,0.232422 c 2.98829,0 4.81446,-1.660156 5.81055,-4.25 L 173.60254,72 h 5.44531 V 53.439453 h -5.79394 V 64.03125 c 0,2.158203 -1.27832,3.436523 -3.1709,3.436523 -1.89258,0 -3.02149,-1.245117 -3.02149,-3.336914 V 53.439453 h -5.79394 v 11.820313 c 0,4.200195 2.54004,6.972656 6.4414,6.972656 z m 22.97657,0.116211 c 5.06347,0 8.69922,-2.457031 8.69922,-6.275391 0,-2.689453 -1.77637,-4.316406 -5.46192,-5.013672 l -3.55273,-0.664062 c -1.59375,-0.31543 -2.0918,-0.896485 -2.0918,-1.643555 0,-0.946289 1.0957,-1.560547 2.49023,-1.560547 1.56055,0 2.62305,0.730469 2.97168,1.975586 l 5.11329,-0.813476 c -0.64747,-3.1875 -3.53614,-5.146485 -8.18457,-5.146485 -4.98047,0 -8.16797,2.191406 -8.16797,5.893555 0,2.838867 1.82617,4.648437 5.49511,5.345703 l 3.23731,0.630859 c 1.54394,0.31543 2.27441,0.796875 2.27441,1.660157 0,0.946289 -0.97949,1.543945 -2.60644,1.543945 -1.97559,0 -3.02149,-0.830078 -3.48633,-2.44043 l -5.37891,0.84668 c 0.64746,3.552734 3.90137,5.661133 8.64942,5.661133 z m 21.68164,-18.90918 h -3.33692 v -4.416016 h -5.79394 v 4.416016 h -2.45703 v 4.299805 h 2.45703 v 9.097656 c 0,3.536133 2.07519,5.428711 6.00976,5.428711 1.09571,0 2.32422,-0.116211 3.61914,-0.481445 l -0.74707,-4.216797 c -0.31543,0.08301 -1.21191,0.199219 -1.61035,0.199219 -1.0459,0 -1.47754,-0.464844 -1.47754,-1.444336 v -8.583008 h 3.33692 z"
     id="text1"
     style="font-weight:800;font-size:34px;font-family:Inter;letter-spacing:0;fill:#101426"
     aria-label="Don’t trust" />
  <path
     d="m 45.919922,91.439453 h -3.336914 v -4.416016 h -5.793946 v 4.416016 h -2.457031 v 4.299805 h 2.457031 v 9.097652 c 0,3.53614 2.075196,5.42872 6.009766,5.42872 1.095703,0 2.324219,-0.11622 3.619141,-0.48145 l -0.747071,-4.2168 c -0.315429,0.083 -1.211914,0.19922 -1.610351,0.19922 -1.045899,0 -1.477539,-0.46484 -1.477539,-1.44433 v -8.583012 h 3.336914 z m 8.898437,7.96875 c 0,-2.158203 1.278321,-3.436523 3.170899,-3.436523 1.892578,0 3.021484,1.245117 3.021484,3.336914 V 110 h 5.793945 V 98.179687 c 0,-4.200195 -2.540039,-6.972656 -6.424804,-6.972656 -2.888672,0 -4.681641,1.527344 -5.677735,3.917969 V 85.263672 H 49.024414 V 110 h 5.793945 z m 24.454102,10.940427 c 4.499023,0 7.537109,-2.04199 8.466797,-5.26269 l -5.163086,-0.84668 c -0.464844,1.24512 -1.643555,1.90918 -3.204102,1.90918 -2.191406,0 -3.668945,-1.32813 -3.768554,-4.01758 h 12.401367 v -1.46094 c 0,-6.125975 -3.735352,-9.462889 -8.948242,-9.462889 -5.578125,0 -9.147461,3.851563 -9.147461,9.579099 0,5.94336 3.536132,9.5625 9.363281,9.5625 z M 75.636719,98.760742 c 0.21582,-2.041992 1.427734,-3.353515 3.469726,-3.353515 2.025391,0 3.170899,1.245117 3.403321,3.353515 z M 98.480469,110 h 5.793941 V 98.976562 c 0,-1.942382 1.11231,-3.054687 2.68946,-3.054687 1.54394,0 2.58984,1.079102 2.58984,2.789062 V 110 h 5.56152 V 98.860352 c 0,-1.776368 1.0127,-2.938477 2.65625,-2.938477 1.52735,0 2.62305,0.996094 2.62305,2.87207 V 110 h 5.77735 V 97.482422 c 0,-3.917969 -2.47364,-6.291992 -5.94336,-6.291992 -2.50684,0 -4.89747,1.261718 -6.02637,4.299804 -0.91309,-3.038086 -2.42383,-4.299804 -4.78125,-4.299804 -2.24121,0 -4.31641,1.145507 -5.3457,3.93457 l -0.26563,-3.685547 h -5.329101 z m 40.142581,0.34863 c 5.79394,0 9.31347,-3.85156 9.31347,-9.5625 0,-5.727536 -3.51953,-9.579099 -9.31347,-9.579099 -5.81055,0 -9.33008,3.851563 -9.33008,9.579099 0,5.71094 3.51953,9.5625 9.33008,9.5625 z m 0,-4.43261 c -2.22461,0 -3.41993,-2.0752 -3.41993,-5.16309 0,-3.104493 1.19532,-5.113282 3.41993,-5.113282 2.22461,0 3.41992,2.008789 3.41992,5.113282 0,3.08789 -1.19531,5.16309 -3.41992,5.16309 z m 19.1582,4.34961 c 2.82227,0 4.48242,-1.59375 5.21289,-3.27051 h 0.19922 V 110 h 5.71094 V 85.263672 h -5.77735 v 9.363281 h -0.13281 c -0.69727,-1.676758 -2.29102,-3.419922 -5.26269,-3.419922 -3.90137,0 -7.3877,3.021485 -7.3877,9.529299 0,6.29199 3.30371,9.5293 7.4375,9.5293 z m 1.97559,-4.51563 c -2.24122,0 -3.45313,-1.99219 -3.45313,-5.01367 0,-3.021486 1.21191,-4.997072 3.45313,-4.997072 2.208,0 3.50293,1.925781 3.50293,4.997072 0,3.03808 -1.31153,5.01367 -3.50293,5.01367 z m 21.63183,4.59863 c 4.49903,0 7.53711,-2.04199 8.4668,-5.26269 l -5.16309,-0.84668 c -0.46484,1.24512 -1.64355,1.90918 -3.2041,1.90918 -2.19141,0 -3.66894,-1.32813 -3.76855,-4.01758 h 12.40136 v -1.46094 c 0,-6.125975 -3.73535,-9.462889 -8.94824,-9.462889 -5.57812,0 -9.14746,3.851563 -9.14746,9.579099 0,5.94336 3.53613,9.5625 9.36328,9.5625 z m -3.63574,-11.587888 c 0.21582,-2.041992 1.42773,-3.353515 3.46973,-3.353515 2.02539,0 3.17089,1.245117 3.40332,3.353515 z m 21.20019,-13.49707 h -5.79394 V 110 h 5.79394 z m 7.91895,25.084958 c 1.77637,0 3.1377,-1.32812 3.1377,-3.08789 0,-1.75976 -1.36133,-3.10449 -3.1377,-3.10449 -1.77637,0 -3.1377,1.34473 -3.1377,3.10449 0,1.75977 1.36133,3.08789 3.1377,3.08789 z"
     id="text2"
     style="font-weight:800;font-size:34px;font-family:Inter;letter-spacing:0;fill:#101426"
     aria-label="the model." />
  <path
     d="m 35.925781,156 h 5.860352 v -8.5166 h 3.1875 L 49.505859,156 h 6.424805 l -5.163086,-9.44629 c 2.739258,-1.22851 4.299805,-3.65234 4.299805,-7.07226 0,-5.04688 -3.436524,-8.21778 -9.014649,-8.21778 H 35.925781 Z m 5.860352,-13.14844 v -6.83984 h 3.021484 c 2.75586,0 4.183594,1.16211 4.183594,3.46973 0,2.30761 -1.427734,3.37011 -4.166992,3.37011 z m 24.918945,13.49707 c 4.499024,0 7.537109,-2.04199 8.466797,-5.26269 l -5.163086,-0.84668 c -0.464844,1.24511 -1.643555,1.90918 -3.204102,1.90918 -2.191406,0 -3.668945,-1.32813 -3.768554,-4.01758 H 75.4375 v -1.46094 c 0,-6.12597 -3.735352,-9.46289 -8.948242,-9.46289 -5.578125,0 -9.147461,3.85156 -9.147461,9.5791 0,5.94336 3.536133,9.5625 9.363281,9.5625 z m -3.635742,-11.58789 c 0.21582,-2.04199 1.427734,-3.35351 3.469726,-3.35351 2.025391,0 3.170899,1.24511 3.403321,3.35351 z m 15.40625,18.17871 h 5.793945 v -9.94433 h 0.132813 c 0.730468,1.67675 2.374023,3.2705 5.21289,3.2705 4.117188,0 7.4375,-3.2373 7.4375,-9.52929 0,-6.50781 -3.502929,-9.5293 -7.404297,-9.5293 -2.955078,0 -4.548828,1.74317 -5.246093,3.41992 h -0.199219 v -3.1875 H 78.475586 Z M 87.639648,151.75 c -2.208007,0 -3.502929,-1.97559 -3.502929,-5.01367 0,-3.07129 1.294922,-4.99707 3.502929,-4.99707 2.241211,0 3.453125,1.97558 3.453125,4.99707 0,3.02148 -1.228515,5.01367 -3.453125,5.01367 z M 100.15723,156 h 5.79394 v -10.12695 c 0,-2.22461 1.57715,-3.71875 3.71875,-3.71875 0.69727,0 1.74317,0.11621 2.29102,0.29882 v -5.04687 c -0.48145,-0.11621 -1.09571,-0.19922 -1.64356,-0.19922 -2.04199,0 -3.66894,1.17871 -4.333,3.61914 h -0.19922 v -3.38672 h -5.62793 z m 21.94726,0.34863 c 5.79395,0 9.31348,-3.85156 9.31348,-9.5625 0,-5.72754 -3.51953,-9.5791 -9.31348,-9.5791 -5.81054,0 -9.33008,3.85156 -9.33008,9.5791 0,5.71094 3.51954,9.5625 9.33008,9.5625 z m 0,-4.43261 c -2.22461,0 -3.41992,-2.0752 -3.41992,-5.16309 0,-3.10449 1.19531,-5.11328 3.41992,-5.11328 2.22461,0 3.41992,2.00879 3.41992,5.11328 0,3.08789 -1.19531,5.16309 -3.41992,5.16309 z m 19.15821,4.3496 c 2.82226,0 4.48242,-1.59375 5.21289,-3.2705 h 0.19921 V 156 h 5.71094 v -24.73633 h -5.77734 v 9.36328 h -0.13281 c -0.69727,-1.67675 -2.29102,-3.41992 -5.2627,-3.41992 -3.90137,0 -7.38769,3.02149 -7.38769,9.5293 0,6.29199 3.30371,9.52929 7.4375,9.52929 z m 1.97558,-4.51562 c -2.24121,0 -3.45312,-1.99219 -3.45312,-5.01367 0,-3.02149 1.21191,-4.99707 3.45312,-4.99707 2.20801,0 3.50293,1.92578 3.50293,4.99707 0,3.03808 -1.31152,5.01367 -3.50293,5.01367 z m 19.42383,4.48242 c 2.98828,0 4.81445,-1.66015 5.81055,-4.25 l 0.083,4.01758 h 5.44532 v -18.56055 h -5.79395 v 10.5918 c 0,2.1582 -1.27832,3.43652 -3.1709,3.43652 -1.89258,0 -3.02148,-1.24511 -3.02148,-3.33691 v -10.69141 h -5.79395 v 11.82032 c 0,4.20019 2.54004,6.97265 6.44141,6.97265 z m 23.77344,0.11621 c 4.78125,0 7.98535,-2.57324 8.5664,-6.72363 l -5.3457,-0.86328 c -0.34863,2.00879 -1.44434,3.1543 -3.1543,3.1543 -2.22461,0 -3.48633,-1.97559 -3.48633,-5.16309 0,-3.2041 1.26172,-5.11328 3.48633,-5.11328 1.70996,0 2.77246,1.1123 3.1377,3.05469 l 5.3457,-0.89649 c -0.58105,-4.03418 -3.81836,-6.59082 -8.5498,-6.59082 -5.81055,0 -9.33008,3.85156 -9.33008,9.5791 0,5.71094 3.51953,9.5625 9.33008,9.5625 z m 20.2705,0 c 4.49903,0 7.53711,-2.04199 8.4668,-5.26269 l -5.16308,-0.84668 c -0.46485,1.24511 -1.64356,1.90918 -3.20411,1.90918 -2.1914,0 -3.66894,-1.32813 -3.76855,-4.01758 h 12.40137 v -1.46094 c 0,-6.12597 -3.73536,-9.46289 -8.94825,-9.46289 -5.57812,0 -9.14746,3.85156 -9.14746,9.5791 0,5.94336 3.53614,9.5625 9.36328,9.5625 z m -3.63574,-11.58789 c 0.21582,-2.04199 1.42774,-3.35351 3.46973,-3.35351 2.02539,0 3.1709,1.24511 3.40332,3.35351 z"
     id="text3"
     style="font-weight:800;font-size:34px;font-family:Inter;letter-spacing:0;fill:#4d5dff"
     aria-label="Reproduce" />
  <path
     d="m 45.919922,175.43945 h -3.336914 v -4.41601 h -5.793946 v 4.41601 h -2.457031 v 4.29981 h 2.457031 v 9.09765 c 0,3.53614 2.075196,5.42871 6.009766,5.42871 1.095703,0 2.324219,-0.11621 3.619141,-0.48144 l -0.747071,-4.2168 c -0.315429,0.083 -1.211914,0.19922 -1.610351,0.19922 -1.045899,0 -1.477539,-0.46484 -1.477539,-1.44433 v -8.58301 h 3.336914 z m 8.898437,7.96875 c 0,-2.1582 1.278321,-3.43652 3.170899,-3.43652 1.892578,0 3.021484,1.24512 3.021484,3.33691 V 194 h 5.793945 v -11.82031 c 0,-4.2002 -2.540039,-6.97266 -6.424804,-6.97266 -2.888672,0 -4.681641,1.52734 -5.677735,3.91797 v -9.86133 H 49.024414 V 194 h 5.793945 z m 24.454102,10.94043 c 4.499023,0 7.537109,-2.04199 8.466797,-5.26269 l -5.163086,-0.84668 c -0.464844,1.24511 -1.643555,1.90918 -3.204102,1.90918 -2.191406,0 -3.668945,-1.32813 -3.768554,-4.01758 h 12.401367 v -1.46094 c 0,-6.12597 -3.735352,-9.46289 -8.948242,-9.46289 -5.578125,0 -9.147461,3.85156 -9.147461,9.5791 0,5.94336 3.536132,9.5625 9.363281,9.5625 z m -3.635742,-11.58789 c 0.21582,-2.04199 1.427734,-3.35351 3.469726,-3.35351 2.025391,0 3.170899,1.24511 3.403321,3.35351 z m 33.867191,-7.32129 h -3.71875 v -1.0459 c 0,-1.0957 0.46484,-1.75976 1.84277,-1.75976 0.58105,0 1.24512,0.11621 1.67676,0.23242 l 0.92969,-4.2334 c -0.68067,-0.19922 -2.25782,-0.53125 -3.90137,-0.53125 -3.71875,0 -6.3086,2.0918 -6.3086,6.3418 v 0.99609 h -3.12109 v 4.29981 h 3.12109 V 194 h 5.76075 v -14.26074 h 3.71875 z M 112.80762,194 h 5.79394 v -18.56055 h -5.79394 z m 2.88867,-20.73535 c 1.66016,0 3.00488,-1.24512 3.00488,-2.78906 0,-1.54395 -1.34472,-2.78907 -3.00488,-2.78907 -1.64356,0 -2.98828,1.24512 -2.98828,2.78907 0,1.54394 1.34472,2.78906 2.98828,2.78906 z m 12.53418,10.14355 c 0,-2.1582 1.27832,-3.43652 3.1709,-3.43652 1.89258,0 3.02148,1.24512 3.02148,3.33691 V 194 h 5.79395 v -11.82031 c 0,-4.2002 -2.54004,-6.97266 -6.42481,-6.97266 -3.00488,0 -4.83105,1.66016 -5.81054,4.2334 l -0.0996,-4.00098 h -5.44532 V 194 h 5.79395 z m 22.52832,10.85742 c 2.82226,0 4.48242,-1.59375 5.21289,-3.2705 h 0.19922 V 194 h 5.71094 v -24.73633 h -5.77735 v 9.36328 h -0.13281 c -0.69727,-1.67675 -2.29102,-3.41992 -5.2627,-3.41992 -3.90136,0 -7.38769,3.02149 -7.38769,9.5293 0,6.29199 3.30371,9.52929 7.4375,9.52929 z m 1.97558,-4.51562 c -2.24121,0 -3.45312,-1.99219 -3.45312,-5.01367 0,-3.02149 1.21191,-4.99707 3.45312,-4.99707 2.20801,0 3.50293,1.92578 3.50293,4.99707 0,3.03808 -1.31152,5.01367 -3.50293,5.01367 z M 165.7168,194 h 5.79394 v -18.56055 h -5.79394 z m 2.88867,-20.73535 c 1.66015,0 3.00488,-1.24512 3.00488,-2.78906 0,-1.54395 -1.34473,-2.78907 -3.00488,-2.78907 -1.64356,0 -2.98828,1.24512 -2.98828,2.78907 0,1.54394 1.34472,2.78906 2.98828,2.78906 z m 12.53418,10.14355 c 0,-2.1582 1.27832,-3.43652 3.1709,-3.43652 1.89257,0 3.02148,1.24512 3.02148,3.33691 V 194 h 5.79395 v -11.82031 c 0,-4.2002 -2.54004,-6.97266 -6.42481,-6.97266 -3.00488,0 -4.83105,1.66016 -5.81055,4.2334 l -0.0996,-4.00098 H 175.3457 V 194 h 5.79395 z m 24.35449,17.92969 c 5.54492,0 9.36328,-2.62305 9.36328,-7.75293 v -18.14551 h -5.72754 v 3.1875 h -0.16601 c -0.69727,-1.67675 -2.37403,-3.41992 -5.3125,-3.41992 -3.90137,0 -7.4209,3.02149 -7.4209,9.5127 0,6.25879 3.37012,9.03125 7.4375,9.03125 2.75586,0 4.34961,-1.31153 5.03027,-2.98828 h 0.44824 v 3.2871 c 0,2.20801 -1.32812,3.25391 -3.68554,3.25391 -2.0752,0 -3.22071,-0.84668 -3.55274,-1.85937 l -5.03027,1.02929 c 0.68066,2.90528 3.76855,4.86426 8.61621,4.86426 z m 0.14941,-11.83691 c -2.2246,0 -3.45312,-1.80957 -3.45312,-4.79786 0,-2.98828 1.22852,-4.96386 3.45312,-4.96386 2.22461,0 3.50293,1.92578 3.50293,4.96386 0,3.00489 -1.27832,4.79786 -3.50293,4.79786 z m 17.11622,4.84765 c 1.77636,0 3.13769,-1.32812 3.13769,-3.08789 0,-1.75976 -1.36133,-3.10449 -3.13769,-3.10449 -1.77637,0 -3.1377,1.34473 -3.1377,3.10449 0,1.75977 1.36133,3.08789 3.1377,3.08789 z"
     id="text4"
     style="font-weight:800;font-size:34px;font-family:Inter;letter-spacing:0;fill:#4d5dff"
     aria-label="the finding." />
  <path
     d="M35 218 C100 209 170 229 263 213"
     stroke="#4D5DFF"
     stroke-width="5"
     fill="none"
     stroke-linecap="round"
     id="path4" />
</svg>
