<?xml version="1.0" encoding="UTF-8" standalone="no"?>
<svg
   width="1280"
   height="720"
   viewBox="0 0 1280 720"
   fill="none"
   version="1.1"
   id="svg12"
   xmlns="http://www.w3.org/2000/svg"
   xmlns:svg="http://www.w3.org/2000/svg">
  <defs
     id="defs12" />
  <rect
     x="18"
     y="18"
     width="1244"
     height="684"
     rx="24"
     fill="none"
     stroke="#4D5DFF"
     stroke-width="3"
     id="rect1" />
  <path
     d="M18 92 V18 H92"
     stroke="#4D5DFF"
     stroke-width="8"
     id="path1" />
  <path
     d="M1188 18 H1262 V92"
     stroke="#B8A8FF"
     stroke-width="8"
     id="path2" />
  <path
     d="M18 628 V702 H92"
     stroke="#73D9C2"
     stroke-width="8"
     id="path3" />
  <path
     d="M1188 702 H1262 V628"
     stroke="#FF6257"
     stroke-width="8"
     id="path4" />
  <g
     transform="translate(52 42) scale(0.48)"
     id="g11">
    <path
       d="M17 18 L31 12 L63 91 L50 103 Z"
       fill="#4D5DFF"
       id="path5" />
    <path
       d="M103 18 L89 12 L57 91 L70 103 Z"
       fill="#B8A8FF"
       id="path6" />
    <circle
       cx="24"
       cy="18"
       r="14"
       fill="#4D5DFF"
       id="circle6" />
    <circle
       cx="24"
       cy="18"
       r="7"
       fill="#F5F1E8"
       id="circle7" />
    <circle
       cx="96"
       cy="18"
       r="14"
       fill="#B8A8FF"
       id="circle8" />
    <circle
       cx="96"
       cy="18"
       r="7"
       fill="#F5F1E8"
       id="circle9" />
    <circle
       cx="60"
       cy="96"
       r="15"
       fill="#F5F1E8"
       id="circle10" />
    <circle
       cx="60"
       cy="96"
       r="10"
       fill="#101426"
       id="circle11" />
    <rect
       x="56"
       y="108"
       width="8"
       height="28"
       rx="4"
       fill="#101426"
       id="rect11" />
  </g>
  <path
     d="m 129.64258,86 h 6.45312 l 6.8086,-20.371094 h -5.35938 l -2.7207,8.900391 c -0.6836,2.324219 -1.29883,4.798828 -1.92774,7.519531 -0.65625,-2.707031 -1.29882,-5.208984 -1.99609,-7.519531 l -2.83008,-8.900391 h -5.42773 z m 15.49023,0 h 14.12305 v -3.9375 h -9.29688 v -4.429688 h 8.57227 v -3.855468 h -8.57227 v -4.210938 h 9.31055 v -3.9375 h -14.13672 z m 17.07617,0 h 4.82618 v -7.013672 h 2.625 L 173.39258,86 h 5.29101 l -4.25195,-7.779297 c 2.25586,-1.011719 3.54102,-3.007812 3.54102,-5.824219 0,-4.15625 -2.83008,-6.767578 -7.42383,-6.767578 h -8.33985 z m 4.82618,-10.828125 v -5.632813 h 2.48828 c 2.26953,0 3.44531,0.957032 3.44531,2.857422 0,1.900391 -1.17578,2.775391 -3.43164,2.775391 z M 188.24023,86 c 6.19336,0 10.02149,-3.828125 10.02149,-10.185547 0,-6.357422 -3.82813,-10.185547 -10.02149,-10.185547 h -7.49218 V 86 Z m -2.66601,-4.128906 V 69.757812 h 2.39258 c 3.56836,0 5.46875,1.640625 5.46875,6.056641 0,4.416016 -1.90039,6.056641 -5.40039,6.056641 z m 20.23437,-16.242188 h -4.82617 V 86 h 4.82617 z m 12.34571,20.644531 c 5.53711,0 8.64062,-3.828125 9.00976,-7.464843 h -4.88086 c -0.34179,1.982422 -1.8457,3.226562 -4.0332,3.226562 -2.92578,0 -4.79883,-2.11914 -4.79883,-6.207031 0,-3.951172 1.83203,-6.234375 4.82617,-6.234375 2.1875,0 3.67774,1.244141 3.99219,3.226562 h 4.88086 c -0.56055,-4.74414 -4.15625,-7.464843 -8.99609,-7.464843 -5.42774,0 -9.63868,3.746093 -9.63868,10.472656 0,6.685547 4.12891,10.445312 9.63868,10.445312 z m 10.96484,-16.707031 h 6.16602 V 86 h 4.8125 V 69.566406 h 6.16601 v -3.9375 h -17.14453 z"
     id="text11"
     style="font-weight:800;font-size:28px;font-family:Inter;letter-spacing:0;fill:#101426"
     aria-label="VERDICT" />
  <path
     d="m 126.44336,112 c 3.09668,0 4.89453,-1.9209 4.89453,-5.10645 0,-3.16503 -1.79785,-5.0791 -4.79883,-5.0791 h -3.41113 V 112 Z m -1.75684,-1.36719 v -7.45117 h 1.75 c 2.22168,0 3.37012,1.31934 3.37012,3.71191 0,2.41309 -1.14844,3.73926 -3.45215,3.73926 z M 137.23145,112 h 1.55859 v -4.23828 h 4.32031 v -1.33301 h -4.32031 v -3.27441 h 4.77832 v -1.33985 h -6.33691 z m 13.80957,-10.18555 h -1.5586 V 112 h 1.5586 z M 157.29687,112 h 1.5586 v -3.84863 h 2.07812 c 0.0273,0 0.0615,0 0.0889,0 L 163.08691,112 h 1.77051 l -2.24219,-4.11523 c 1.23731,-0.46485 1.85938,-1.50391 1.85938,-2.8711 0,-1.87988 -1.16895,-3.19922 -3.52734,-3.19922 h -3.6504 z m 1.5586,-5.18164 v -3.6709 h 1.91406 c 1.50391,0 2.12598,0.71777 2.12598,1.86621 0,1.1416 -0.62207,1.80469 -2.11231,1.80469 z"
     id="text12"
     style="font-weight:500;font-size:14px;font-family:Inter;letter-spacing:4;fill:#4d5dff"
     aria-label="DFIR" />
  <line
     x1="64"
     y1="640"
     x2="1150"
     y2="640"
     stroke="#CFC9BD"
     stroke-width="2"
     id="line12" />
  <circle
     cx="1168"
     cy="640"
     r="18"
     fill="none"
     stroke="#73D9C2"
     stroke-width="3"
     id="circle12" />
  <path
     d="M1159 640 L1166 647 L1178 633"
     stroke="#101426"
     stroke-width="3"
     stroke-linecap="round"
     stroke-linejoin="round"
     id="path12" />
</svg>
