<?xml version="1.0" encoding="UTF-8" standalone="no"?>
<svg
   width="320"
   height="80"
   viewBox="0 0 320 80"
   fill="none"
   version="1.1"
   id="svg2"
   xmlns="http://www.w3.org/2000/svg"
   xmlns:svg="http://www.w3.org/2000/svg">
  <defs
     id="defs2" />
  <rect
     x="2"
     y="2"
     width="316"
     height="76"
     rx="38"
     fill="#FFD76A"
     id="rect1" />
  <path
     d="M32 48 L35 35 L48 22 L56 30 L43 43 Z"
     fill="none"
     stroke="#12131A"
     stroke-width="2.2"
     stroke-linejoin="round"
     id="path1" />
  <path
     d="M35 35 L43 43"
     stroke="#12131A"
     stroke-width="2.2"
     id="path2" />
  <path
     d="m 75.647949,49 h 3.723145 v -6.494141 h 2.929687 L 85.767578,49 h 4.125977 l -3.869629,-7.092285 c 2.075195,-0.891113 3.222656,-2.685547 3.222656,-5.175781 0,-3.576661 -2.368164,-5.920411 -6.506348,-5.920411 h -7.092285 z m 3.723145,-9.509277 v -5.603028 h 2.67334 c 2.282714,0 3.356933,1.013184 3.356933,2.844239 0,1.818847 -1.074219,2.758789 -3.344726,2.758789 z M 92.066406,49 h 12.194824 v -3.088379 h -8.471679 v -4.577637 h 7.812499 v -3.03955 h -7.812499 v -4.394532 h 8.447269 V 30.811523 H 92.066406 Z m 20.507814,0 h 4.8706 l 6.22559,-18.188477 h -4.11377 l -2.80762,8.776856 c -0.54931,1.831055 -1.11084,3.930664 -1.72119,6.408691 -0.62256,-2.453613 -1.20849,-4.577636 -1.78222,-6.408691 l -2.90528,-8.776856 h -4.13818 z M 129.63965,30.811523 H 125.9165 V 49 h 3.72315 z M 132.93555,49 h 12.19482 v -3.088379 h -8.47168 v -4.577637 h 7.8125 v -3.03955 h -7.8125 v -4.394532 h 8.44727 v -3.088379 h -12.17041 z m 19.01855,0 h 4.26026 l 2.40478,-9.301758 c 0.354,-1.379394 0.57373,-2.832031 0.80566,-4.345703 0.25635,1.5625 0.50049,3.039551 0.83008,4.345703 L 162.67187,49 h 4.24805 l 4.89502,-18.188477 h -4.07715 l -2.11181,8.947754 c -0.36621,1.660157 -0.6836,3.613282 -0.97657,5.46875 -0.32959,-1.855468 -0.65918,-3.808593 -1.06201,-5.46875 l -2.20947,-8.947754 h -3.86963 l -2.22168,8.947754 c -0.41504,1.672364 -0.73242,3.649903 -1.06201,5.517578 -0.29297,-1.867675 -0.61035,-3.845214 -0.97656,-5.517578 l -2.11182,-8.947754 h -4.06494 z"
     id="text2"
     style="font-weight:700;font-size:25px;font-family:Inter;letter-spacing:0;fill:#12131a"
     aria-label="REVIEW" />
</svg>
