<?xml version="1.0" encoding="UTF-8" standalone="no"?>
<svg
   width="320"
   height="80"
   viewBox="0 0 320 80"
   fill="none"
   version="1.1"
   id="svg2"
   xmlns="http://www.w3.org/2000/svg"
   xmlns:svg="http://www.w3.org/2000/svg">
  <defs
     id="defs2" />
  <rect
     x="2"
     y="2"
     width="316"
     height="76"
     rx="38"
     fill="#E2DDD4"
     id="rect1" />
  <circle
     cx="42"
     cy="40"
     r="17"
     fill="none"
     stroke="#12131A"
     stroke-width="2"
     id="circle1" />
  <path
     d="m 40.467041,47 h 3.076172 V 35.536133 h -3.076172 z m 1.538086,-12.960938 c 0.922852,0 1.691894,-0.697265 1.691894,-1.579101 0,-0.871582 -0.769042,-1.579102 -1.691894,-1.579102 -0.933106,0 -1.691895,0.70752 -1.691895,1.579102 0,0.881836 0.758789,1.579101 1.691895,1.579101 z"
     id="text1"
     style="font-weight:700;font-size:21px;font-family:Inter;letter-spacing:0;text-anchor:middle;fill:#12131a"
     aria-label="i" />
  <path
     d="M 79.371094,30.811523 H 75.647949 V 49 h 3.723145 z M 82.666992,49 h 3.808594 v -8.361816 c 0,-1.074219 -0.109863,-3.027344 -0.244141,-5.22461 1.123047,2.270508 1.794434,3.601074 2.807617,5.236817 L 94.263672,49 H 98.42627 V 30.811523 h -3.808594 v 8.728028 c 0,1.196289 0.09766,3.149414 0.231933,4.93164 -0.793457,-1.892089 -1.5625,-3.271484 -2.282714,-4.455566 l -5.749512,-9.204102 h -4.150391 z m 19.055178,0 h 3.72314 v -6.982422 h 7.43408 v -3.039551 h -7.43408 v -5.078125 h 8.23975 v -3.088379 h -11.96289 z m 22.65625,0.244141 c 4.82178,0 8.48388,-3.405762 8.48388,-9.326172 0,-5.944824 -3.6621,-9.350586 -8.48388,-9.350586 -4.82178,0 -8.48389,3.405762 -8.48389,9.350586 0,5.908203 3.66211,9.326172 8.48389,9.326172 z m 0,-3.308106 c -2.81983,0 -4.69971,-2.124023 -4.69971,-6.018066 0,-3.90625 1.87988,-6.042481 4.69971,-6.042481 2.81982,0 4.6997,2.124024 4.6997,6.042481 0,3.894043 -1.87988,6.018066 -4.6997,6.018066 z"
     id="text2"
     style="font-weight:700;font-size:25px;font-family:Inter;letter-spacing:0;fill:#12131a"
     aria-label="INFO" />
</svg>
