<?xml version="1.0" encoding="UTF-8" standalone="no"?>
<svg
   width="820"
   height="220"
   viewBox="0 0 820 220"
   fill="none"
   version="1.1"
   id="svg8"
   xmlns="http://www.w3.org/2000/svg"
   xmlns:svg="http://www.w3.org/2000/svg">
  <defs
     id="defs8" />
  <g
     transform="translate(22 28) scale(1.25)"
     id="g7">
    <path
       d="M17 18 L31 12 L63 91 L50 103 Z"
       fill="#4D5DFF"
       id="path1" />
    <path
       d="M103 18 L89 12 L57 91 L70 103 Z"
       fill="#B8A8FF"
       id="path2" />
    <circle
       cx="24"
       cy="18"
       r="14"
       fill="#4D5DFF"
       id="circle2" />
    <circle
       cx="24"
       cy="18"
       r="7"
       fill="#FFFFFF"
       id="circle3" />
    <circle
       cx="96"
       cy="18"
       r="14"
       fill="#B8A8FF"
       id="circle4" />
    <circle
       cx="96"
       cy="18"
       r="7"
       fill="#FFFFFF"
       id="circle5" />
    <circle
       cx="60"
       cy="96"
       r="15"
       fill="#101426"
       id="circle6" />
    <circle
       cx="60"
       cy="96"
       r="10"
       fill="#F5F1E8"
       id="circle7" />
    <rect
       x="56"
       y="108"
       width="8"
       height="28"
       rx="4"
       fill="#F5F1E8"
       id="rect7" />
  </g>
  <path
     d="m 226.74414,115 h 17.51563 l 18.48046,-55.292969 h -14.54687 l -7.38477,24.158203 c -1.85547,6.308594 -3.52539,13.025391 -5.23242,20.410156 -1.78125,-7.347656 -3.52539,-14.138671 -5.41797,-20.410156 l -7.68164,-24.158203 h -14.73242 z m 43.24492,0 h 38.33399 V 104.3125 H 283.08867 V 92.289062 h 23.26758 V 81.824219 H 283.08867 V 70.394531 h 25.27149 v -10.6875 h -38.3711 z m 47.54961,0 h 13.09961 V 95.962891 h 7.125 L 347.89414,115 h 14.36133 L 350.71445,93.884766 c 6.12305,-2.746094 9.61133,-8.164063 9.61133,-15.808594 0,-11.28125 -7.68164,-18.369141 -20.15039,-18.369141 H 317.53867 Z M 330.63828,85.609375 V 70.320312 h 6.75391 c 6.16016,0 9.35156,2.597657 9.35156,7.75586 0,5.158203 -3.1914,7.533203 -9.31445,7.533203 z M 389.39493,115 c 16.81054,0 27.20117,-10.39062 27.20117,-27.646484 0,-17.25586 -10.39063,-27.646485 -27.20117,-27.646485 H 369.05899 V 115 Z M 382.1586,103.79297 V 70.914062 h 6.49414 c 9.68555,0 14.84375,4.453125 14.84375,16.439454 0,11.986328 -5.1582,16.439454 -14.6582,16.439454 z M 438.28047,59.707031 H 425.18086 V 115 h 13.09961 z m 34.70976,56.035159 c 15.0293,0 23.45313,-10.39063 24.45508,-20.261721 h -13.24804 c -0.92774,5.380861 -5.00977,8.757811 -10.94727,8.757811 -7.94141,0 -13.02539,-5.751952 -13.02539,-16.847655 0,-10.724609 4.97266,-16.921875 13.09961,-16.921875 5.9375,0 9.98242,3.376953 10.83594,8.757812 h 13.24804 c -1.52148,-12.876953 -11.28125,-20.261718 -24.41797,-20.261718 -14.73242,0 -26.16211,10.167968 -26.16211,28.425781 0,18.146485 11.20704,28.351565 26.16211,28.351565 z m 30.96174,-45.347659 h 16.73632 V 115 h 13.0625 V 70.394531 h 16.73633 v -10.6875 h -46.53515 z"
     id="text7"
     style="font-weight:800;font-size:76px;font-family:Inter;letter-spacing:1.2;fill:#f5f1e8"
     aria-label="VERDICT" />
  <path
     d="m 215.16602,174.28 c 6.388,0 10.09671,-3.96254 10.09671,-10.53387 0,-6.52902 -3.70871,-10.47746 -9.89929,-10.47746 h -7.03668 V 174.28 Z m -3.62411,-2.82031 v -15.37071 h 3.61 c 4.58301,0 6.95207,2.72161 6.95207,7.65715 0,4.97785 -2.36906,7.71356 -7.12128,7.71356 z m 33.32641,2.82031 h 3.21516 v -8.74297 h 8.91218 v -2.7498 h -8.91218 v -6.75465 h 9.85699 v -2.76391 h -13.07215 z m 35.9352,-21.01133 h -3.21516 V 174.28 h 3.21516 z M 301.15648,174.28 h 3.21516 v -7.93918 h 4.28688 c 0.0564,0 0.12691,0 0.18332,0 l 4.25867,7.93918 h 3.6523 l -4.62531,-8.48914 c 2.55238,-0.95891 3.83563,-3.10235 3.83563,-5.92266 0,-3.87793 -2.41137,-6.59953 -7.27641,-6.59953 h -7.53024 z m 3.21516,-10.68899 v -7.57253 h 3.94844 c 3.10234,0 4.38558,1.48066 4.38558,3.84972 0,2.35496 -1.28324,3.72281 -4.35738,3.72281 z"
     id="text8"
     style="font-weight:500;font-size:28.88px;font-family:Inter;letter-spacing:4;fill:#f5f1e8"
     aria-label="D F I R" />
</svg>
