<?xml version="1.0" encoding="UTF-8" standalone="no"?>
<svg
   width="1080"
   height="230"
   viewBox="0 0 1080 230"
   fill="none"
   version="1.1"
   id="svg17"
   xmlns="http://www.w3.org/2000/svg"
   xmlns:svg="http://www.w3.org/2000/svg">
  <defs
     id="defs17" />
  <rect
     width="1080"
     height="230"
     fill="#F5F1E8"
     id="rect1" />
  <rect
     x="20"
     y="20"
     width="112"
     height="132"
     rx="8"
     fill="#101426"
     stroke="#CFC9BD"
     id="rect2" />
  <path
     d="m 21.072754,170.52295 h 2.799316 l 1.942383,5.07178 1.955078,-5.07178 H 30.5625 V 180 h -2.082031 v -6.93164 l -1.961426,5.10986 h -1.396484 l -1.961426,-5.10986 V 180 h -2.088379 z m 11.641601,0 h 2.202637 V 180 h -2.202637 z m 6.550782,1.84717 v 5.78271 h 0.787109 q 1.345703,0 2.056641,-0.74267 0.710937,-0.74268 0.710937,-2.15821 0,-1.40918 -0.710937,-2.1455 -0.70459,-0.73633 -2.056641,-0.73633 z M 37.0625,170.52295 h 2.323242 q 1.942383,0 2.888184,0.31103 0.952148,0.30469 1.631347,1.04102 0.603028,0.64111 0.89502,1.479 0.291992,0.83789 0.291992,1.89795 0,1.07276 -0.291992,1.917 -0.291992,0.83789 -0.89502,1.479 -0.685546,0.73633 -1.644043,1.04736 Q 41.302734,180 39.385742,180 H 37.0625 Z m 9.711914,0 h 2.456543 l 3.104004,6.5 v -6.5 h 2.082031 V 180 h -2.456543 l -3.097656,-6.5 v 6.5 h -2.088379 z m 9.788086,0 h 2.202637 V 180 H 56.5625 Z m 12.016113,8.77246 q -0.825195,0.44434 -1.713867,0.6665 -0.882324,0.22217 -1.821777,0.22217 -2.132813,0 -3.376953,-1.32031 -1.244141,-1.32666 -1.244141,-3.59277 0,-2.29151 1.263184,-3.60547 1.269531,-1.31397 3.478515,-1.31397 0.850586,0 1.631348,0.17774 0.780762,0.17773 1.472656,0.52685 v 1.96143 q -0.717285,-0.45069 -1.421875,-0.67285 -0.70459,-0.22217 -1.415527,-0.22217 -1.313965,0 -2.024903,0.81885 -0.710937,0.8125 -0.710937,2.32959 0,1.50439 0.685547,2.32324 0.685547,0.81885 1.94873,0.81885 0.342774,0 0.634766,-0.0444 0.29834,-0.0508 0.526855,-0.15234 v -1.84082 h -1.339355 v -1.6377 h 3.427734 z m 1.929688,-8.77246 h 2.202636 v 3.61182 h 3.243653 v -3.61182 h 2.196289 V 180 H 75.95459 v -4.01807 H 72.710937 V 180 h -2.202636 z m 8.772461,0 h 7.858398 v 1.84717 H 84.314453 V 180 h -2.202637 v -7.62988 h -2.831054 z m 13.063476,0 h 2.202637 V 180 h -2.202637 z m 4.348145,0 h 2.456543 l 3.104004,6.5 v -6.5 h 2.08203 V 180 h -2.45654 l -3.097658,-6.5 v 6.5 h -2.088379 z m 9.788087,0 h 2.20264 v 3.45947 l 3.16748,-3.45947 h 2.5581 l -4.11328,4.48779 4.53223,4.98926 h -2.75489 l -3.38964,-3.73242 V 180 h -2.20264 z"
     id="text2"
     style="font-weight:700;font-size:13px;font-family:'DejaVu Sans Condensed';letter-spacing:0;fill:#12131a"
     aria-label="MIDNIGHT INK" />
  <path
     d="m 25.979492,196.28076 h -1.663086 l -0.476074,2.12012 h 1.669434 z m -0.856933,-3.61181 -0.590332,2.63427 h 1.663085 l 0.603028,-2.63427 h 0.914062 l -0.590332,2.63427 h 1.783692 v 0.97754 h -2.00586 l -0.469726,2.12012 h 1.821777 v 0.97119 H 26.208008 L 25.617676,202 h -0.914063 l 0.583985,-2.62793 H 23.618164 L 23.027832,202 h -0.92041 l 0.59668,-2.62793 h -1.802735 v -0.97119 h 2.012207 l 0.482422,-2.12012 h -1.84082 v -0.97754 h 2.062988 l 0.583984,-2.63427 z m 6.131836,8.25195 h 1.885253 v -7.22998 l -2.05664,0.45703 v -1.16797 l 2.043945,-0.45703 h 1.155274 v 8.39795 H 36.16748 V 202 h -4.913085 z m 9.705566,-7.55371 q -0.888672,0 -1.339356,0.97754 -0.450683,0.97119 -0.450683,2.92627 0,1.94873 0.450683,2.92627 0.450684,0.97119 1.339356,0.97119 0.895019,0 1.339355,-0.97119 Q 42.75,199.21973 42.75,197.271 q 0,-1.95508 -0.450684,-2.92627 -0.444336,-0.97754 -1.339355,-0.97754 z m 0,-1.01563 q 1.43457,0 2.189941,1.26319 0.755371,1.25683 0.755371,3.65625 0,2.39306 -0.755371,3.65625 -0.755371,1.25683 -2.189941,1.25683 -1.43457,0 -2.189941,-1.25683 -0.755372,-1.26319 -0.755372,-3.65625 0,-2.39942 0.755372,-3.65625 0.755371,-1.26319 2.189941,-1.26319 z m 5.17334,8.56934 h 1.885254 v -7.22998 l -2.056641,0.45703 v -1.16797 l 2.043945,-0.45703 h 1.155274 v 8.39795 h 1.885254 V 202 h -4.913086 z m 10.410156,-7.28076 -2.913574,5.05908 h 2.913574 z m -0.304687,-1.11719 h 1.453613 v 6.17627 h 1.212402 v 1.0664 H 57.692383 V 202 h -1.148926 v -2.23438 H 52.69043 v -1.23779 z m 5.566894,8.39795 h 4.024414 V 202 h -5.414551 v -1.0791 q 0.653809,-0.75537 1.790039,-2.0249 1.136231,-1.27588 1.428223,-1.64405 0.552246,-0.69189 0.768066,-1.16797 0.222168,-0.48242 0.222168,-0.9458 0,-0.75537 -0.476074,-1.23144 -0.476074,-0.47608 -1.24414,-0.47608 -0.539551,0 -1.142579,0.20948 -0.603027,0.20947 -1.288574,0.63476 v -1.29492 q 0.698242,-0.31103 1.30127,-0.46973 0.609375,-0.15869 1.11084,-0.15869 1.32666,0 2.113769,0.73633 0.78711,0.73633 0.78711,1.96777 0,0.58399 -0.196778,1.11084 -0.196777,0.52051 -0.717285,1.23145 -0.145996,0.18408 -0.914062,1.06641 -0.761719,0.87597 -2.151856,2.45654 z m 9.051758,-4.17041 q -0.774414,0 -1.231445,0.59033 -0.450684,0.59033 -0.450684,1.61865 0,1.02198 0.450684,1.61865 0.457031,0.59034 1.231445,0.59034 0.780762,0 1.231445,-0.59034 0.457031,-0.59667 0.457031,-1.61865 0,-1.02832 -0.457031,-1.61865 -0.450683,-0.59033 -1.231445,-0.59033 z m 2.291504,-4.01807 v 1.16797 q -0.431641,-0.22852 -0.875977,-0.34912 -0.444336,-0.12061 -0.875976,-0.12061 -1.142578,0 -1.745606,0.85694 -0.603027,0.85693 -0.685547,2.58984 0.336426,-0.55224 0.844239,-0.84424 0.507812,-0.29834 1.117187,-0.29834 1.288574,0 2.03125,0.86963 0.749024,0.86328 0.749024,2.35498 0,1.45996 -0.780762,2.34229 -0.774414,0.88232 -2.069336,0.88232 -1.479004,0 -2.259766,-1.25683 -0.780761,-1.26319 -0.780761,-3.65625 0,-2.24707 0.958496,-3.58008 0.958496,-1.33936 2.577148,-1.33936 0.431641,0 0.875977,0.0952 0.444336,0.0952 0.92041,0.28564 z"
     id="text3"
     style="font-weight:500;font-size:13px;font-family:'DejaVu Sans Condensed';letter-spacing:0;fill:#12131a"
     aria-label="#101426" />
  <rect
     x="152"
     y="20"
     width="112"
     height="132"
     rx="8"
     fill="#4D5DFF"
     stroke="#CFC9BD"
     id="rect3" />
  <path
     d="m 153.07275,170.52295 h 5.93506 v 1.84717 h -3.73242 v 1.76465 h 3.51025 v 1.84716 h -3.51025 v 2.1709 h 3.85938 V 180 h -6.06202 z m 7.9917,0 h 2.20264 v 7.62988 h 3.85937 V 180 h -6.06201 z m 7.45215,0 h 5.93506 v 1.84717 h -3.73242 v 1.76465 h 3.51025 v 1.84716 h -3.51025 v 2.1709 h 3.85937 V 180 h -6.06201 z m 14.7583,8.95654 q -0.60937,0.34912 -1.26953,0.52686 -0.65381,0.17773 -1.36475,0.17773 -2.13281,0 -3.37695,-1.32031 -1.24414,-1.32666 -1.24414,-3.59277 0,-2.27246 1.24414,-3.59278 1.24414,-1.32666 3.37695,-1.32666 0.71094,0 1.36475,0.17774 0.66016,0.17773 1.26953,0.52685 v 1.96143 q -0.61572,-0.46338 -1.2124,-0.6792 -0.59033,-0.21582 -1.24414,-0.21582 -1.18066,0 -1.85352,0.83789 -0.67285,0.83789 -0.67285,2.31055 0,1.4663 0.67285,2.3042 0.67286,0.83789 1.85352,0.83789 0.65381,0 1.24414,-0.21582 0.59668,-0.21582 1.2124,-0.6792 z m 0.79981,-8.95654 h 7.8584 v 1.84717 H 189.1084 V 180 h -2.20264 v -7.62988 h -2.83105 z m 12.12402,4.20215 q 0.68555,0 0.98389,-0.28565 0.30468,-0.28564 0.30468,-0.93945 0,-0.64746 -0.30468,-0.92676 -0.29834,-0.27929 -0.98389,-0.27929 h -0.92676 v 2.43115 z m -0.92676,1.68847 V 180 h -2.20263 v -9.47705 h 3.35791 q 1.68847,0 2.46923,0.62842 0.78711,0.62842 0.78711,1.98681 0,0.93946 -0.40625,1.54248 -0.40625,0.60303 -1.23144,0.88868 0.45068,0.11425 0.80615,0.5205 0.36182,0.39991 0.72363,1.21875 L 200.76904,180 h -2.34228 l -1.03467,-2.35498 q -0.31738,-0.71094 -0.64111,-0.97119 -0.32373,-0.26026 -0.85694,-0.26026 z m 6.80469,-5.89062 h 2.20264 V 180 h -2.20264 z m 11.11475,8.95654 q -0.60938,0.34912 -1.26954,0.52686 -0.6538,0.17773 -1.36474,0.17773 -2.13281,0 -3.37695,-1.32031 -1.24414,-1.32666 -1.24414,-3.59277 0,-2.27246 1.24414,-3.59278 1.24414,-1.32666 3.37695,-1.32666 0.71094,0 1.36474,0.17774 0.66016,0.17773 1.26954,0.52685 v 1.96143 q -0.61573,-0.46338 -1.21241,-0.6792 -0.59033,-0.21582 -1.24414,-0.21582 -1.18066,0 -1.85351,0.83789 -0.67285,0.83789 -0.67285,2.31055 0,1.4663 0.67285,2.3042 0.67285,0.83789 1.85351,0.83789 0.65381,0 1.24414,-0.21582 0.59668,-0.21582 1.21241,-0.6792 z m 12.65088,0 q -0.60938,0.34912 -1.26954,0.52686 -0.6538,0.17773 -1.36474,0.17773 -2.13281,0 -3.37696,-1.32031 -1.24414,-1.32666 -1.24414,-3.59277 0,-2.27246 1.24414,-3.59278 1.24415,-1.32666 3.37696,-1.32666 0.71094,0 1.36474,0.17774 0.66016,0.17773 1.26954,0.52685 v 1.96143 q -0.61573,-0.46338 -1.21241,-0.6792 -0.59033,-0.21582 -1.24414,-0.21582 -1.18066,0 -1.85351,0.83789 -0.67286,0.83789 -0.67286,2.31055 0,1.4663 0.67286,2.3042 0.67285,0.83789 1.85351,0.83789 0.65381,0 1.24414,-0.21582 0.59668,-0.21582 1.21241,-0.6792 z m 5.71289,-7.35693 q -1.00293,0 -1.56153,0.82519 -0.55224,0.8252 -0.55224,2.32325 0,1.4917 0.55224,2.31689 0.5586,0.8252 1.56153,0.8252 1.00927,0 1.56152,-0.8252 0.55859,-0.82519 0.55859,-2.31689 0,-1.49805 -0.55859,-2.32325 -0.55225,-0.82519 -1.56152,-0.82519 z m 0,-1.771 q 2.05664,0 3.21826,1.30762 1.16797,1.30762 1.16797,3.61182 0,2.29785 -1.16797,3.60546 -1.16162,1.30762 -3.21826,1.30762 -2.0503,0 -3.21827,-1.30762 -1.16796,-1.30761 -1.16796,-3.60546 0,-2.3042 1.16796,-3.61182 1.16797,-1.30762 3.21827,-1.30762 z m 9.458,3.84033 q 0.52051,0 0.78711,-0.2539 0.27295,-0.25391 0.27295,-0.74903 0,-0.48876 -0.27295,-0.74267 -0.2666,-0.26025 -0.78711,-0.26025 h -1.2124 v 2.00585 z m 0.0762,4.14502 q 0.6665,0 0.99658,-0.31103 0.33642,-0.31104 0.33642,-0.93945 0,-0.61573 -0.33642,-0.92041 -0.33008,-0.31104 -0.99658,-0.31104 h -1.28858 v 2.48193 z m 2.04394,-3.40869 q 0.71094,0.22852 1.09815,0.84424 0.3872,0.61572 0.3872,1.51074 0,1.3711 -0.83789,2.04395 Q 242.94922,180 241.24805,180 h -3.64991 v -9.47705 h 3.30079 q 1.77734,0 2.5708,0.59668 0.7998,0.59668 0.7998,1.91064 0,0.6919 -0.29199,1.18067 -0.28565,0.48242 -0.84424,0.71728 z m 8.55664,3.34522 h -3.44043 L 247.70361,180 h -2.20898 l 3.16113,-9.47705 h 2.62158 L 254.43848,180 h -2.21534 z m -2.89453,-1.7583 h 2.33594 l -1.16162,-3.77051 z m 6.7666,-5.99219 h 2.20264 v 7.62988 h 3.85937 V 180 h -6.06201 z m 4.28467,0 h 7.8584 v 1.84717 h -2.82471 V 180 h -2.20264 v -7.62988 h -2.83105 z"
     id="text4"
     style="font-weight:700;font-size:13px;font-family:'DejaVu Sans Condensed';letter-spacing:0;fill:#12131a"
     aria-label="ELECTRIC COBALT" />
  <path
     d="m 157.97949,196.28076 h -1.66308 l -0.47608,2.12012 h 1.66944 z m -0.85693,-3.61181 -0.59033,2.63427 h 1.66308 l 0.60303,-2.63427 h 0.91406 l -0.59033,2.63427 h 1.78369 v 0.97754 h -2.00586 l -0.46972,2.12012 h 1.82177 v 0.97119 h -2.04394 L 157.61768,202 h -0.91407 l 0.58399,-2.62793 h -1.66944 L 155.02783,202 h -0.92041 l 0.59668,-2.62793 h -1.80273 v -0.97119 h 2.0122 l 0.48243,-2.12012 h -1.84082 v -0.97754 h 2.06298 l 0.58399,-2.63427 z m 9.10254,0.97119 -2.91358,5.05908 h 2.91358 z m -0.30469,-1.11719 h 1.45361 v 6.17627 h 1.21241 v 1.0664 h -1.21241 V 202 h -1.14892 v -2.23438 h -3.85303 v -1.23779 z m 5.62402,1.05371 v 7.36963 h 1.39014 q 1.76465,0 2.5835,-0.88867 0.82519,-0.88867 0.82519,-2.80567 0,-1.90429 -0.82519,-2.78662 -0.81885,-0.88867 -2.5835,-0.88867 z m -1.15527,-1.05371 h 2.36768 q 2.48193,0 3.6372,1.14892 1.16162,1.14258 1.16162,3.58008 0,2.4502 -1.16796,3.59912 Q 175.22607,202 172.75684,202 h -2.36768 z m 9.12158,0 h 4.53223 v 1.0791 h -3.47852 v 2.32324 q 0.25391,-0.0952 0.50147,-0.13965 0.2539,-0.0508 0.50781,-0.0508 1.42822,0 2.25977,0.86963 0.83789,0.86963 0.83789,2.35498 0,1.52979 -0.85694,2.38037 -0.85693,0.84424 -2.41845,0.84424 -0.53955,0 -1.09815,-0.10156 -0.55224,-0.10156 -1.14892,-0.30469 v -1.28857 q 0.51416,0.31103 1.06005,0.46338 0.55225,0.15234 1.16163,0.15234 0.99023,0 1.56787,-0.57764 0.57763,-0.57763 0.57763,-1.56787 0,-0.99023 -0.57763,-1.56787 -0.57764,-0.57764 -1.56787,-0.57764 -0.46338,0 -0.92676,0.11426 -0.45703,0.11426 -0.93311,0.35547 z m 8.48047,1.05371 v 7.36963 h 1.39014 q 1.76465,0 2.58349,-0.88867 0.8252,-0.88867 0.8252,-2.80567 0,-1.90429 -0.8252,-2.78662 -0.81884,-0.88867 -2.58349,-0.88867 z m -1.15527,-1.05371 h 2.36767 q 2.48194,0 3.63721,1.14892 1.16162,1.14258 1.16162,3.58008 0,2.4502 -1.16797,3.59912 Q 191.67285,202 189.20361,202 h -2.36767 z m 9.00732,0 h 4.90039 v 1.0791 h -3.74511 v 2.79297 h 3.3833 v 1.0791 h -3.3833 V 202 h -1.15528 z m 6.72852,0 h 4.90039 v 1.0791 h -3.74512 v 2.79297 h 3.3833 v 1.0791 h -3.3833 V 202 h -1.15527 z"
     id="text5"
     style="font-weight:500;font-size:13px;font-family:'DejaVu Sans Condensed';letter-spacing:0;fill:#12131a"
     aria-label="#4D5DFF" />
  <rect
     x="284"
     y="20"
     width="112"
     height="132"
     rx="8"
     fill="#B8A8FF"
     stroke="#CFC9BD"
     id="rect5" />
  <path
     d="m 291.00781,170.82129 v 2.00586 q -0.69824,-0.34912 -1.37109,-0.52686 -0.66651,-0.17773 -1.26318,-0.17773 -0.78711,0 -1.16797,0.24121 -0.37452,0.24121 -0.37452,0.74902 0,0.38086 0.25391,0.59668 0.25391,0.20948 0.92676,0.36182 l 0.9331,0.20947 q 1.42823,0.31738 2.02491,0.96485 0.59668,0.64746 0.59668,1.84082 0,1.56787 -0.83789,2.33593 -0.83155,0.76172 -2.55176,0.76172 -0.8125,0 -1.63135,-0.17138 -0.8125,-0.17139 -1.63135,-0.50782 v -2.06299 q 0.81885,0.48243 1.58057,0.72998 0.76172,0.24122 1.47266,0.24122 0.71728,0 1.09814,-0.26661 0.38721,-0.2666 0.38721,-0.76171 0,-0.44434 -0.26026,-0.68555 -0.26025,-0.24121 -1.04101,-0.43164 l -0.85059,-0.20947 q -1.27588,-0.30469 -1.87256,-0.9712 -0.59033,-0.6665 -0.59033,-1.79638 0,-1.41553 0.8252,-2.17725 0.82519,-0.76172 2.36132,-0.76172 0.70459,0 1.44727,0.12061 0.74268,0.11426 1.53613,0.34912 z m 6.38574,1.30127 q -1.00293,0 -1.56152,0.82519 -0.55224,0.8252 -0.55224,2.32325 0,1.4917 0.55224,2.31689 0.55859,0.8252 1.56152,0.8252 1.00928,0 1.56153,-0.8252 0.55859,-0.82519 0.55859,-2.31689 0,-1.49805 -0.55859,-2.32325 -0.55225,-0.82519 -1.56153,-0.82519 z m 0,-1.771 q 2.05665,0 3.21827,1.30762 1.16797,1.30762 1.16797,3.61182 0,2.29785 -1.16797,3.60546 -1.16162,1.30762 -3.21827,1.30762 -2.05029,0 -3.21826,-1.30762 -1.16797,-1.30761 -1.16797,-3.60546 0,-2.3042 1.16797,-3.61182 1.16797,-1.30762 3.21826,-1.30762 z m 6.04297,0.17139 h 5.93506 v 1.84717 h -3.73242 v 1.76465 h 3.51025 v 1.84716 h -3.51025 V 180 h -2.20264 z m 6.97608,0 h 7.8584 v 1.84717 h -2.82471 V 180 h -2.20264 v -7.62988 h -2.83105 z m 13.06347,0 h 2.20264 v 7.62988 h 3.85938 V 180 h -6.06202 z m 7.45215,0 h 2.20264 V 180 h -2.20264 z m 4.34815,0 h 2.20263 v 7.62988 h 3.85938 V 180 h -6.06201 z m 12.63183,7.75049 h -3.44043 L 343.92187,180 h -2.20898 l 3.16113,-9.47705 h 2.62159 L 350.65674,180 h -2.21533 z m -2.89453,-1.7583 h 2.33594 l -1.16162,-3.77051 z m 13.5332,2.96435 q -0.60937,0.34912 -1.26953,0.52686 -0.6538,0.17773 -1.36474,0.17773 -2.13281,0 -3.37696,-1.32031 -1.24414,-1.32666 -1.24414,-3.59277 0,-2.27246 1.24414,-3.59278 1.24415,-1.32666 3.37696,-1.32666 0.71094,0 1.36474,0.17774 0.66016,0.17773 1.26953,0.52685 v 1.96143 q -0.61572,-0.46338 -1.2124,-0.6792 -0.59033,-0.21582 -1.24414,-0.21582 -1.18066,0 -1.85351,0.83789 -0.67286,0.83789 -0.67286,2.31055 0,1.4663 0.67286,2.3042 0.67285,0.83789 1.85351,0.83789 0.65381,0 1.24414,-0.21582 0.59668,-0.21582 1.2124,-0.6792 z"
     id="text6"
     style="font-weight:700;font-size:13px;font-family:'DejaVu Sans Condensed';letter-spacing:0;fill:#12131a"
     aria-label="SOFT LILAC" />
  <path
     d="m 289.97949,196.28076 h -1.66308 l -0.47608,2.12012 h 1.66944 z m -0.85693,-3.61181 -0.59033,2.63427 h 1.66308 l 0.60303,-2.63427 h 0.91406 l -0.59033,2.63427 h 1.78369 v 0.97754 h -2.00586 l -0.46972,2.12012 h 1.82177 v 0.97119 h -2.04394 L 289.61768,202 h -0.91407 l 0.58399,-2.62793 h -1.66944 L 287.02783,202 h -0.92041 l 0.59668,-2.62793 h -1.80273 v -0.97119 h 2.0122 l 0.48243,-2.12012 h -1.84082 v -0.97754 h 2.06298 l 0.58399,-2.63427 z m 6.98242,4.80517 v 3.47217 h 1.84717 q 0.9331,0 1.37744,-0.42529 0.45068,-0.43164 0.45068,-1.31397 0,-0.88867 -0.45068,-1.30762 -0.44434,-0.42529 -1.37744,-0.42529 z m 0,-3.89746 v 2.85645 h 1.70752 q 0.84424,0 1.25684,-0.34913 0.41894,-0.35546 0.41894,-1.0791 0,-0.71728 -0.41894,-1.07275 -0.4126,-0.35547 -1.25684,-0.35547 z m -1.15527,-1.05371 h 2.94531 q 1.32031,0 2.03125,0.60937 0.71728,0.60938 0.71728,1.73291 0,0.86963 -0.36816,1.38379 -0.36182,0.51416 -1.07275,0.64112 0.85693,0.20312 1.32666,0.85058 0.46972,0.64112 0.46972,1.60596 0,1.26953 -0.78076,1.96143 Q 299.44385,202 298.00928,202 h -3.05957 z m 10.59424,4.97656 q -0.8252,0 -1.29493,0.48877 -0.46972,0.48877 -0.46972,1.3457 0,0.85694 0.46972,1.34571 0.46973,0.48877 1.29493,0.48877 0.82519,0 1.29492,-0.48877 0.47607,-0.49512 0.47607,-1.34571 0,-0.85693 -0.47607,-1.3457 -0.46973,-0.48877 -1.29492,-0.48877 z m -1.15528,-0.5459 q -0.74267,-0.20312 -1.15527,-0.76806 -0.4126,-0.56494 -0.4126,-1.37744 0,-1.13624 0.72363,-1.79639 0.72998,-0.66016 1.99952,-0.66016 1.27587,0 1.99951,0.66016 0.72363,0.66015 0.72363,1.79639 0,0.8125 -0.4126,1.37744 -0.4126,0.56494 -1.14892,0.76806 0.83154,0.21582 1.29492,0.84424 0.46972,0.62842 0.46972,1.53613 0,1.37745 -0.76171,2.11377 -0.75538,0.73633 -2.16455,0.73633 -1.40918,0 -2.1709,-0.73633 -0.75537,-0.73632 -0.75537,-2.11377 0,-0.90771 0.46972,-1.53613 0.46973,-0.62842 1.30127,-0.84424 z m -0.41894,-2.0249 q 0,0.73633 0.41259,1.14893 0.4126,0.41259 1.16163,0.41259 0.74267,0 1.16162,-0.41259 0.41894,-0.4126 0.41894,-1.14893 0,-0.73633 -0.41894,-1.14892 -0.41895,-0.4126 -1.16162,-0.4126 -0.74903,0 -1.16163,0.4126 -0.41259,0.41259 -0.41259,1.14892 z m 9.29297,-1.14258 -1.56788,4.71631 h 3.14209 z m -0.65381,-1.26318 h 1.31396 l 3.25,9.47705 h -1.19971 l -0.78076,-2.43115 H 311.3457 L 310.57129,202 h -1.21875 z m 8.37256,4.97656 q -0.8252,0 -1.29493,0.48877 -0.46972,0.48877 -0.46972,1.3457 0,0.85694 0.46972,1.34571 0.46973,0.48877 1.29493,0.48877 0.82519,0 1.29492,-0.48877 0.47607,-0.49512 0.47607,-1.34571 0,-0.85693 -0.47607,-1.3457 -0.46973,-0.48877 -1.29492,-0.48877 z m -1.15528,-0.5459 q -0.74267,-0.20312 -1.15527,-0.76806 -0.4126,-0.56494 -0.4126,-1.37744 0,-1.13624 0.72363,-1.79639 0.72998,-0.66016 1.99952,-0.66016 1.27587,0 1.99951,0.66016 0.72363,0.66015 0.72363,1.79639 0,0.8125 -0.4126,1.37744 -0.4126,0.56494 -1.14892,0.76806 0.83154,0.21582 1.29492,0.84424 0.46972,0.62842 0.46972,1.53613 0,1.37745 -0.76171,2.11377 -0.75538,0.73633 -2.16455,0.73633 -1.40918,0 -2.1709,-0.73633 -0.75537,-0.73632 -0.75537,-2.11377 0,-0.90771 0.46972,-1.53613 0.46973,-0.62842 1.30127,-0.84424 z m -0.41894,-2.0249 q 0,0.73633 0.41259,1.14893 0.4126,0.41259 1.16163,0.41259 0.74267,0 1.16162,-0.41259 0.41894,-0.4126 0.41894,-1.14893 0,-0.73633 -0.41894,-1.14892 -0.41895,-0.4126 -1.16162,-0.4126 -0.74903,0 -1.16163,0.4126 -0.41259,0.41259 -0.41259,1.14892 z m 6.44287,-2.40576 h 4.90039 v 1.0791 h -3.74512 v 2.79297 h 3.3833 v 1.0791 h -3.3833 V 202 h -1.15527 z m 6.72851,0 h 4.90039 v 1.0791 h -3.74511 v 2.79297 h 3.3833 v 1.0791 h -3.3833 V 202 h -1.15528 z"
     id="text7"
     style="font-weight:500;font-size:13px;font-family:'DejaVu Sans Condensed';letter-spacing:0;fill:#12131a"
     aria-label="#B8A8FF" />
  <rect
     x="416"
     y="20"
     width="112"
     height="132"
     rx="8"
     fill="#F5F1E8"
     stroke="#CFC9BD"
     id="rect7" />
  <path
     d="m 417.07275,170.52295 h 3.64991 q 1.63134,0 2.50097,0.80615 0.86963,0.79981 0.86963,2.28516 0,1.4917 -0.86963,2.29785 -0.86963,0.7998 -2.50097,0.7998 h -1.44727 V 180 h -2.20264 z m 2.20264,1.771 v 2.64697 h 1.2124 q 0.64112,0 0.99024,-0.34278 0.34912,-0.34912 0.34912,-0.98388 0,-0.63477 -0.34912,-0.97754 -0.34912,-0.34277 -0.99024,-0.34277 z m 10.35303,5.97949 h -3.44043 L 425.64209,180 h -2.20898 l 3.16113,-9.47705 h 2.62158 L 432.37695,180 h -2.21533 z m -2.89453,-1.7583 h 2.33593 l -1.16162,-3.77051 z m 6.7666,-5.99219 h 3.6499 q 1.63135,0 2.50098,0.80615 0.86963,0.79981 0.86963,2.28516 0,1.4917 -0.86963,2.29785 -0.86963,0.7998 -2.50098,0.7998 h -1.44727 V 180 h -2.20263 z m 2.20263,1.771 v 2.64697 h 1.21241 q 0.64111,0 0.99023,-0.34278 0.34912,-0.34912 0.34912,-0.98388 0,-0.63477 -0.34912,-0.97754 -0.34912,-0.34277 -0.99023,-0.34277 z m 6.3667,-1.771 h 5.93506 v 1.84717 h -3.73242 v 1.76465 h 3.51025 v 1.84716 h -3.51025 v 2.1709 h 3.85938 V 180 h -6.06202 z m 11.1211,4.20215 q 0.68554,0 0.98388,-0.28565 0.30469,-0.28564 0.30469,-0.93945 0,-0.64746 -0.30469,-0.92676 -0.29834,-0.27929 -0.98388,-0.27929 h -0.92676 v 2.43115 z m -0.92676,1.68847 V 180 h -2.20264 v -9.47705 h 3.35791 q 1.68848,0 2.46924,0.62842 0.78711,0.62842 0.78711,1.98681 0,0.93946 -0.40625,1.54248 -0.40625,0.60303 -1.23144,0.88868 0.45068,0.11425 0.80615,0.5205 0.36181,0.39991 0.72363,1.21875 L 457.76123,180 h -2.34228 l -1.03467,-2.35498 q -0.31739,-0.71094 -0.64112,-0.97119 -0.32373,-0.26026 -0.85693,-0.26026 z m 17.64014,3.06592 q -0.60938,0.34912 -1.26953,0.52686 -0.65381,0.17773 -1.36475,0.17773 -2.13281,0 -3.37695,-1.32031 -1.24414,-1.32666 -1.24414,-3.59277 0,-2.27246 1.24414,-3.59278 1.24414,-1.32666 3.37695,-1.32666 0.71094,0 1.36475,0.17774 0.66015,0.17773 1.26953,0.52685 v 1.96143 q -0.61573,-0.46338 -1.21241,-0.6792 -0.59033,-0.21582 -1.24414,-0.21582 -1.18066,0 -1.85351,0.83789 -0.67285,0.83789 -0.67285,2.31055 0,1.4663 0.67285,2.3042 0.67285,0.83789 1.85351,0.83789 0.65381,0 1.24414,-0.21582 0.59668,-0.21582 1.21241,-0.6792 z m 4.94482,-4.75439 q 0.68555,0 0.98389,-0.28565 0.30469,-0.28564 0.30469,-0.93945 0,-0.64746 -0.30469,-0.92676 -0.29834,-0.27929 -0.98389,-0.27929 h -0.92676 v 2.43115 z m -0.92676,1.68847 V 180 h -2.20263 v -9.47705 h 3.35791 q 1.68847,0 2.46923,0.62842 0.78711,0.62842 0.78711,1.98681 0,0.93946 -0.40625,1.54248 -0.40625,0.60303 -1.23144,0.88868 0.45068,0.11425 0.80615,0.5205 0.36182,0.39991 0.72363,1.21875 L 479.41943,180 h -2.34228 l -1.03467,-2.35498 q -0.31738,-0.71094 -0.64111,-0.97119 -0.32373,-0.26026 -0.85694,-0.26026 z m 6.80469,-5.89062 h 5.93506 v 1.84717 h -3.73242 v 1.76465 h 3.51025 v 1.84716 h -3.51025 v 2.1709 h 3.85937 V 180 h -6.06201 z m 13.17139,7.75049 h -3.44043 L 489.91211,180 h -2.20899 l 3.16114,-9.47705 h 2.62158 L 496.64697,180 h -2.21533 z m -2.89453,-1.7583 h 2.33593 l -1.16162,-3.77051 z m 6.7666,-5.99219 h 2.79931 l 1.94239,5.07178 1.95508,-5.07178 h 2.79296 V 180 h -2.08203 v -6.93164 l -1.96142,5.10986 h -1.39649 l -1.96142,-5.10986 V 180 h -2.08838 z"
     id="text8"
     style="font-weight:700;font-size:13px;font-family:'DejaVu Sans Condensed';letter-spacing:0;fill:#12131a"
     aria-label="PAPER CREAM" />
  <path
     d="m 421.97949,196.28076 h -1.66308 l -0.47608,2.12012 h 1.66944 z m -0.85693,-3.61181 -0.59033,2.63427 h 1.66308 l 0.60303,-2.63427 h 0.91406 l -0.59033,2.63427 h 1.78369 v 0.97754 h -2.00586 l -0.46972,2.12012 h 1.82177 v 0.97119 h -2.04394 L 421.61768,202 h -0.91407 l 0.58399,-2.62793 h -1.66944 L 419.02783,202 h -0.92041 l 0.59668,-2.62793 h -1.80273 v -0.97119 h 2.0122 l 0.48243,-2.12012 h -1.84082 v -0.97754 h 2.06298 l 0.58399,-2.63427 z m 5.82715,-0.146 h 4.90039 v 1.0791 h -3.74512 v 2.79297 h 3.3833 v 1.0791 h -3.3833 V 202 h -1.15527 z m 6.84277,0 h 4.53223 v 1.0791 h -3.47852 v 2.32324 q 0.25391,-0.0952 0.50147,-0.13965 0.2539,-0.0508 0.50781,-0.0508 1.42822,0 2.25976,0.86963 0.83789,0.86963 0.83789,2.35498 0,1.52979 -0.85693,2.38037 -0.85693,0.84424 -2.41846,0.84424 -0.53955,0 -1.09814,-0.10156 -0.55225,-0.10156 -1.14893,-0.30469 v -1.28857 q 0.51416,0.31103 1.06006,0.46338 0.55225,0.15234 1.16162,0.15234 0.99024,0 1.56787,-0.57764 0.57764,-0.57763 0.57764,-1.56787 0,-0.99023 -0.57764,-1.56787 -0.57763,-0.57764 -1.56787,-0.57764 -0.46338,0 -0.92675,0.11426 -0.45704,0.11426 -0.93311,0.35547 z m 7.3252,0 h 4.90039 v 1.0791 h -3.74512 v 2.79297 h 3.3833 v 1.0791 h -3.3833 V 202 h -1.15527 z m 7.0332,8.39795 h 1.88525 v -7.22998 l -2.05664,0.45703 v -1.16797 l 2.04395,-0.45703 h 1.15527 v 8.39795 h 1.88525 V 202 h -4.91308 z m 7.13476,-8.39795 h 5.38916 v 1.0791 h -4.23388 v 2.80566 h 4.0625 v 1.07911 h -4.0625 v 3.43408 h 4.34179 V 202 h -5.49707 z m 9.95948,4.97656 q -0.8252,0 -1.29492,0.48877 -0.46973,0.48877 -0.46973,1.3457 0,0.85694 0.46973,1.34571 0.46972,0.48877 1.29492,0.48877 0.82519,0 1.29492,-0.48877 0.47607,-0.49512 0.47607,-1.34571 0,-0.85693 -0.47607,-1.3457 -0.46973,-0.48877 -1.29492,-0.48877 z m -1.15528,-0.5459 q -0.74267,-0.20312 -1.15527,-0.76806 -0.4126,-0.56494 -0.4126,-1.37744 0,-1.13624 0.72364,-1.79639 0.72998,-0.66016 1.99951,-0.66016 1.27588,0 1.99951,0.66016 0.72363,0.66015 0.72363,1.79639 0,0.8125 -0.4126,1.37744 -0.41259,0.56494 -1.14892,0.76806 0.83154,0.21582 1.29492,0.84424 0.46973,0.62842 0.46973,1.53613 0,1.37745 -0.76172,2.11377 -0.75537,0.73633 -2.16455,0.73633 -1.40918,0 -2.1709,-0.73633 -0.75537,-0.73632 -0.75537,-2.11377 0,-0.90771 0.46972,-1.53613 0.46973,-0.62842 1.30127,-0.84424 z m -0.41894,-2.0249 q 0,0.73633 0.4126,1.14893 0.41259,0.41259 1.16162,0.41259 0.74267,0 1.16162,-0.41259 0.41894,-0.4126 0.41894,-1.14893 0,-0.73633 -0.41894,-1.14892 -0.41895,-0.4126 -1.16162,-0.4126 -0.74903,0 -1.16162,0.4126 -0.4126,0.41259 -0.4126,1.14892 z"
     id="text9"
     style="font-weight:500;font-size:13px;font-family:'DejaVu Sans Condensed';letter-spacing:0;fill:#12131a"
     aria-label="#F5F1E8" />
  <rect
     x="548"
     y="20"
     width="112"
     height="132"
     rx="8"
     fill="#73D9C2"
     stroke="#CFC9BD"
     id="rect9" />
  <path
     d="m 555.00781,170.82129 v 2.00586 q -0.69824,-0.34912 -1.37109,-0.52686 -0.66651,-0.17773 -1.26318,-0.17773 -0.78711,0 -1.16797,0.24121 -0.37452,0.24121 -0.37452,0.74902 0,0.38086 0.25391,0.59668 0.25391,0.20948 0.92676,0.36182 l 0.9331,0.20947 q 1.42823,0.31738 2.02491,0.96485 0.59668,0.64746 0.59668,1.84082 0,1.56787 -0.83789,2.33593 -0.83155,0.76172 -2.55176,0.76172 -0.8125,0 -1.63135,-0.17138 -0.8125,-0.17139 -1.63135,-0.50782 v -2.06299 q 0.81885,0.48243 1.58057,0.72998 0.76172,0.24122 1.47266,0.24122 0.71728,0 1.09814,-0.26661 0.38721,-0.2666 0.38721,-0.76171 0,-0.44434 -0.26026,-0.68555 -0.26025,-0.24121 -1.04101,-0.43164 l -0.85059,-0.20947 q -1.27588,-0.30469 -1.87256,-0.9712 -0.59033,-0.6665 -0.59033,-1.79638 0,-1.41553 0.8252,-2.17725 0.82519,-0.76172 2.36132,-0.76172 0.70459,0 1.44727,0.12061 0.74268,0.11426 1.53613,0.34912 z m 2.48828,-0.29834 h 5.93506 v 1.84717 h -3.73242 v 1.76465 h 3.51025 v 1.84716 h -3.51025 v 2.1709 h 3.85938 V 180 h -6.06202 z m 13.17139,7.75049 h -3.44043 L 566.68115,180 h -2.20898 l 3.16113,-9.47705 h 2.62158 L 573.41602,180 h -2.21534 z m -2.89453,-1.7583 h 2.33594 l -1.16162,-3.77051 z m 6.7666,-5.99219 h 5.93506 v 1.84717 h -3.73242 v 1.76465 h 3.51025 v 1.84716 h -3.51025 V 180 h -2.20264 z m 11.88916,1.59961 q -1.00293,0 -1.56152,0.82519 -0.55225,0.8252 -0.55225,2.32325 0,1.4917 0.55225,2.31689 0.55859,0.8252 1.56152,0.8252 1.00928,0 1.56152,-0.8252 0.5586,-0.82519 0.5586,-2.31689 0,-1.49805 -0.5586,-2.32325 -0.55224,-0.82519 -1.56152,-0.82519 z m 0,-1.771 q 2.05664,0 3.21826,1.30762 1.16797,1.30762 1.16797,3.61182 0,2.29785 -1.16797,3.60546 -1.16162,1.30762 -3.21826,1.30762 -2.05029,0 -3.21826,-1.30762 -1.16797,-1.30761 -1.16797,-3.60546 0,-2.3042 1.16797,-3.61182 1.16797,-1.30762 3.21826,-1.30762 z m 10.87354,7.92188 h -3.44043 L 593.31592,180 h -2.20899 l 3.16114,-9.47705 h 2.62158 L 600.05078,180 h -2.21533 z m -2.89454,-1.7583 h 2.33594 l -1.16162,-3.77051 z m 6.76661,-5.99219 h 2.79931 l 1.94239,5.07178 1.95507,-5.07178 h 2.79297 V 180 h -2.08203 v -6.93164 l -1.96142,5.10986 h -1.39649 l -1.96142,-5.10986 V 180 h -2.08838 z"
     id="text10"
     style="font-weight:700;font-size:13px;font-family:'DejaVu Sans Condensed';letter-spacing:0;fill:#12131a"
     aria-label="SEAFOAM" />
  <path
     d="m 553.97949,196.28076 h -1.66308 l -0.47608,2.12012 h 1.66944 z m -0.85693,-3.61181 -0.59033,2.63427 h 1.66308 l 0.60303,-2.63427 h 0.91406 l -0.59033,2.63427 h 1.78369 v 0.97754 h -2.00586 l -0.46972,2.12012 h 1.82177 v 0.97119 h -2.04394 L 553.61768,202 h -0.91407 l 0.58399,-2.62793 h -1.66944 L 551.02783,202 h -0.92041 l 0.59668,-2.62793 h -1.80273 v -0.97119 h 2.0122 l 0.48243,-2.12012 h -1.84082 v -0.97754 h 2.06298 l 0.58399,-2.63427 z m 5.63672,-0.146 h 5.48437 v 0.5459 L 561.146,202 h -1.19971 l 2.90723,-8.39795 h -4.09424 z m 11.229,4.36719 q 0.8252,0.19677 1.28858,0.81884 0.46972,0.62207 0.46972,1.53614 0,1.40283 -0.86963,2.1709 -0.86328,0.76806 -2.46289,0.76806 -0.53955,0 -1.11084,-0.1206 -0.56494,-0.11426 -1.17431,-0.34912 v -1.2378 q 0.48242,0.31104 1.05371,0.46973 0.57129,0.15869 1.19336,0.15869 1.08545,0 1.65039,-0.47607 0.57129,-0.47608 0.57129,-1.38379 0,-0.83789 -0.52686,-1.30762 -0.52685,-0.47607 -1.47266,-0.47607 h -0.99023 v -1.05372 h 1.03467 q 0.85058,0 1.30127,-0.37451 0.45703,-0.38086 0.45703,-1.09179 0,-0.72998 -0.46973,-1.11719 -0.46338,-0.39356 -1.33301,-0.39356 -0.47607,0 -1.01562,0.11426 -0.53955,0.11426 -1.19336,0.35547 v -1.14258 q 0.65381,-0.20312 1.2251,-0.30469 0.57763,-0.10156 1.08545,-0.10156 1.31396,0 2.08203,0.66651 0.76806,0.66015 0.76806,1.79004 0,0.7871 -0.40625,1.333 -0.40625,0.53955 -1.15527,0.74903 z m 4.99561,-3.31348 v 7.36963 h 1.39013 q 1.76465,0 2.5835,-0.88867 0.82519,-0.88867 0.82519,-2.80567 0,-1.90429 -0.82519,-2.78662 -0.81885,-0.88867 -2.5835,-0.88867 z m -1.15528,-1.05371 h 2.36768 q 2.48193,0 3.63721,1.14892 1.16162,1.14258 1.16162,3.58008 0,2.4502 -1.16797,3.59912 Q 578.66553,202 576.19629,202 h -2.36768 z m 9.14063,9.28027 v -1.16797 q 0.43799,0.22852 0.88232,0.34912 0.44434,0.12061 0.87598,0.12061 1.14258,0 1.7456,-0.85059 0.60303,-0.85693 0.68555,-2.59619 -0.33008,0.5459 -0.83789,0.83789 -0.50781,0.292 -1.12353,0.292 -1.28223,0 -2.03125,-0.85694 -0.74268,-0.86328 -0.74268,-2.35498 0,-1.45996 0.77441,-2.34228 0.78077,-0.88233 2.06934,-0.88233 1.479,0 2.25977,1.26319 0.78076,1.25683 0.78076,3.65625 0,2.24072 -0.9585,3.58007 -0.95215,1.33301 -2.5708,1.33301 -0.43799,0 -0.88232,-0.0952 -0.44434,-0.0952 -0.92676,-0.28565 z m 2.29785,-4.01806 q 0.78076,0 1.23145,-0.59034 0.45703,-0.59033 0.45703,-1.61865 0,-1.02197 -0.45703,-1.6123 -0.45069,-0.59668 -1.23145,-0.59668 -0.77441,0 -1.23145,0.59668 -0.45068,0.59033 -0.45068,1.6123 0,1.02832 0.45068,1.61865 0.45704,0.59034 1.23145,0.59034 z m 11.39404,-4.53223 v 1.35205 q -0.58398,-0.60303 -1.24414,-0.90137 -0.66015,-0.29834 -1.40283,-0.29834 -1.45996,0 -2.24072,0.99659 -0.77442,0.99023 -0.77442,2.86914 0,1.87255 0.77442,2.86914 0.78076,0.99023 2.24072,0.99023 0.74268,0 1.40283,-0.29834 0.66016,-0.29834 1.24414,-0.90137 v 1.33936 q -0.60302,0.45703 -1.28222,0.68555 -0.6792,0.22851 -1.42823,0.22851 -1.94238,0 -3.05322,-1.31396 -1.11084,-1.32032 -1.11084,-3.59912 0,-2.28516 1.11084,-3.59913 1.11084,-1.32031 3.05322,-1.32031 0.76172,0 1.44092,0.22852 0.6792,0.22217 1.26953,0.67285 z m 2.88184,7.66797 h 4.02441 V 202 h -5.41455 v -1.0791 q 0.65381,-0.75537 1.79004,-2.0249 1.13623,-1.27588 1.42822,-1.64405 0.55225,-0.69189 0.76807,-1.16797 0.22217,-0.48242 0.22217,-0.9458 0,-0.75537 -0.47608,-1.23144 -0.47607,-0.47608 -1.24414,-0.47608 -0.53955,0 -1.14257,0.20948 -0.60303,0.20947 -1.28858,0.63476 v -1.29492 q 0.69824,-0.31103 1.30127,-0.46973 0.60938,-0.15869 1.11084,-0.15869 1.32666,0 2.11377,0.73633 0.78711,0.73633 0.78711,1.96777 0,0.58399 -0.19678,1.11084 -0.19678,0.52051 -0.71728,1.23145 -0.146,0.18408 -0.91407,1.06641 -0.76171,0.87597 -2.15185,2.45654 z"
     id="text11"
     style="font-weight:500;font-size:13px;font-family:'DejaVu Sans Condensed';letter-spacing:0;fill:#12131a"
     aria-label="#73D9C2" />
  <rect
     x="680"
     y="20"
     width="112"
     height="132"
     rx="8"
     fill="#FF6257"
     stroke="#CFC9BD"
     id="rect11" />
  <path
     d="m 687.00781,170.82129 v 2.00586 q -0.69824,-0.34912 -1.37109,-0.52686 -0.66651,-0.17773 -1.26318,-0.17773 -0.78711,0 -1.16797,0.24121 -0.37452,0.24121 -0.37452,0.74902 0,0.38086 0.25391,0.59668 0.25391,0.20948 0.92676,0.36182 l 0.9331,0.20947 q 1.42823,0.31738 2.02491,0.96485 0.59668,0.64746 0.59668,1.84082 0,1.56787 -0.83789,2.33593 -0.83155,0.76172 -2.55176,0.76172 -0.8125,0 -1.63135,-0.17138 -0.8125,-0.17139 -1.63135,-0.50782 v -2.06299 q 0.81885,0.48243 1.58057,0.72998 0.76172,0.24122 1.47266,0.24122 0.71728,0 1.09814,-0.26661 0.38721,-0.2666 0.38721,-0.76171 0,-0.44434 -0.26026,-0.68555 -0.26025,-0.24121 -1.04101,-0.43164 l -0.85059,-0.20947 q -1.27588,-0.30469 -1.87256,-0.9712 -0.59033,-0.6665 -0.59033,-1.79638 0,-1.41553 0.8252,-2.17725 0.82519,-0.76172 2.36132,-0.76172 0.70459,0 1.44727,0.12061 0.74268,0.11426 1.53613,0.34912 z m 2.48828,-0.29834 h 2.20264 V 180 h -2.20264 z m 12.01612,8.77246 q -0.8252,0.44434 -1.71387,0.6665 -0.88232,0.22217 -1.82178,0.22217 -2.13281,0 -3.37695,-1.32031 -1.24414,-1.32666 -1.24414,-3.59277 0,-2.29151 1.26318,-3.60547 1.26953,-1.31397 3.47852,-1.31397 0.85058,0 1.63135,0.17774 0.78076,0.17773 1.47265,0.52685 v 1.96143 q -0.71728,-0.45069 -1.42187,-0.67285 -0.70459,-0.22217 -1.41553,-0.22217 -1.31397,0 -2.0249,0.81885 -0.71094,0.8125 -0.71094,2.32959 0,1.50439 0.68555,2.32324 0.68554,0.81885 1.94873,0.81885 0.34277,0 0.63476,-0.0444 0.29834,-0.0508 0.52686,-0.15234 v -1.84082 h -1.33936 v -1.6377 h 3.42774 z m 1.92968,-8.77246 h 2.45655 l 3.104,6.5 v -6.5 h 2.08203 V 180 h -2.45654 l -3.09766,-6.5 v 6.5 h -2.08838 z m 14.96778,7.75049 h -3.44043 L 714.42334,180 h -2.20898 l 3.16113,-9.47705 h 2.62158 L 721.1582,180 h -2.21533 z m -2.89453,-1.7583 h 2.33593 l -1.16162,-3.77051 z m 6.7666,-5.99219 h 2.20263 v 7.62988 h 3.85938 V 180 h -6.06201 z m 18.2876,8.95654 q -0.60938,0.34912 -1.26954,0.52686 -0.6538,0.17773 -1.36474,0.17773 -2.13281,0 -3.37695,-1.32031 -1.24415,-1.32666 -1.24415,-3.59277 0,-2.27246 1.24415,-3.59278 1.24414,-1.32666 3.37695,-1.32666 0.71094,0 1.36474,0.17774 0.66016,0.17773 1.26954,0.52685 v 1.96143 q -0.61573,-0.46338 -1.21241,-0.6792 -0.59033,-0.21582 -1.24414,-0.21582 -1.18066,0 -1.85351,0.83789 -0.67285,0.83789 -0.67285,2.31055 0,1.4663 0.67285,2.3042 0.67285,0.83789 1.85351,0.83789 0.65381,0 1.24414,-0.21582 0.59668,-0.21582 1.21241,-0.6792 z m 5.71289,-7.35693 q -1.00293,0 -1.56153,0.82519 -0.55224,0.8252 -0.55224,2.32325 0,1.4917 0.55224,2.31689 0.5586,0.8252 1.56153,0.8252 1.00927,0 1.56152,-0.8252 0.55859,-0.82519 0.55859,-2.31689 0,-1.49805 -0.55859,-2.32325 -0.55225,-0.82519 -1.56152,-0.82519 z m 0,-1.771 q 2.05664,0 3.21826,1.30762 1.16797,1.30762 1.16797,3.61182 0,2.29785 -1.16797,3.60546 -1.16162,1.30762 -3.21826,1.30762 -2.0503,0 -3.21827,-1.30762 -1.16796,-1.30761 -1.16796,-3.60546 0,-2.3042 1.16796,-3.61182 1.16797,-1.30762 3.21827,-1.30762 z m 9.17236,4.37354 q 0.68555,0 0.98389,-0.28565 0.30468,-0.28564 0.30468,-0.93945 0,-0.64746 -0.30468,-0.92676 -0.29834,-0.27929 -0.98389,-0.27929 h -0.92676 v 2.43115 z m -0.92676,1.68847 V 180 h -2.20263 v -9.47705 h 3.35791 q 1.68847,0 2.46923,0.62842 0.78711,0.62842 0.78711,1.98681 0,0.93946 -0.40625,1.54248 -0.40625,0.60303 -1.23144,0.88868 0.45068,0.11425 0.80615,0.5205 0.36182,0.39991 0.72363,1.21875 L 760.0249,180 h -2.34228 l -1.03467,-2.35498 q -0.31738,-0.71094 -0.64111,-0.97119 -0.32373,-0.26026 -0.85694,-0.26026 z m 11.98438,1.85987 h -3.44043 L 762.52588,180 h -2.20899 l 3.16114,-9.47705 h 2.62158 L 769.26074,180 h -2.21533 z m -2.89453,-1.7583 h 2.33593 l -1.16162,-3.77051 z m 6.7666,-5.99219 h 2.20263 v 7.62988 h 3.85938 V 180 h -6.06201 z"
     id="text12"
     style="font-weight:700;font-size:13px;font-family:'DejaVu Sans Condensed';letter-spacing:0;fill:#12131a"
     aria-label="SIGNAL CORAL" />
  <path
     d="m 685.97949,196.28076 h -1.66308 l -0.47608,2.12012 h 1.66944 z m -0.85693,-3.61181 -0.59033,2.63427 h 1.66308 l 0.60303,-2.63427 h 0.91406 l -0.59033,2.63427 h 1.78369 v 0.97754 h -2.00586 l -0.46972,2.12012 h 1.82177 v 0.97119 h -2.04394 L 685.61768,202 h -0.91407 l 0.58399,-2.62793 h -1.66944 L 683.02783,202 h -0.92041 l 0.59668,-2.62793 h -1.80273 v -0.97119 h 2.0122 l 0.48243,-2.12012 h -1.84082 v -0.97754 h 2.06298 l 0.58399,-2.63427 z m 5.82715,-0.146 h 4.90039 v 1.0791 h -3.74512 v 2.79297 h 3.3833 v 1.0791 h -3.3833 V 202 h -1.15527 z m 6.72851,0 h 4.90039 v 1.0791 h -3.74511 v 2.79297 h 3.3833 v 1.0791 h -3.3833 V 202 h -1.15528 z m 9.43897,4.22754 q -0.77442,0 -1.23145,0.59033 -0.45068,0.59033 -0.45068,1.61865 0,1.02198 0.45068,1.61865 0.45703,0.59034 1.23145,0.59034 0.78076,0 1.23144,-0.59034 0.45703,-0.59667 0.45703,-1.61865 0,-1.02832 -0.45703,-1.61865 -0.45068,-0.59033 -1.23144,-0.59033 z m 2.2915,-4.01807 v 1.16797 q -0.43164,-0.22852 -0.87598,-0.34912 -0.44433,-0.12061 -0.87597,-0.12061 -1.14258,0 -1.74561,0.85694 -0.60302,0.85693 -0.68554,2.58984 0.33642,-0.55224 0.84423,-0.84424 0.50782,-0.29834 1.11719,-0.29834 1.28858,0 2.03125,0.86963 0.74903,0.86328 0.74903,2.35498 0,1.45996 -0.78077,2.34229 -0.77441,0.88232 -2.06933,0.88232 -1.47901,0 -2.25977,-1.25683 -0.78076,-1.26319 -0.78076,-3.65625 0,-2.24707 0.9585,-3.58008 0.95849,-1.33936 2.57714,-1.33936 0.43165,0 0.87598,0.0952 0.44434,0.0952 0.92041,0.28564 z m 3.53565,8.18848 h 4.02441 V 202 h -5.41455 v -1.0791 q 0.65381,-0.75537 1.79004,-2.0249 1.13623,-1.27588 1.42822,-1.64405 0.55225,-0.69189 0.76807,-1.16797 0.22217,-0.48242 0.22217,-0.9458 0,-0.75537 -0.47608,-1.23144 -0.47607,-0.47608 -1.24414,-0.47608 -0.53955,0 -1.14258,0.20948 -0.60303,0.20947 -1.28857,0.63476 v -1.29492 q 0.69824,-0.31103 1.30127,-0.46973 0.60937,-0.15869 1.11084,-0.15869 1.32666,0 2.11377,0.73633 0.78711,0.73633 0.78711,1.96777 0,0.58399 -0.19678,1.11084 -0.19678,0.52051 -0.71729,1.23145 -0.14599,0.18408 -0.91406,1.06641 -0.76172,0.87597 -2.15185,2.45654 z m 6.45556,-8.39795 h 4.53223 v 1.0791 h -3.47852 v 2.32324 q 0.25391,-0.0952 0.50147,-0.13965 0.2539,-0.0508 0.50781,-0.0508 1.42822,0 2.25977,0.86963 0.83789,0.86963 0.83789,2.35498 0,1.52979 -0.85694,2.38037 -0.85693,0.84424 -2.41845,0.84424 -0.53955,0 -1.09815,-0.10156 -0.55224,-0.10156 -1.14892,-0.30469 v -1.28857 q 0.51416,0.31103 1.06005,0.46338 0.55225,0.15234 1.16163,0.15234 0.99023,0 1.56787,-0.57764 0.57763,-0.57763 0.57763,-1.56787 0,-0.99023 -0.57763,-1.56787 -0.57764,-0.57764 -1.56787,-0.57764 -0.46338,0 -0.92676,0.11426 -0.45703,0.11426 -0.93311,0.35547 z m 7.13477,0 h 5.48437 v 0.5459 L 728.92139,202 h -1.19971 l 2.90723,-8.39795 h -4.09424 z"
     id="text13"
     style="font-weight:500;font-size:13px;font-family:'DejaVu Sans Condensed';letter-spacing:0;fill:#12131a"
     aria-label="#FF6257" />
  <rect
     x="812"
     y="20"
     width="112"
     height="132"
     rx="8"
     fill="#FFD76A"
     stroke="#CFC9BD"
     id="rect13" />
  <path
     d="m 816.48779,174.19189 q 0.52051,0 0.78711,-0.2539 0.27295,-0.25391 0.27295,-0.74903 0,-0.48876 -0.27295,-0.74267 -0.2666,-0.26025 -0.78711,-0.26025 h -1.2124 v 2.00585 z m 0.0762,4.14502 q 0.66651,0 0.99659,-0.31103 0.33642,-0.31104 0.33642,-0.93945 0,-0.61573 -0.33642,-0.92041 -0.33008,-0.31104 -0.99659,-0.31104 h -1.28857 v 2.48193 z m 2.04395,-3.40869 q 0.71094,0.22852 1.09814,0.84424 0.38721,0.61572 0.38721,1.51074 0,1.3711 -0.83789,2.04395 Q 818.42383,180 816.72266,180 h -3.64991 v -9.47705 h 3.30079 q 1.77734,0 2.5708,0.59668 0.7998,0.59668 0.7998,1.91064 0,0.6919 -0.29199,1.18067 -0.28565,0.48242 -0.84424,0.71728 z m 3.37695,-4.40527 h 2.20264 v 5.68115 q 0,1.17432 0.34277,1.68213 0.34912,0.50147 1.12989,0.50147 0.78711,0 1.12988,-0.50147 0.34912,-0.50781 0.34912,-1.68213 v -5.68115 h 2.20264 v 5.68115 q 0,2.01221 -0.91407,2.9961 -0.90771,0.98388 -2.76757,0.98388 -1.85987,0 -2.76758,-0.98388 -0.90772,-0.98389 -0.90772,-2.9961 z m 8.48047,0 h 7.8584 v 1.84717 h -2.82471 V 180 h -2.20263 v -7.62988 h -2.83106 z m 8.27735,0 h 7.85839 v 1.84717 h -2.8247 V 180 h -2.20264 v -7.62988 h -2.83105 z m 8.99462,0 h 5.93506 v 1.84717 h -3.73242 v 1.76465 h 3.51026 v 1.84716 h -3.51026 v 2.1709 h 3.85938 V 180 h -6.06202 z m 11.1211,4.20215 q 0.68555,0 0.98389,-0.28565 0.30468,-0.28564 0.30468,-0.93945 0,-0.64746 -0.30468,-0.92676 -0.29834,-0.27929 -0.98389,-0.27929 h -0.92676 v 2.43115 z m -0.92676,1.68847 V 180 H 855.729 v -9.47705 h 3.35791 q 1.68848,0 2.46924,0.62842 0.78711,0.62842 0.78711,1.98681 0,0.93946 -0.40625,1.54248 -0.40625,0.60303 -1.23144,0.88868 0.45068,0.11425 0.80615,0.5205 0.36182,0.39991 0.72363,1.21875 L 863.42871,180 h -2.34228 l -1.03467,-2.35498 q -0.31739,-0.71094 -0.64112,-0.97119 -0.32373,-0.26026 -0.85693,-0.26026 z m 9.68652,-5.89062 h 2.40577 l 1.94238,3.37695 1.94238,-3.37695 h 2.41211 l -3.25,5.48437 V 180 h -2.20264 v -3.99268 z m 9.65479,0 h 5.93506 v 1.84717 h -3.73242 v 1.76465 h 3.51025 v 1.84716 h -3.51025 v 2.1709 h 3.85937 V 180 h -6.06201 z m 7.9917,0 h 2.20264 v 7.62988 h 3.85937 V 180 h -6.06201 z m 7.45215,0 h 2.20263 v 7.62988 h 3.85938 V 180 h -6.06201 z m 10.88623,1.59961 q -1.00293,0 -1.56153,0.82519 -0.55224,0.8252 -0.55224,2.32325 0,1.4917 0.55224,2.31689 0.5586,0.8252 1.56153,0.8252 1.00927,0 1.56152,-0.8252 0.55859,-0.82519 0.55859,-2.31689 0,-1.49805 -0.55859,-2.32325 -0.55225,-0.82519 -1.56152,-0.82519 z m 0,-1.771 q 2.05664,0 3.21826,1.30762 1.16797,1.30762 1.16797,3.61182 0,2.29785 -1.16797,3.60546 -1.16162,1.30762 -3.21826,1.30762 -2.0503,0 -3.21826,-1.30762 -1.16797,-1.30761 -1.16797,-3.60546 0,-2.3042 1.16797,-3.61182 1.16796,-1.30762 3.21826,-1.30762 z m 5.31933,0.17139 h 2.10743 l 1.47265,6.88721 1.46631,-6.88721 h 2.12012 l 1.45996,6.88721 1.47265,-6.88721 h 2.09473 L 919.104,180 h -2.53906 L 915.01611,172.79541 913.48633,180 h -2.53906 z"
     id="text14"
     style="font-weight:700;font-size:13px;font-family:'DejaVu Sans Condensed';letter-spacing:0;fill:#12131a"
     aria-label="BUTTER YELLOW" />
  <path
     d="m 817.97949,196.28076 h -1.66308 l -0.47608,2.12012 h 1.66944 z m -0.85693,-3.61181 -0.59033,2.63427 h 1.66308 l 0.60303,-2.63427 h 0.91406 l -0.59033,2.63427 h 1.78369 v 0.97754 h -2.00586 l -0.46972,2.12012 h 1.82177 v 0.97119 h -2.04394 L 817.61768,202 h -0.91407 l 0.58399,-2.62793 h -1.66944 L 815.02783,202 h -0.92041 l 0.59668,-2.62793 h -1.80273 v -0.97119 h 2.0122 l 0.48243,-2.12012 h -1.84082 v -0.97754 h 2.06298 l 0.58399,-2.63427 z m 5.82715,-0.146 h 4.90039 v 1.0791 h -3.74512 v 2.79297 h 3.3833 v 1.0791 h -3.3833 V 202 h -1.15527 z m 6.72851,0 h 4.90039 v 1.0791 h -3.74511 v 2.79297 h 3.3833 v 1.0791 h -3.3833 V 202 h -1.15528 z m 7.88379,1.05371 v 7.36963 h 1.39014 q 1.76465,0 2.58349,-0.88867 0.8252,-0.88867 0.8252,-2.80567 0,-1.90429 -0.8252,-2.78662 -0.81884,-0.88867 -2.58349,-0.88867 z m -1.15527,-1.05371 h 2.36767 q 2.48194,0 3.63721,1.14892 1.16162,1.14258 1.16162,3.58008 0,2.4502 -1.16797,3.59912 Q 841.24365,202 838.77441,202 h -2.36767 z m 8.81689,0 h 5.48438 v 0.5459 L 847.61035,202 h -1.19971 l 2.90723,-8.39795 h -4.09424 z m 10.34033,4.22754 q -0.77441,0 -1.23144,0.59033 -0.45068,0.59033 -0.45068,1.61865 0,1.02198 0.45068,1.61865 0.45703,0.59034 1.23144,0.59034 0.78077,0 1.23145,-0.59034 0.45703,-0.59667 0.45703,-1.61865 0,-1.02832 -0.45703,-1.61865 -0.45068,-0.59033 -1.23145,-0.59033 z m 2.29151,-4.01807 v 1.16797 q -0.43164,-0.22852 -0.87598,-0.34912 -0.44433,-0.12061 -0.87597,-0.12061 -1.14258,0 -1.74561,0.85694 -0.60303,0.85693 -0.68555,2.58984 0.33643,-0.55224 0.84424,-0.84424 0.50781,-0.29834 1.11719,-0.29834 1.28857,0 2.03125,0.86963 0.74902,0.86328 0.74902,2.35498 0,1.45996 -0.78076,2.34229 -0.77441,0.88232 -2.06934,0.88232 -1.479,0 -2.25976,-1.25683 -0.78076,-1.26319 -0.78076,-3.65625 0,-2.24707 0.95849,-3.58008 0.9585,-1.33936 2.57715,-1.33936 0.43164,0 0.87598,0.0952 0.44433,0.0952 0.92041,0.28564 z m 5.2876,1.05371 -1.56787,4.71631 h 3.14209 z m -0.65381,-1.26318 h 1.31396 l 3.25,9.47705 h -1.1997 l -0.78077,-2.43115 h -3.84668 L 860.45166,202 h -1.21875 z"
     id="text15"
     style="font-weight:500;font-size:13px;font-family:'DejaVu Sans Condensed';letter-spacing:0;fill:#12131a"
     aria-label="#FFD76A" />
  <rect
     x="944"
     y="20"
     width="112"
     height="132"
     rx="8"
     fill="#12131A"
     stroke="#CFC9BD"
     id="rect15" />
  <path
     d="m 945.07275,170.52295 h 2.45655 l 3.104,6.5 v -6.5 h 2.08203 V 180 h -2.45654 l -3.09766,-6.5 v 6.5 h -2.08838 z m 9.78809,0 h 5.93506 v 1.84717 h -3.73242 v 1.76465 h 3.51025 v 1.84716 h -3.51025 v 2.1709 h 3.85937 V 180 h -6.06201 z m 13.17139,7.75049 H 964.5918 L 964.0459,180 h -2.20899 l 3.16114,-9.47705 h 2.62158 L 970.78076,180 h -2.21533 z m -2.89453,-1.7583 h 2.33593 l -1.16162,-3.77051 z m 9.89599,-1.79004 q 0.68555,0 0.98389,-0.28565 0.30469,-0.28564 0.30469,-0.93945 0,-0.64746 -0.30469,-0.92676 -0.29834,-0.27929 -0.98389,-0.27929 h -0.92676 v 2.43115 z m -0.92676,1.68847 V 180 h -2.20263 v -9.47705 h 3.35791 q 1.68847,0 2.46924,0.62842 0.7871,0.62842 0.7871,1.98681 0,0.93946 -0.40625,1.54248 -0.40625,0.60303 -1.23144,0.88868 0.45068,0.11425 0.80615,0.5205 0.36182,0.39991 0.72363,1.21875 L 979.604,180 h -2.34228 l -1.03467,-2.35498 q -0.31738,-0.71094 -0.64111,-0.97119 -0.32373,-0.26026 -0.85694,-0.26026 z m 14.28858,-2.22168 q 0.52051,0 0.78711,-0.2539 0.27295,-0.25391 0.27295,-0.74903 0,-0.48876 -0.27295,-0.74267 -0.2666,-0.26025 -0.78711,-0.26025 h -1.2124 v 2.00585 z m 0.0762,4.14502 q 0.6665,0 0.99658,-0.31103 0.33643,-0.31104 0.33643,-0.93945 0,-0.61573 -0.33643,-0.92041 -0.33008,-0.31104 -0.99658,-0.31104 h -1.28857 v 2.48193 z m 2.04394,-3.40869 q 0.71094,0.22852 1.09815,0.84424 0.38721,0.61572 0.38721,1.51074 0,1.3711 -0.83789,2.04395 Q 990.33154,180 988.63037,180 h -3.6499 v -9.47705 h 3.30078 q 1.77734,0 2.5708,0.59668 0.79981,0.59668 0.79981,1.91064 0,0.6919 -0.292,1.18067 -0.28564,0.48242 -0.84424,0.71728 z m 3.37696,-4.40527 h 2.20263 v 7.62988 h 3.85938 V 180 h -6.06201 z m 12.63182,7.75049 h -3.4404 L 1002.5381,180 h -2.209 l 3.1611,-9.47705 h 2.6216 L 1009.2729,180 h -2.2153 z m -2.8945,-1.7583 h 2.3359 l -1.1616,-3.77051 z m 13.5332,2.96435 q -0.6094,0.34912 -1.2695,0.52686 -0.6539,0.17773 -1.3648,0.17773 -2.1328,0 -3.3769,-1.32031 -1.2442,-1.32666 -1.2442,-3.59277 0,-2.27246 1.2442,-3.59278 1.2441,-1.32666 3.3769,-1.32666 0.7109,0 1.3648,0.17774 0.6601,0.17773 1.2695,0.52685 v 1.96143 q -0.6157,-0.46338 -1.2124,-0.6792 -0.5903,-0.21582 -1.2442,-0.21582 -1.1806,0 -1.8535,0.83789 -0.6728,0.83789 -0.6728,2.31055 0,1.4663 0.6728,2.3042 0.6729,0.83789 1.8535,0.83789 0.6539,0 1.2442,-0.21582 0.5967,-0.21582 1.2124,-0.6792 z m 1.8154,-8.95654 h 2.2027 v 3.45947 l 3.1674,-3.45947 h 2.5581 l -4.1132,4.48779 4.5322,4.98926 h -2.7549 l -3.3896,-3.73242 V 180 h -2.2027 z"
     id="text16"
     style="font-weight:700;font-size:13px;font-family:'DejaVu Sans Condensed';letter-spacing:0;fill:#12131a"
     aria-label="NEAR BLACK" />
  <path
     d="m 949.97949,196.28076 h -1.66308 l -0.47608,2.12012 h 1.66944 z m -0.85693,-3.61181 -0.59033,2.63427 h 1.66308 l 0.60303,-2.63427 h 0.91406 l -0.59033,2.63427 h 1.78369 v 0.97754 h -2.00586 l -0.46972,2.12012 h 1.82177 v 0.97119 h -2.04394 L 949.61768,202 h -0.91407 l 0.58399,-2.62793 h -1.66944 L 947.02783,202 h -0.92041 l 0.59668,-2.62793 h -1.80273 v -0.97119 h 2.0122 l 0.48243,-2.12012 h -1.84082 v -0.97754 h 2.06298 l 0.58399,-2.63427 z m 6.13183,8.25195 h 1.88526 v -7.22998 l -2.05664,0.45703 v -1.16797 l 2.04394,-0.45703 h 1.15528 v 8.39795 h 1.88525 V 202 h -4.91309 z m 8.23291,0 h 4.02442 V 202 h -5.41455 v -1.0791 q 0.65381,-0.75537 1.79004,-2.0249 1.13623,-1.27588 1.42822,-1.64405 0.55225,-0.69189 0.76807,-1.16797 0.22216,-0.48242 0.22216,-0.9458 0,-0.75537 -0.47607,-1.23144 -0.47607,-0.47608 -1.24414,-0.47608 -0.53955,0 -1.14258,0.20948 -0.60303,0.20947 -1.28857,0.63476 v -1.29492 q 0.69824,-0.31103 1.30127,-0.46973 0.60937,-0.15869 1.11084,-0.15869 1.32666,0 2.11377,0.73633 0.78711,0.73633 0.78711,1.96777 0,0.58399 -0.19678,1.11084 -0.19678,0.52051 -0.71729,1.23145 -0.14599,0.18408 -0.91406,1.06641 -0.76172,0.87597 -2.15186,2.45654 z m 6.646,0 h 1.88525 v -7.22998 l -2.05664,0.45703 v -1.16797 l 2.04395,-0.45703 h 1.15527 v 8.39795 h 1.88526 V 202 h -4.91309 z m 10.73389,-4.03076 q 0.82519,0.19677 1.28857,0.81884 0.46973,0.62207 0.46973,1.53614 0,1.40283 -0.86963,2.1709 -0.86328,0.76806 -2.46289,0.76806 -0.53955,0 -1.11084,-0.1206 -0.56494,-0.11426 -1.17432,-0.34912 v -1.2378 q 0.48242,0.31104 1.05371,0.46973 0.57129,0.15869 1.19336,0.15869 1.08545,0 1.65039,-0.47607 0.57129,-0.47608 0.57129,-1.38379 0,-0.83789 -0.52685,-1.30762 -0.52686,-0.47607 -1.47266,-0.47607 h -0.99023 v -1.05372 h 1.03466 q 0.85059,0 1.30127,-0.37451 0.45704,-0.38086 0.45704,-1.09179 0,-0.72998 -0.46973,-1.11719 -0.46338,-0.39356 -1.33301,-0.39356 -0.47607,0 -1.01562,0.11426 -0.53956,0.11426 -1.19336,0.35547 v -1.14258 q 0.6538,-0.20312 1.22509,-0.30469 0.57764,-0.10156 1.08545,-0.10156 1.31397,0 2.08203,0.66651 0.76807,0.66015 0.76807,1.79004 0,0.7871 -0.40625,1.333 -0.40625,0.53955 -1.15527,0.74903 z m 4.14502,4.03076 h 1.88525 v -7.22998 l -2.05664,0.45703 v -1.16797 l 2.04395,-0.45703 h 1.15527 v 8.39795 h 1.88525 V 202 h -4.91308 z m 9.98486,-7.13477 -1.56787,4.71631 h 3.14209 z m -0.65381,-1.26318 h 1.31397 l 3.25,9.47705 h -1.19971 l -0.78076,-2.43115 h -3.84668 L 992.30566,202 h -1.21875 z"
     id="text17"
     style="font-weight:500;font-size:13px;font-family:'DejaVu Sans Condensed';letter-spacing:0;fill:#12131a"
     aria-label="#12131A" />
</svg>
